<?xml version="1.0" encoding="UTF-8"?>
<svg version="1.1" xmlns="http://www.w3.org/2000/svg" width="512" height="512">
<path d="M0 0 C6.01186266 5.89242168 11.30318052 12.50800273 16.5859375 19.05078125 C19.3386198 22.413686 22.16185219 25.70926459 25 29 C29.31956779 34.0129489 33.55097925 39.08538313 37.72265625 44.22265625 C40.28204054 47.34396367 42.88593791 50.4245003 45.5 53.5 C48.87283589 57.46903543 52.21176645 61.46017021 55.5 65.5 C60.58175677 71.73916756 65.78894106 77.86891962 71 84 C76.9600827 91.01234558 82.87758795 98.04960805 88.6875 105.1875 C91.26146773 108.31800129 93.87588639 111.41155387 96.5 114.5 C118.43601178 140.3445686 118.43601178 140.3445686 118.26953125 149.65234375 C117.83116145 153.47060828 116.61082696 156.17708905 114 159 C109.3172151 162.43336507 104.81544316 163.83077759 99 163 C92.9569005 160.76676558 89.13993269 157.55037229 85.1875 152.5625 C84.15365052 151.30728781 83.11979624 150.05207957 82.0859375 148.796875 C81.57256836 148.16330078 81.05919922 147.52972656 80.53027344 146.87695312 C78.61931755 144.53307488 76.66068695 142.23265522 74.6965332 139.93334961 C70.15990546 134.62047757 65.72270481 129.23075163 61.3125 123.8125 C58.2756723 120.1190609 55.18039045 116.47701514 52.08374023 112.83374023 C49.2045468 109.44045891 46.36795763 106.01732214 43.5625 102.5625 C40.10725849 98.31607618 36.57302166 94.14703706 33 90 C28.68854589 84.99589935 24.4634642 79.93384346 20.30078125 74.8046875 C17.15309466 70.96760945 13.94013753 67.18723977 10.71655273 63.41381836 C8.38129091 60.67160628 6.14489106 57.89254102 4 55 C3.99910437 56.17355005 3.99910437 56.17355005 3.99819064 57.37080818 C3.96230852 103.7246356 3.90568775 150.07839781 3.82207905 196.43216497 C3.81206141 201.99603615 3.80221731 207.55990762 3.79248047 213.1237793 C3.78956841 214.78530216 3.78956841 214.78530216 3.78659752 216.48039114 C3.75556361 234.42350336 3.73859298 252.36660279 3.72680578 270.3097368 C3.71440143 288.71657914 3.68691622 307.12335426 3.64538693 325.53015417 C3.62023105 336.89112828 3.60688425 348.25199093 3.60857043 359.61299329 C3.60860015 367.40020915 3.59400129 375.18731133 3.56783572 382.9744829 C3.55316608 387.46948762 3.54500707 391.9642592 3.55419731 396.45928383 C3.56246888 400.57455338 3.55237195 404.68935401 3.52766338 408.80455392 C3.52196776 410.29321815 3.52301377 411.78192666 3.53148755 413.27057768 C3.60381229 427.16713948 3.60381229 427.16713948 -1 433 C-5.17448008 436.52511652 -8.54351472 437.80854438 -14 438 C-19.54694133 437.0436308 -22.48253165 435.39683544 -26 431 C-29.98278363 424.1860317 -29.42701936 417.11193081 -29.39872742 409.41529846 C-29.40416944 407.91607419 -29.41092207 406.41685419 -29.41886932 404.9176411 C-29.43688342 400.80603667 -29.43633895 396.69461296 -29.43273985 392.58297837 C-29.43211585 388.14608414 -29.44873753 383.70925047 -29.46325684 379.27238464 C-29.48604703 371.58790704 -29.49792868 363.90347479 -29.50238609 356.21896553 C-29.50884654 345.10848864 -29.5317821 333.99809374 -29.55872939 322.88764989 C-29.60200331 304.86139075 -29.63196662 286.83513507 -29.65356445 268.80883789 C-29.67457232 251.29872949 -29.70184575 233.78864932 -29.73754883 216.27856445 C-29.73974765 215.19911112 -29.74194648 214.11965778 -29.74421193 213.00749374 C-29.75528154 207.59215417 -29.76647436 202.17681487 -29.77772844 196.76147568 C-29.87092212 151.8410087 -29.94251613 106.92052592 -30 62 C-31.7717015 64.08834067 -33.54267395 66.17729216 -35.31323242 68.26660156 C-35.81284233 68.85535065 -36.31245224 69.44409973 -36.82720184 70.0506897 C-40.0775851 73.8876873 -43.24227412 77.76644642 -46.3125 81.75 C-50.98740971 87.76597419 -55.80089011 93.6579225 -60.65625 99.52880859 C-64.73260065 104.45811555 -68.7833598 109.40703101 -72.8125 114.375 C-76.36674339 118.75684268 -79.92400988 123.13585905 -83.5 127.5 C-86.60870025 131.29444296 -89.70713681 135.09701701 -92.79858398 138.90551758 C-93.92690817 140.29451072 -95.05661458 141.68238226 -96.18774414 143.0690918 C-98.69515261 146.14517563 -101.18902408 149.22716657 -103.62109375 152.36328125 C-104.38550781 153.33652344 -105.14992187 154.30976563 -105.9375 155.3125 C-106.58589844 156.15425781 -107.23429687 156.99601563 -107.90234375 157.86328125 C-111.4614212 161.48863575 -114.87134495 162.8725712 -119.875 163.4375 C-125.13906944 163.19547382 -129.77861834 161.40857674 -133.390625 157.4921875 C-136.33873374 153.02850174 -136.98197493 148.22835302 -136 143 C-133.79437566 137.53589231 -130.27032903 133.4383027 -126.5 129 C-125.23173841 127.48549152 -123.96482779 125.96985079 -122.69921875 124.453125 C-122.07192871 123.70224609 -121.44463867 122.95136719 -120.79833984 122.17773438 C-118.24189237 119.08195492 -115.77222155 115.9227887 -113.3125 112.75 C-109.37431712 107.68497939 -105.29717767 102.76626958 -101.12426758 97.89355469 C-97.81147705 94.00695517 -94.63330454 90.03227182 -91.5 86 C-87.42605858 80.75802578 -83.21979362 75.65567235 -78.90966797 70.60668945 C-75.60133299 66.72687182 -72.39087795 62.78349396 -69.22265625 58.7890625 C-66.35853172 55.19506441 -63.46170086 51.62822672 -60.5625 48.0625 C-59.9967627 47.36664795 -59.43102539 46.6707959 -58.84814453 45.95385742 C-55.73815886 42.13092306 -52.62258314 38.31265676 -49.5 34.5 C-48.80519531 33.64921875 -48.11039062 32.7984375 -47.39453125 31.921875 C-45.50302808 29.61380914 -43.60309059 27.31345726 -41.69921875 25.015625 C-40.52850881 23.59386282 -39.35793561 22.17198803 -38.1875 20.75 C-37.63578125 20.08806641 -37.0840625 19.42613281 -36.515625 18.74414062 C-33.17971204 14.67824182 -30.49511809 10.63057952 -28 6 C-24.94829301 0.88100763 -22.44725498 -1.85091501 -16.75 -3.75 C-10.42423953 -4.32506913 -5.26912301 -3.69820435 0 0 Z " fill="#000000" transform="translate(265,39)"/>
</svg>
