<?xml version="1.0" encoding="UTF-8"?>
<svg version="1.1" xmlns="http://www.w3.org/2000/svg" width="512" height="512">
<path d="M0 0 C1.90298462 1.36425781 1.90298462 1.36425781 3.77197266 3.078125 C4.46494446 3.71024902 5.15791626 4.34237305 5.87188721 4.99365234 C11.67529038 10.46499972 17.35839223 16.05221997 23.02001953 21.66992188 C24.59544385 23.22868714 26.17622776 24.78205335 27.76220703 26.33007812 C30.06987329 28.58299266 32.36066423 30.85190826 34.6484375 33.125 C35.35672699 33.81062012 36.06501648 34.49624023 36.79476929 35.20263672 C41.47387154 39.90210699 43.75998774 43.44776753 44.1171875 50.22265625 C44.03726563 50.82980469 43.95734375 51.43695313 43.875 52.0625 C43.81054688 52.67222656 43.74609375 53.28195313 43.6796875 53.91015625 C41.52620022 60.53151081 35.97247102 65.31268692 31.17382812 70.08496094 C30.38962997 70.87266373 29.60543182 71.66036652 28.79747009 72.47193909 C26.21372598 75.06445905 23.62276665 77.64962628 21.03125 80.234375 C19.2302167 82.03675587 17.42948035 83.83943351 15.62902832 85.64239502 C11.85960715 89.41476161 8.08669651 93.1835897 4.31103516 96.94970703 C-0.05075227 101.30059586 -4.40526691 105.65866397 -8.75610495 110.02049994 C-12.94936075 114.22392931 -17.14822946 118.42171675 -21.34950256 122.61713409 C-23.13398624 124.40028259 -24.91698262 126.18492077 -26.69847107 127.97106171 C-29.18545407 130.46311429 -31.67874172 132.9486815 -34.17382812 135.43261719 C-34.91057266 136.17341019 -35.6473172 136.91420319 -36.40638733 137.67744446 C-37.08765182 138.35306931 -37.76891632 139.02869415 -38.4708252 139.72479248 C-39.0592646 140.31247784 -39.64770401 140.90016319 -40.25397491 141.5056572 C-43.96231494 144.67945537 -47.04343185 145.31352967 -51.875 145.375 C-52.88304687 145.40335938 -53.89109375 145.43171875 -54.9296875 145.4609375 C-62.19343552 144.37045116 -67.35316337 137.99617367 -72.35546875 133.05078125 C-73.13892166 132.27872849 -73.92237457 131.50667572 -74.72956848 130.71122742 C-76.37873562 129.08089111 -78.02506072 127.44767552 -79.66870117 125.81176758 C-82.17591046 123.32399968 -84.70364184 120.85839078 -87.23242188 118.39257812 C-88.83725401 116.80080538 -90.44081289 115.2077477 -92.04296875 113.61328125 C-92.79611862 112.88482498 -93.54926849 112.15636871 -94.32524109 111.40583801 C-98.90871855 106.78312392 -101.94758472 102.5379203 -103 96 C-102.94269059 90.74199385 -101.39326886 87.09531918 -97.88194275 83.21821594 C-96.93951123 82.17678405 -96.93951123 82.17678405 -95.9780407 81.11431313 C-92.79425455 77.71118758 -89.54883692 74.37647612 -86.26391602 71.07104492 C-85.15512085 69.94998352 -85.15512085 69.94998352 -84.02392578 68.80627441 C-81.60358671 66.36134232 -79.17931555 63.92037073 -76.75390625 61.48046875 C-75.92080366 60.64204248 -75.08770107 59.80361622 -74.22935295 58.9397831 C-69.82726147 54.51108652 -65.42158598 50.08598754 -61.01342773 45.66333008 C-57.37422244 42.01074235 -53.74244006 38.35100867 -50.11694336 34.68481445 C-45.7238773 30.24245456 -41.31868558 25.81247289 -36.90446281 21.39113808 C-35.229323 19.70929071 -33.55843659 18.02319549 -31.89196968 16.33275414 C-29.56142469 13.97057791 -27.21558375 11.6246771 -24.86547852 9.28198242 C-24.18523117 8.58532974 -23.50498383 7.88867706 -22.80412292 7.1709137 C-16.32182982 0.77173595 -9.126906 -2.87364165 0 0 Z " fill="#000000" transform="translate(346,123)"/>
<path d="M0 0 C4.98370214 2.8742078 8.83980314 6.5469245 12.859375 10.59375 C13.80505341 11.53655823 13.80505341 11.53655823 14.76983643 12.49841309 C16.09331933 13.82054177 17.41430713 15.14517237 18.73291016 16.47216797 C20.75072472 18.50072858 22.7790352 20.51835296 24.80859375 22.53515625 C26.09699622 23.82487975 27.38477847 25.11522321 28.671875 26.40625 C29.2770697 27.00739624 29.8822644 27.60854248 30.50579834 28.22790527 C31.06688293 28.79529419 31.62796753 29.36268311 32.20605469 29.94726562 C32.69869812 30.44150024 33.19134155 30.93573486 33.69891357 31.44494629 C36.09994095 34.31464538 36.95342476 36.58858541 37.375 40.3125 C36.49143888 49.00085098 30.02451157 54.40126338 24.11987305 60.25244141 C23.22345093 61.15251419 22.32702881 62.05258698 21.40344238 62.97993469 C18.95767314 65.43506235 16.50265914 67.88074376 14.04553962 70.32450533 C11.46685924 72.89181449 8.89595334 75.46688903 6.32392883 78.04086304 C2.00410394 82.36156919 -2.32164372 86.67627387 -6.65112305 90.98730469 C-11.64482042 95.95984376 -16.62964079 100.94114456 -21.60964805 105.92739165 C-26.41461784 110.73807184 -31.22526397 115.54303541 -36.03868675 120.34525681 C-38.08051482 122.38246037 -40.12047057 124.42151145 -42.15892982 126.46208572 C-45.01067346 129.31607646 -47.87072526 132.16160009 -50.73168945 135.00634766 C-51.98894081 136.26731514 -51.98894081 136.26731514 -53.27159119 137.55375671 C-62.05056103 146.25363117 -69.68858099 151.98656094 -82.375 152.4375 C-91.79305394 152.17375053 -99.43770869 149.48494331 -106.28125 142.921875 C-113.37955179 134.984683 -115.51439586 126.8458875 -115.30859375 116.27734375 C-114.0488203 102.89823078 -103.87476597 93.57304873 -94.83935547 84.56469727 C-93.94903625 83.66926712 -93.05871704 82.77383698 -92.14141846 81.85127258 C-89.72479925 79.42139509 -87.30195324 76.99782298 -84.87742376 74.57584119 C-82.84754006 72.54703454 -80.82065683 70.51524286 -78.79370034 68.48351234 C-74.01371665 63.69248279 -69.22848578 58.90673971 -64.43994141 54.12426758 C-59.50679163 49.19717711 -54.58293814 44.26093234 -49.66344917 39.32020527 C-45.42663543 35.06577759 -41.18403956 30.8171773 -36.936782 26.57317585 C-34.40538332 24.0435878 -31.87624763 21.51183847 -29.35271835 18.97439766 C-26.54419021 16.15096226 -23.72365075 13.33972008 -20.90185547 10.52954102 C-19.65491409 9.27113403 -19.65491409 9.27113403 -18.38278198 7.98730469 C-17.22649292 6.84153709 -17.22649292 6.84153709 -16.04684448 5.67262268 C-15.38210554 5.007716 -14.7173666 4.34280931 -14.03248405 3.65775394 C-9.69783847 0.12228916 -5.50095371 -0.57904776 0 0 Z " fill="#000000" transform="translate(123,352)"/>
<path d="M0 0 C0.29132813 1.19753906 0.58265625 2.39507812 0.8828125 3.62890625 C5.78606985 23.30899221 12.73722982 41.33335272 26 57 C21.72973523 62.09162562 17.2719802 66.89085358 12.58935547 71.60351562 C11.51503265 72.69010468 11.51503265 72.69010468 10.41900635 73.79864502 C8.0714135 76.17085604 5.71986521 78.53908235 3.3671875 80.90625 C2.56127293 81.71748825 1.75535835 82.5287265 0.92502213 83.36454773 C-3.32980601 87.64598617 -7.58821941 91.92382523 -11.84912109 96.19921875 C-15.37698597 99.74049383 -18.89741404 103.28892191 -22.41162109 106.84375 C-26.66096626 111.14220008 -30.92225652 115.42844524 -35.19265366 119.70597839 C-36.81805499 121.33811588 -38.4391799 122.97452344 -40.05597305 124.6151886 C-42.30854008 126.89914399 -44.57611988 129.16706418 -46.84814453 131.43164062 C-47.85036545 132.45846954 -47.85036545 132.45846954 -48.87283325 133.50604248 C-49.8020459 134.4227774 -49.8020459 134.4227774 -50.75003052 135.35803223 C-51.28425188 135.89556374 -51.81847324 136.43309525 -52.36888313 136.98691559 C-54 138 -54 138 -56.07446098 137.75862885 C-58.60330157 136.76230969 -60.33040937 135.28207971 -62.4375 133.5625 C-77.26212694 122.5725099 -95.00968147 116.40832206 -113 113 C-109.23347081 78.0604858 -93.33132713 48.25444309 -66.27978516 25.55664062 C-48.34945422 11.47437158 -23.15112563 0 0 0 Z " fill="#000000" transform="translate(292,58)"/>
<path d="M0 0 C3.23794589 1.31248149 5.95689207 3.42344803 8.79431629 5.42831707 C23.74378816 15.60776304 39.54995778 20.47687367 56.98181629 24.80331707 C54.38005117 53.65572725 43.10003741 78.82972941 22.98181629 99.80331707 C21.84486317 101.03501629 21.84486317 101.03501629 20.68494129 102.29159832 C0.56914182 123.42633535 -27.19943483 135.24609508 -56.01818371 137.80331707 C-56.29791027 136.54519207 -56.57763683 135.28706707 -56.86583996 133.99081707 C-59.49158449 122.61556906 -62.85336434 112.27099107 -68.01818371 101.80331707 C-68.77808605 100.26030926 -68.77808605 100.26030926 -69.55333996 98.68612957 C-72.42127534 93.16439799 -75.68176006 88.44872397 -79.79552746 83.77597332 C-81.01818371 81.80331707 -81.01818371 81.80331707 -80.7855072 79.89558411 C-79.88473716 77.4394473 -78.80423441 76.20701831 -76.96366405 74.35438824 C-76.31176601 73.6911404 -75.65986797 73.02789257 -74.98821545 72.34454632 C-74.2687373 71.62799877 -73.54925915 70.91145123 -72.80797863 70.17319012 C-72.05347927 69.41022121 -71.29897991 68.64725231 -70.52161694 67.86116314 C-68.02177301 65.33789159 -65.51084949 62.82600479 -62.99865246 60.31503582 C-61.26058741 58.5698741 -59.52282375 56.82441217 -57.78534985 55.07866192 C-54.14117789 51.42103282 -50.49110652 47.76941129 -46.83727551 44.1214323 C-42.1458451 39.43590704 -37.47294061 34.73237199 -32.80470848 30.0237484 C-29.22148458 26.41473566 -25.62691604 22.81719343 -22.02895069 19.22288227 C-20.30055935 17.49279226 -18.57617278 15.75869213 -16.85582066 14.02060795 C-14.45442115 11.59718892 -12.03782111 9.19003609 -9.61657238 6.78647137 C-8.5464642 5.69646832 -8.5464642 5.69646832 -7.45473766 4.584445 C-6.79438015 3.93529629 -6.13402264 3.28614758 -5.45365429 2.61732769 C-4.88344146 2.04640235 -4.31322863 1.47547701 -3.72573662 0.8872509 C-2.01818371 -0.19668293 -2.01818371 -0.19668293 0 0 Z " fill="#000000" transform="translate(397.0181837081909,195.19668292999268)"/>
<path d="M0 0 C0.93650391 -0.020625 1.87300781 -0.04125 2.83789062 -0.0625 C3.74087891 -0.06765625 4.64386719 -0.0728125 5.57421875 -0.078125 C6.79564575 -0.09214355 6.79564575 -0.09214355 8.04174805 -0.10644531 C10.90932514 0.34368506 12.24706543 1.22796054 14.3125 3.25 C15.15546331 7.2054432 15.51963885 10.0245735 14.84765625 14 C14.10552355 18.50696645 13.9985537 23.03242045 13.8828125 27.59179688 C13.75706817 30.37650975 13.62520346 32.69012285 12.25 35.15234375 C9.24641336 36.85397247 6.05525377 37.16127462 2.6875 37.625 C-18.75968163 41.07692708 -39.26609555 49.07327257 -56.6875 62.25 C-57.58082031 62.92289063 -58.47414063 63.59578125 -59.39453125 64.2890625 C-90.34991958 88.64594888 -107.51092081 122.53087112 -112.6875 161.25 C-116.70513851 161.75554839 -120.72489364 162.23686777 -124.74804688 162.6965332 C-126.11438529 162.85601476 -127.47998854 163.02193842 -128.84472656 163.19458008 C-130.81366564 163.44249394 -132.7857672 163.66486365 -134.7578125 163.88671875 C-135.94133301 164.02811279 -137.12485352 164.16950684 -138.34423828 164.31518555 C-142.23938443 164.23923958 -144.4083055 163.30490099 -147.6875 161.25 C-155.03385143 146.55729714 -145.31790133 118.35761025 -140.61035156 103.89794922 C-134.20961928 85.53225018 -124.55596317 68.82132513 -111.6875 54.25 C-110.42486328 52.78820313 -110.42486328 52.78820313 -109.13671875 51.296875 C-82.18380602 20.58802626 -41.09793927 0.22911743 0 0 Z " fill="#000000" transform="translate(277.6875,7.75)"/>
<path d="M0 0 C1.68488467 3.8692173 1.62391345 7.51810075 1.59375 11.69921875 C1.58875488 12.61541992 1.58375977 13.53162109 1.57861328 14.47558594 C0.9979402 38.31922392 -6.68620664 60.73302914 -17.90625 81.51171875 C-18.47214844 82.57132812 -19.03804687 83.6309375 -19.62109375 84.72265625 C-38.88835312 119.26771894 -72.17966311 143.83645788 -109.546875 155.6640625 C-122.57857679 159.33789332 -135.72436728 161.73568352 -149.28125 161.94921875 C-150.08401367 161.97145508 -150.88677734 161.99369141 -151.71386719 162.01660156 C-155.22818338 162.00304441 -157.45928194 161.82121241 -160.3828125 159.796875 C-163.3292803 155.3771733 -162.95511552 151.24414373 -162.34765625 146.1171875 C-162.20908203 144.91513672 -162.07050781 143.71308594 -161.92773438 142.47460938 C-161.77626953 141.22873047 -161.62480469 139.98285156 -161.46875 138.69921875 C-161.32115234 137.43400391 -161.17355469 136.16878906 -161.02148438 134.86523438 C-160.65665279 131.7465128 -160.28466633 128.62881625 -159.90625 125.51171875 C-158.813125 125.38796875 -157.72 125.26421875 -156.59375 125.13671875 C-124.28999452 121.01449561 -97.14135165 106.8746319 -73.90625 84.51171875 C-73.27460938 83.94324219 -72.64296875 83.37476563 -71.9921875 82.7890625 C-51.6595126 63.95002012 -41.05261771 36.09082517 -35.90625 9.51171875 C-35.25417915 6.50840742 -34.58334002 3.50948019 -33.90625 0.51171875 C-29.88728945 -0.02429242 -25.8659073 -0.53935758 -21.84375 -1.05078125 C-20.1431543 -1.27797852 -20.1431543 -1.27797852 -18.40820312 -1.50976562 C-4.2131007 -3.28932657 -4.2131007 -3.28932657 0 0 Z " fill="#000000" transform="translate(502.90625,221.48828125)"/>
<path d="M0 0 C4.12390399 1.8931784 6.93280604 4.67825368 10.078125 7.8828125 C10.64956238 8.45707977 11.22099976 9.03134705 11.80975342 9.62301636 C13.62792945 11.4523581 15.43901492 13.28854193 17.25 15.125 C18.48391329 16.36894774 19.71828322 17.6124427 20.953125 18.85546875 C23.97406743 21.89842367 26.98867092 24.94753254 30 28 C28.53284488 31.37933422 26.65463694 33.60269558 24.06594849 36.20820618 C23.2443927 37.03973709 22.42283691 37.87126801 21.5763855 38.72799683 C20.22203903 40.0833403 20.22203903 40.0833403 18.84033203 41.46606445 C17.88062852 42.43339159 16.92132864 43.40111932 15.96240234 44.36921692 C13.35988447 46.9936571 10.75084353 49.61151574 8.13988733 52.22755837 C6.50963076 53.86145892 4.88067989 55.49664985 3.25216293 57.13228416 C-2.42692663 62.8358531 -8.11170045 68.53369224 -13.80126953 74.22680664 C-19.10955608 79.53873499 -24.40454697 84.86367117 -29.69370162 90.19464332 C-34.23354839 94.76912415 -38.78291001 99.33399431 -43.33975708 103.89154023 C-46.06217055 106.61474837 -48.78042073 109.34182604 -51.48900986 112.07879066 C-54.03405357 114.6498996 -56.59066714 117.20889877 -59.15681458 119.75893974 C-60.54804924 121.14747936 -61.92686198 122.54842988 -63.30532837 123.949646 C-64.54612152 125.17579369 -64.54612152 125.17579369 -65.8119812 126.42671204 C-66.52838209 127.14512425 -67.24478298 127.86353647 -67.98289299 128.60371876 C-70 130 -70 130 -72.0784626 129.88533306 C-75.41751627 128.34689066 -77.76606558 125.59565816 -80.296875 122.99609375 C-80.89050842 122.39821548 -81.48414185 121.80033722 -82.09576416 121.18434143 C-83.98767195 119.27565898 -85.86887499 117.3568046 -87.75 115.4375 C-89.03186002 114.14059164 -90.3144043 112.84435922 -91.59765625 111.54882812 C-94.73976072 108.37367043 -97.87230539 105.18935054 -101 102 C-96.16360691 96.17542233 -90.96060848 90.82483957 -85.59814453 85.48461914 C-84.67067917 84.55700775 -83.74321381 83.62939636 -82.78764343 82.67367554 C-80.26345305 80.14920012 -77.73620768 77.6278038 -75.20837259 75.10697865 C-72.56003472 72.46492341 -69.91455855 69.82000581 -67.26876831 67.17539978 C-62.2666981 62.17642847 -57.26208593 57.18001016 -52.25653923 52.18452018 C-46.55440126 46.49358824 -40.85512761 40.79979144 -35.1560843 35.10576069 C-23.44055771 23.40066585 -11.72146684 11.69914635 0 0 Z " fill="#000000" transform="translate(239,243)"/>
<path d="M0 0 C4.07631809 4.09800063 6.0641027 8.69260227 6.49609375 14.44140625 C6.33743726 26.24998225 -2.48558345 33.73041911 -10.40625 41.4765625 C-11.19 42.25128906 -11.97375 43.02601563 -12.78125 43.82421875 C-14.69338338 45.71303343 -16.61005182 47.59697641 -18.53125 49.4765625 C-22.72750909 47.83878205 -25.51801785 44.74333068 -28.609375 41.59375 C-29.18081238 41.01948273 -29.75224976 40.44521545 -30.34100342 39.85354614 C-32.15917945 38.0242044 -33.97026492 36.18802057 -35.78125 34.3515625 C-37.01516329 33.10761476 -38.24953322 31.8641198 -39.484375 30.62109375 C-42.50531743 27.57813883 -45.51992092 24.52902996 -48.53125 21.4765625 C-46.20255855 16.12980882 -41.91741837 12.53402694 -37.84375 8.4765625 C-37.05291016 7.66960937 -36.26207031 6.86265625 -35.44726562 6.03125 C-25.32206767 -4.10230898 -12.7247453 -10.26382757 0 0 Z " fill="#000000" transform="translate(412.53125,98.5234375)"/>
</svg>
