<?xml version="1.0" encoding="UTF-8"?>
<svg version="1.1" xmlns="http://www.w3.org/2000/svg" width="512" height="512">
<path d="M0 0 C2.26821181 1.2252903 4.51174181 2.47247109 6.75 3.75 C7.45576172 4.14735352 8.16152344 4.54470703 8.88867188 4.95410156 C14.16691797 7.92729082 19.41873067 10.94524201 24.66601562 13.97265625 C30.27026335 17.20246336 35.88494431 20.41403538 41.5 23.625 C42.3879425 24.13311218 42.3879425 24.13311218 43.29382324 24.65148926 C51.66842576 29.44257794 60.07187354 34.17849644 68.5 38.875 C76.59724279 43.38770522 84.63272328 47.99150274 92.625 52.6875 C101.16451236 57.70369735 109.77083769 62.58186004 118.4375 67.375 C129.93353109 73.73333716 141.39981116 80.13404494 152.75 86.75 C153.37406738 87.11061523 153.99813477 87.47123047 154.64111328 87.84277344 C165.14974715 93.95852774 165.14974715 93.95852774 167.75 99.75 C168.98220288 104.84310523 169.19986937 108.84987556 167.0324707 113.6965332 C165.52375791 116.11225437 163.93051092 117.41680402 161.65625 119.125 C160.84945801 119.73158447 160.04266602 120.33816895 159.21142578 120.96313477 C155.56346686 123.61136045 151.86403236 126.16990654 148.125 128.6875 C146.45514715 129.82075745 144.78590377 130.95491334 143.1171875 132.08984375 C142.24545898 132.68265137 141.37373047 133.27545898 140.47558594 133.88623047 C135.7123261 137.14337178 130.98246265 140.44834624 126.25 143.75 C118.51101417 149.14525556 110.74717212 154.5010782 102.953125 159.81640625 C96.69323195 164.09119899 90.46847331 168.41522669 84.25 172.75 C74.84382544 179.30610289 65.39731671 185.8003332 55.92724609 192.26367188 C44.12556489 200.32025801 32.40607562 208.48399588 20.75 216.75 C24.02818728 220.37499803 27.7902549 222.80784779 31.9375 225.3125 C33.3809515 226.19931233 34.82363517 227.08737542 36.265625 227.9765625 C37.00748047 228.43321289 37.74933594 228.88986328 38.51367188 229.36035156 C42.1016137 231.58988921 45.64553112 233.88585661 49.1875 236.1875 C49.89737061 236.64817871 50.60724121 237.10885742 51.33862305 237.58349609 C52.77403529 238.51553134 54.20917649 239.44798415 55.64404297 240.38085938 C59.01064182 242.56957794 62.37967167 244.75452934 65.75 246.9375 C66.43271973 247.379729 67.11543945 247.82195801 67.81884766 248.27758789 C74.21834706 252.41695237 80.64038232 256.52084721 87.0625 260.625 C95.44760128 265.98389459 103.80905546 271.37657683 112.14501953 276.81152344 C118.8866135 281.20146141 125.65891594 285.54244361 132.4375 289.875 C135.57459858 291.88142552 138.71162325 293.88796656 141.84863281 295.89453125 C143.69403284 297.07469283 145.53970545 298.25442838 147.38574219 299.43359375 C149.69666642 300.91096421 152.00497946 302.39232085 154.3125 303.875 C154.95985107 304.28766113 155.60720215 304.70032227 156.27416992 305.12548828 C170.82707505 314.5004939 170.82707505 314.5004939 172.75 320.75 C173.37929231 325.62502395 173.31587892 329.47062158 171.3125 334 C164.93753505 340.8414258 155.85882328 345.09647729 147.8125 349.6875 C146.08476359 350.67887461 144.35702982 351.67025385 142.62945557 352.66191101 C140.84776381 353.684108 139.06531765 354.70497869 137.28271484 355.72558594 C131.72347707 358.90964647 126.17424296 362.11106198 120.625 365.3125 C119.54871338 365.93310303 118.47242676 366.55370605 117.36352539 367.19311523 C109.15627918 371.92908576 100.96957276 376.69958357 92.78857422 381.48071289 C84.36430661 386.40051282 75.91446104 391.27522138 67.4609375 396.14453125 C59.23025142 400.88847084 51.02125225 405.66858809 42.81982422 410.46289062 C37.49496534 413.57309429 32.16323205 416.6709229 26.8203125 419.75 C26.23916687 420.08491455 25.65802124 420.4198291 25.05926514 420.76489258 C22.25788817 422.37873886 19.45559212 423.99096889 16.65234375 425.6015625 C10.99089301 428.85922871 5.36821507 432.16403916 -0.19580078 435.5859375 C-4.7415457 438.16189564 -9.15491791 438.36784218 -14.25 437.75 C-18.54533705 436.1618773 -21.92630241 433.75192363 -24.25 429.75 C-25.41205192 426.26384425 -25.37780244 423.54983412 -25.38142776 419.86955547 C-25.38450672 418.80844924 -25.38450672 418.80844924 -25.38764787 417.72590652 C-25.39333644 415.33749202 -25.39185834 412.94913484 -25.39044189 410.56071472 C-25.39302446 408.83823448 -25.39603732 407.11575484 -25.3994453 405.39327604 C-25.40753121 400.64577692 -25.40930575 395.8982929 -25.41004276 391.15078771 C-25.41189054 386.03615434 -25.41943646 380.92152885 -25.42617798 375.80690002 C-25.43977285 364.6169501 -25.44578774 353.42700376 -25.45018864 342.23704696 C-25.45294896 335.25367071 -25.45718591 328.27029585 -25.46169281 321.28692055 C-25.4738867 301.96234187 -25.48418596 282.63776432 -25.4875679 263.31318188 C-25.48778747 262.07583511 -25.48800703 260.83848834 -25.48823325 259.56364622 C-25.48845153 258.32329501 -25.48866981 257.08294381 -25.4888947 255.80500621 C-25.48933817 253.29147224 -25.48978473 250.77793827 -25.49023438 248.2644043 C-25.4904558 247.01759769 -25.49067723 245.77079108 -25.49090537 244.48620246 C-25.49485476 224.27606822 -25.51231255 204.06597002 -25.5355939 183.85584971 C-25.55928862 163.11999677 -25.57176889 142.38416192 -25.57293582 121.64829522 C-25.57385361 110.0003703 -25.57963206 98.35249232 -25.59775543 86.70458031 C-25.61313103 76.78753492 -25.61829191 66.87055098 -25.61001733 56.95349594 C-25.60610188 51.89154441 -25.60708396 46.82971672 -25.62107468 41.7677803 C-25.63375995 37.13590482 -25.63266358 32.5042469 -25.62048396 27.87237195 C-25.61851762 26.19470577 -25.6216484 24.51702445 -25.63032833 22.83937957 C-25.64136743 20.56197667 -25.63397101 18.28534891 -25.6219368 16.00796795 C-25.62253389 14.7420877 -25.62313097 13.47620746 -25.62374616 12.17196721 C-25.07208306 7.12101754 -23.46811308 3.8767546 -19.75 0.4375 C-13.34971155 -3.8826947 -6.65245689 -3.24533305 0 0 Z M5.75 40.75 C5.75 89.26 5.75 137.77 5.75 187.75 C12.7092972 183.32135633 19.53384285 178.88608085 26.25 174.125 C32.82280352 169.49445591 39.41790522 164.90194721 46.0625 160.375 C53.15385295 155.54093229 60.20974219 150.65817211 67.25 145.75 C74.22880919 140.8850896 81.22189111 136.04342322 88.25 131.25 C95.62439677 126.21660568 102.97587537 121.15080418 110.3125 116.0625 C111.31925781 115.36640625 112.32601562 114.6703125 113.36328125 113.953125 C114.2965625 113.30472656 115.22984375 112.65632813 116.19140625 111.98828125 C117.02357666 111.41118408 117.85574707 110.83408691 118.71313477 110.23950195 C120.83313378 108.76912182 120.83313378 108.76912182 122.75 106.75 C112.01447443 100.3411718 101.168042 94.1530694 90.24951172 88.06152344 C83.62667093 84.36500782 77.01962346 80.64354807 70.4375 76.875 C69.18453125 76.15763672 69.18453125 76.15763672 67.90625 75.42578125 C65.18709655 73.86789032 62.46852631 72.30898502 59.75 70.75 C45.71355239 62.70370985 31.66882816 54.67331986 17.5625 46.75 C16.48709961 46.14430176 15.41169922 45.53860352 14.30371094 44.91455078 C13.32305664 44.36524902 12.34240234 43.81594727 11.33203125 43.25 C10.46811768 42.7653125 9.6042041 42.280625 8.71411133 41.78125 C6.97216652 40.67252229 6.97216652 40.67252229 5.75 40.75 Z M5.75 246.75 C5.75 295.59 5.75 344.43 5.75 394.75 C13.00606381 390.79214701 20.24352834 386.8174562 27.4375 382.75 C28.42516357 382.1916748 29.41282715 381.63334961 30.43041992 381.05810547 C38.51019995 376.47771395 46.54002478 371.81498549 54.55541992 367.12304688 C61.93686496 362.80266572 69.33824763 358.51815847 76.75 354.25 C101.94108164 339.82063025 101.94108164 339.82063025 126.75 324.75 C122.0604922 320.74580649 116.89644912 317.58303617 111.6875 314.3125 C109.69219306 313.05159628 107.69741173 311.78986046 105.703125 310.52734375 C104.70087891 309.89296387 103.69863281 309.25858398 102.66601562 308.60498047 C98.40267352 305.89291807 94.16839866 303.13730442 89.9375 300.375 C82.33805192 295.41800736 74.70793891 290.51075084 67.0625 285.625 C57.94240667 279.79672161 48.83921862 273.94382612 39.75927734 268.05322266 C34.11077406 264.38958832 28.45750273 260.73332334 22.80322266 257.07861328 C20.73584691 255.74084172 18.67057816 254.39986049 16.60546875 253.05859375 C15.32037185 252.22647083 14.03521838 251.39443527 12.75 250.5625 C12.15614502 250.17562012 11.56229004 249.78874023 10.95043945 249.39013672 C8.536688 247.54117489 8.536688 247.54117489 5.75 246.75 Z " fill="#000000" transform="translate(182.25,38.25)"/>
</svg>
