<?xml version="1.0" encoding="UTF-8"?>
<svg version="1.1" xmlns="http://www.w3.org/2000/svg" width="512" height="512">
<path d="M0 0 C26.45389065 13.24358299 45.37271634 35.97360999 54.875 63.8125 C57.75235435 72.55523054 59.06762171 81.32705885 59.63183594 90.48608398 C60.61934113 106.27682584 63.90575507 118.55819944 75.75 129.6875 C78.7534361 132.19565407 81.74663217 134.00270056 85.265625 135.70703125 C86.15540039 136.14120361 87.04517578 136.57537598 87.96191406 137.02270508 C88.63448242 137.3452124 89.30705078 137.66771973 90 138 C89.98667633 137.41419662 89.97335266 136.82839325 89.95962524 136.22483826 C89.82653339 130.10901929 89.73624468 123.99361384 89.67041016 117.87670898 C89.64029995 115.59626547 89.599402 113.31593718 89.54736328 111.03588867 C89.47429729 107.75150079 89.44048498 104.46864813 89.4140625 101.18359375 C89.38309479 100.16978134 89.35212708 99.15596893 89.32022095 98.11143494 C89.31738424 92.09941686 90.10338052 88.71755735 94.31747437 84.33338928 C97.80263244 81.57142695 100.82698164 80.63337653 105.25 80.4375 C106.14203125 80.37433594 107.0340625 80.31117187 107.953125 80.24609375 C116.29115247 82.30922106 121.34777799 90.85462867 125.703125 97.67578125 C126.30703064 98.59981247 126.91093628 99.52384369 127.53314209 100.47587585 C129.45009735 103.41422536 131.35041912 106.36289588 133.25 109.3125 C134.50798917 111.24877851 135.76709573 113.18433154 137.02734375 115.11914062 C138.89179652 117.98246968 140.75484487 120.84663487 142.61213684 123.71461487 C147.04313548 130.55522539 151.53874458 137.34961256 156.10491943 144.1007843 C171.26713508 166.64193362 180.13435255 192.91283596 180.16796875 220.16796875 C180.17129715 221.12463943 180.17462555 222.08131012 180.17805481 223.06697083 C180.18309412 225.08313521 180.18546407 227.09930784 180.18530273 229.11547852 C180.18748113 232.16111398 180.2056469 235.20638195 180.22460938 238.25195312 C180.25284545 248.36077728 180.09601522 258.06856924 178 268 C178.78141357 267.72736328 178.78141357 267.72736328 179.57861328 267.44921875 C197.33794205 261.41468316 216.21857559 258.0998964 234 266 C234.92554688 266.40089844 235.85109375 266.80179687 236.8046875 267.21484375 C251.84913497 274.56659216 262.17739443 287.4941482 268 303 C269.91833392 309.30501359 270.38638225 315.11197407 270.375 321.6875 C270.37258301 323.1418042 270.37258301 323.1418042 270.37011719 324.62548828 C270.2377841 332.39811096 269.10057933 338.81180571 266 346 C265.54947266 347.10988281 265.54947266 347.10988281 265.08984375 348.2421875 C262.60254865 353.77668828 258.90390071 358.39539917 255 363 C254.49984375 363.6084375 253.9996875 364.216875 253.484375 364.84375 C246.56774493 372.52889453 235.81310477 378.03755328 226 381 C225.01 381 224.02 381 223 381 C223 381.66 223 382.32 223 383 C223.83015625 383.0928125 224.6603125 383.185625 225.515625 383.28125 C240.69227098 386.41185859 253.62978166 397.34834006 262 410 C263.93527513 413.24303598 265.54555206 416.51571811 267 420 C267.48146484 421.14082031 267.48146484 421.14082031 267.97265625 422.3046875 C273.0958698 437.22157904 271.00742874 454.79797095 264.71484375 468.875 C257.18622778 483.97417408 244.56932039 494.06270309 229 500 C216.08446418 503.85874838 202.50013578 503.12070673 189.60546875 499.53515625 C188.6265567 499.27102432 187.64764465 499.0068924 186.6390686 498.73475647 C174.28704182 495.34307722 162.08567932 491.44644593 149.87857819 487.57237244 C143.5634959 485.57131667 137.24223632 483.58977144 130.921875 481.60546875 C130.19759937 481.37790516 129.47332375 481.15034157 128.72710037 480.91588211 C111.22605131 475.41905726 93.67885676 470.07533785 76.125 464.75 C75.40605309 464.5318803 74.68710617 464.3137606 73.94637299 464.08903122 C72.52228979 463.65701345 71.0981954 463.22503256 69.67408943 462.79308987 C68.2802478 462.37030775 66.88643219 461.94743982 65.49264336 461.52448368 C62.13823851 460.5067194 58.78335602 459.49059667 55.42733765 458.47816467 C49.10461614 456.56820201 42.79442646 454.62604893 36.50292969 452.61523438 C34.72618362 452.05222626 34.72618362 452.05222626 32.9135437 451.47784424 C30.7097006 450.77751943 28.50868429 450.0682036 26.31130981 449.34783936 C15.02968028 445.77724444 7.8356099 447.31080276 -3.27734375 450.84765625 C-4.58817573 451.2558299 -5.89933132 451.66296555 -7.21078491 452.06913757 C-10.00219248 452.9359527 -12.79130164 453.80967432 -15.57876587 454.68908691 C-19.98617072 456.07952757 -24.39827439 457.45460153 -28.8112793 458.82714844 C-34.02991504 460.45123018 -39.24750703 462.07857362 -44.46363163 463.7107029 C-55.42654961 467.14046971 -66.40723501 470.51068983 -77.39486694 473.8604126 C-82.25755838 475.34304902 -87.11913344 476.82933011 -91.98046875 478.31640625 C-92.94090591 478.61017151 -93.90134308 478.90393677 -94.8908844 479.206604 C-102.61490098 481.57127741 -110.33329214 483.95396517 -118.05078125 486.33984375 C-120.42340935 487.0726296 -122.79604924 487.80537726 -125.16870117 488.53808594 C-129.67634365 489.93016179 -134.18284393 491.32585396 -138.6887207 492.72363281 C-144.45166586 494.50756212 -150.22136107 496.26758326 -156 498 C-157.13855438 498.34288055 -157.13855438 498.34288055 -158.30010986 498.69268799 C-166.26921184 501.06374942 -173.76703932 502.67751694 -182.125 502.5 C-183.53519409 502.48187256 -183.53519409 502.48187256 -184.97387695 502.46337891 C-201.70596443 501.98783082 -215.41630247 494.881224 -227 483 C-237.58437177 471.59659946 -242.40157234 457.66334263 -242.375 442.3125 C-242.37338867 441.34296387 -242.37177734 440.37342773 -242.37011719 439.37451172 C-242.2377841 431.60188904 -241.10057933 425.18819429 -238 418 C-237.69964844 417.26007813 -237.39929688 416.52015625 -237.08984375 415.7578125 C-234.60254865 410.22331172 -230.90390071 405.60460083 -227 401 C-226.49984375 400.3915625 -225.9996875 399.783125 -225.484375 399.15625 C-218.56774493 391.47110547 -207.81310477 385.96244672 -198 383 C-197.01 383 -196.02 383 -195 383 C-195 382.34 -195 381.68 -195 381 C-195.83015625 380.9071875 -196.6603125 380.814375 -197.515625 380.71875 C-212.69227098 377.58814141 -225.62978166 366.65165994 -234 354 C-235.93527513 350.75696402 -237.54555206 347.48428189 -239 344 C-239.48146484 342.85917969 -239.48146484 342.85917969 -239.97265625 341.6953125 C-245.0958698 326.77842096 -243.00742874 309.20202905 -236.71484375 295.125 C-229.36598533 280.38634245 -216.43573084 269.55427972 -201 264 C-183.69629799 258.84181399 -166.66234191 262.18647644 -150 268 C-150.14074951 267.31897217 -150.28149902 266.63794434 -150.42651367 265.9362793 C-152.25233727 255.88499565 -152.33837925 245.97166987 -152.31567383 235.78198242 C-152.31252447 232.83539416 -152.33601021 229.88982354 -152.36132812 226.94335938 C-152.41358383 211.56058738 -150.91321342 196.83159806 -146.375 182.0625 C-146.17777344 181.34900391 -145.98054688 180.63550781 -145.77734375 179.90039062 C-140.52720811 162.41476939 -130.65298622 147.23132692 -120.4375 132.3125 C-119.18543424 130.46531113 -117.93454896 128.61732159 -116.68481445 126.76855469 C-114.83150194 124.02822182 -112.9768891 121.28884925 -111.11650085 118.55331421 C-107.64711122 113.45136302 -104.22071249 108.32608373 -100.859375 103.15234375 C-100.12966409 102.03408172 -99.39992899 100.91583548 -98.67016602 99.79760742 C-97.40022067 97.84554145 -96.13703686 95.88904974 -94.88256836 93.92700195 C-87.08314818 82.03048244 -87.08314818 82.03048244 -80.12109375 80.2734375 C-72.89139123 80.5470507 -69.07640661 81.90805241 -63.87353516 87.13720703 C-61.47373147 90.8041471 -61.43201447 93.87693324 -61.4609375 98.1171875 C-61.44914459 98.89256866 -61.43735168 99.66794983 -61.42520142 100.46682739 C-61.39002835 102.93642333 -61.38078526 105.40517449 -61.375 107.875 C-61.35858703 110.33742885 -61.33637367 112.79948533 -61.30337524 115.26174927 C-61.28395274 116.78987077 -61.27438752 118.31816151 -61.27645874 119.84640503 C-61.22964006 124.58335753 -60.48716569 128.49713121 -59 133 C-56.90254304 129.85381455 -56.13594283 127.36324907 -55.0625 123.75 C-51.09548442 111.12796771 -44.72245417 99.36177698 -38.76953125 87.5859375 C-33.09311682 76.08274004 -31.77776556 62.98766129 -35.625 50.625 C-40.96986051 36.95556581 -49.47419293 25.48880634 -59.46875 14.83984375 C-62.62194928 11.05117829 -62.50711056 6.59724956 -62.48828125 1.87109375 C-61.66645943 -2.96121858 -58.74851601 -5.99797647 -55 -9 C-37.79158849 -14.73613717 -15.66136255 -7.3429265 0 0 Z M-9 32 C-8.81824219 32.58265625 -8.63648438 33.1653125 -8.44921875 33.765625 C-7.90832901 35.52975768 -7.38252128 37.29854589 -6.8671875 39.0703125 C-6.3286236 40.88978512 -5.75640048 42.7000743 -5.1328125 44.4921875 C2.5921005 69.28547971 -5.80713444 91.31685819 -16.67529297 113.30566406 C-24.24115929 128.69396128 -29.19890645 144.16885999 -32.12890625 161.08203125 C-33.34735485 165.16356088 -35.32879869 167.79424291 -38.78125 170.28515625 C-47.84382249 173.20496394 -58.16301764 171.3735302 -66.50390625 167.3671875 C-70.8708956 164.9752528 -74.46451617 162.53548383 -78 159 C-78.66 159 -79.32 159 -80 159 C-80.268125 158.44570312 -80.53625 157.89140625 -80.8125 157.3203125 C-82.11509443 154.77511154 -83.53439968 152.32988054 -85 149.875 C-85.515625 149.00617188 -86.03125 148.13734375 -86.5625 147.2421875 C-87.94053901 144.91703764 -87.94053901 144.91703764 -90 143 C-108.17030032 169.37198322 -120.83636835 193.16376949 -122 226 C-122.04125 226.94746094 -122.0825 227.89492187 -122.125 228.87109375 C-122.79358608 258.33066778 -115.36709555 288.82614597 -95 311 C-94.34 311.79921875 -93.68 312.5984375 -93 313.421875 C-83.90661068 324.18684324 -68.36752099 338.40683768 -54 341 C-54.33773437 340.16597656 -54.67546875 339.33195312 -55.0234375 338.47265625 C-55.46945313 337.34730469 -55.91546875 336.22195313 -56.375 335.0625 C-56.81585938 333.96035156 -57.25671875 332.85820312 -57.7109375 331.72265625 C-64.34687825 312.55886371 -62.60435702 290.99391155 -53.8125 272.875 C-48.19820665 261.91796149 -41.71459723 251.38882504 -35.43641663 240.80265808 C-31.70730295 234.51370095 -28.01322398 228.20448877 -24.32162476 221.89346313 C-22.21867699 218.30039587 -20.11073209 214.71025946 -18.00334167 211.11979675 C-15.7383548 207.26026566 -13.47807332 203.39800456 -11.21875 199.53515625 C-10.06271083 197.56498045 -8.90647286 195.59492127 -7.75 193.625 C-7.23727539 192.74593994 -6.72455078 191.86687988 -6.19628906 190.96118164 C-3.98039601 187.1951256 -1.72708514 183.54762548 0.859375 180.0234375 C3.19261393 177.34536998 3.19261393 177.34536998 3 175 C9.43663768 172.28983677 15.75219182 172.3040411 22.5 173.75 C25.50309582 175.25154791 25.63577667 176.02473346 27 179 C28.04545784 180.87310466 29.10286043 182.73956158 30.16796875 184.6015625 C30.80613525 185.71805176 31.44430176 186.83454102 32.10180664 187.98486328 C32.79697536 189.19827794 33.49220818 190.41165587 34.1875 191.625 C34.90945851 192.88653614 35.63138182 194.14809243 36.35327148 195.40966797 C44.18792059 209.09503347 52.0737934 222.7508544 59.96728516 236.40234375 C63.77329032 242.9850982 67.57406928 249.57079564 71.36523438 256.16210938 C72.8269554 258.69960119 74.2956494 261.23291149 75.765625 263.765625 C83.92531394 277.91353845 89.4012316 290.63498612 89.375 307.125 C89.37367065 308.63416992 89.37367065 308.63416992 89.37231445 310.17382812 C89.19578183 321.37872124 86.50431521 330.77817293 82 341 C92.71164205 337.73580139 101.59048086 331.22356131 110 324 C111.2684375 322.93265625 111.2684375 322.93265625 112.5625 321.84375 C134.91179413 302.49253191 147.29289779 274.10335776 149.625 245 C151.81358489 208.4307361 142.54034055 176.60222239 121 147 C120.67 147 120.34 147 120 147 C119.96261719 148.09699219 119.92523438 149.19398438 119.88671875 150.32421875 C119.82103347 151.77867857 119.75458701 153.23310416 119.6875 154.6875 C119.66494141 155.40873047 119.64238281 156.12996094 119.61914062 156.87304688 C119.39525728 161.33036071 118.91826357 164.42464398 116 168 C111.87612925 171.40182118 107.77370388 171.50697359 102.625 171.4375 C101.83061523 171.42920166 101.03623047 171.42090332 100.21777344 171.41235352 C83.50157238 170.94319126 67.42404224 164.15674467 55 153 C53.76830078 151.90751953 53.76830078 151.90751953 52.51171875 150.79296875 C37.01975505 136.24133669 30.49237732 117.58669366 29.125 96.875 C27.19489816 72.3808562 18.27145587 53.63422864 0 37 C-4.04170596 33.39861103 -4.04170596 33.39861103 -9 32 Z M13 219 C11.52755333 220.96783053 11.52755333 220.96783053 10.05078125 223.5546875 C9.45740967 224.54919922 8.86403809 225.54371094 8.25268555 226.56835938 C7.61242432 227.65955078 6.97216309 228.75074219 6.3125 229.875 C5.31633667 231.55432617 5.31633667 231.55432617 4.30004883 233.26757812 C-1.73713101 243.46003125 -7.64998724 253.72537561 -13.5390625 264.00390625 C-16.10308484 268.46942562 -18.72875714 272.89131666 -21.39770508 277.29467773 C-29.03033081 289.97526756 -32.99601913 301.00409035 -31 316 C-29.18509756 322.63551287 -26.13796155 328.52721215 -22 334 C-21.46375 334.804375 -20.9275 335.60875 -20.375 336.4375 C-12.01819151 345.45405653 -0.5961542 350.99717301 11.671875 351.59179688 C24.77303416 351.77864227 36.05971137 347.69556113 46 339 C54.78659331 329.92109341 59.34349959 318.81941941 59.3059082 306.30566406 C58.88032217 286.87128848 43.25608231 267.60842865 33.7265625 251.3671875 C29.6590529 244.43080639 25.63942994 237.46717855 21.625 230.5 C21.29004517 229.91885437 20.95509033 229.33770874 20.60998535 228.73895264 C18.73919279 225.49309403 16.86919114 222.24678105 15 219 C14.34 219 13.68 219 13 219 Z M-204.5 302.3125 C-205.84350434 304.09338765 -205.84350434 304.09338765 -207 306 C-207.40992188 306.64453125 -207.81984375 307.2890625 -208.2421875 307.953125 C-212.13501757 315.20184307 -212.33224806 323.71830652 -210.33984375 331.6171875 C-206.7167835 340.68268026 -200.70754274 346.09525982 -192 350 C-189.11760636 351.08550665 -186.19576518 352.0011244 -183.25 352.8984375 C-182.39458618 353.16502167 -181.53917236 353.43160583 -180.65783691 353.70626831 C-177.77398827 354.60277131 -174.88707474 355.48894575 -172 356.375 C-169.88202307 357.03047749 -167.76418928 357.68641764 -165.64648438 358.34277344 C-158.43474055 360.57409661 -151.21782882 362.7884546 -144 365 C-142.69807905 365.39904664 -141.39615849 365.7980945 -140.09423828 366.19714355 C-127.18532004 370.15313325 -114.27354473 374.09976267 -101.359375 378.03857422 C-77.83529211 385.21349947 -54.32060327 392.41864663 -30.80989838 399.63728333 C-0.48282353 408.94853579 29.85011722 418.24025574 60.19140244 427.50509453 C63.77605638 428.599694 67.36069271 429.69435116 70.9453125 430.7890625 C71.64497887 431.0027309 72.34464523 431.21639931 73.06551361 431.43654251 C89.88032236 436.57187829 106.69052307 441.72224267 123.5 446.875 C124.18562263 447.08516754 124.87124527 447.29533508 125.57764435 447.51187134 C133.71858838 450.00739633 141.8593842 452.5034045 150 455 C151.21570395 452.56859209 151.05738015 451.15758556 150.95703125 448.44921875 C150.45964555 429.64243956 153.44322408 414.65980776 166.6796875 400.36328125 C167.11539062 399.91339844 167.55109375 399.46351563 168 399 C164.76020464 396.84013642 161.62212509 395.80392748 157.94580078 394.67749023 C157.23162994 394.45447235 156.51745911 394.23145447 155.78164673 394.00167847 C153.42098899 393.2658802 151.05822414 392.53711842 148.6953125 391.80859375 C147.05237059 391.29853464 145.40953964 390.78811801 143.76681519 390.27735901 C140.32284817 389.20768034 136.87788614 388.14128998 133.43212891 387.07739258 C129.01997827 385.71499297 124.6098687 384.34612558 120.2004261 382.97498989 C116.80726095 381.92035063 113.41328755 380.86833353 110.01903915 379.81718636 C108.39298376 379.31344961 106.76711986 378.80909428 105.14145279 378.30410576 C102.86607283 377.5979063 100.58968942 376.89504191 98.31298828 376.19311523 C97.64372314 375.98478561 96.97445801 375.77645599 96.28491211 375.56181335 C88.4121778 373.14390146 84.09411517 373.27407894 76.38085938 375.91015625 C62.38833352 380.40353075 48.02103617 381.4649025 33.43359375 381.3984375 C31.8185259 381.40046878 30.20345895 381.40338885 28.58839417 381.40713501 C25.23632909 381.41150773 21.88450706 381.40529267 18.5324707 381.39111328 C14.28810776 381.37401041 10.04431387 381.38390204 5.79997158 381.40183067 C2.47516272 381.41279525 -0.84951648 381.4091652 -4.17432976 381.4014473 C-5.73724375 381.39948078 -7.30017048 381.40177569 -8.86306953 381.40888596 C-23.22778632 381.45994472 -37.09817961 379.60661321 -50.875 375.375 C-51.69959717 375.12266602 -52.52419434 374.87033203 -53.3737793 374.61035156 C-81.28173755 365.68362611 -112.88137484 345.61875487 -127.04039001 319.0475769 C-127.36076736 318.39250153 -127.68114471 317.73742615 -128.01123047 317.0625 C-132.17722655 308.79420271 -136.06576951 303.84335208 -145.015625 300.8125 C-147.54738525 300.03162033 -150.08108381 299.32237419 -152.64794922 298.66601562 C-155.25138609 297.99964522 -157.81916103 297.25144394 -160.39453125 296.484375 C-175.82194133 292.04651395 -192.26044525 289.21617641 -204.5 302.3125 Z M185.88549805 297.19311523 C183.31830514 297.93582054 180.73766147 298.58697788 178.14648438 299.24023438 C167.41070091 302.23084505 161.82447467 306.03220938 156.28987122 315.83482361 C155.53419661 317.24467052 154.78803556 318.65967117 154.05293274 320.08035278 C151.63939382 324.48057997 148.26539537 328.21763823 145 332 C144.30519531 332.82757813 143.61039062 333.65515625 142.89453125 334.5078125 C138.0814876 340.07901701 132.92806671 344.70271968 127.08984375 349.1875 C126.40019531 349.785625 125.71054687 350.38375 125 351 C125 351.66 125 352.32 125 353 C130.76806104 354.94462123 136.54734495 356.8491756 142.34008789 358.71899414 C144.30550312 359.35938857 146.26753436 360.01027328 148.22583008 360.67211914 C163.07860583 365.97504302 163.07860583 365.97504302 178 363 C180.3972463 362.23652788 182.80853423 361.53347607 185.22438049 360.8311615 C187.97603715 360.03011815 190.7170309 359.19936796 193.45703125 358.359375 C196.29657334 357.48899469 199.13670588 356.62148163 201.98095703 355.76660156 C204.76387358 354.92985758 207.54236704 354.07964568 210.3203125 353.2265625 C211.15805206 352.97742096 211.99579163 352.72827942 212.85891724 352.47158813 C223.22750332 349.24758502 231.34907466 344.63016578 237.09765625 335.19921875 C240.25964542 328.33108413 240.15105798 319.5973804 238.34375 312.37890625 C235.2820497 304.76424645 230.21645602 298.81074756 222.9375 295 C210.56932716 290.23515812 198.09177477 293.57795091 185.88549805 297.19311523 Z M-139 399 C-138.175 399.99 -137.35 400.98 -136.5 402 C-133.42147198 406.10470403 -131.05779864 410.43521664 -128.75 415 C-128.40904297 415.66386719 -128.06808594 416.32773437 -127.71679688 417.01171875 C-123.32216259 425.90582949 -122.72247425 433.6914207 -122.875 443.5 C-122.88402344 444.60859375 -122.89304687 445.7171875 -122.90234375 446.859375 C-122.92573833 449.57314592 -122.95851825 452.28645545 -123 455 C-95.6117042 446.84135819 -68.28529285 438.49666336 -41 430 C-41 429.34 -41 428.68 -41 428 C-50.43314208 425.10404979 -59.8664988 422.2087999 -69.30011368 419.31439018 C-73.68276173 417.96968886 -78.06534156 416.62476619 -82.44775391 415.27929688 C-92.24592583 412.27124407 -102.04525625 409.26703006 -111.84692383 406.27038574 C-114.42863189 405.48102705 -117.00979163 404.689963 -119.59057617 403.89758301 C-122.47064651 403.01367198 -125.35214427 402.1346474 -128.234375 401.2578125 C-129.01460022 401.01715057 -129.79482544 400.77648865 -130.59869385 400.52853394 C-133.51425632 399.64715689 -135.93436072 399 -139 399 Z M-206 424 C-211.04458791 431.9313752 -211.99861081 439.69563579 -211 449 C-208.56072705 456.53561109 -204.77906072 462.77009021 -198 467 C-197.35546875 467.40992188 -196.7109375 467.81984375 -196.046875 468.2421875 C-188.79815693 472.13501757 -180.28169348 472.33224806 -172.3828125 470.33984375 C-164.39579852 467.14780183 -158.19496277 461.6523829 -154.69140625 453.796875 C-151.95281178 446.67962385 -151.73889634 438.89590953 -154.09375 431.62109375 C-156.99329166 425.45956773 -160.18070003 420.63105081 -166 417 C-166.64453125 416.59007812 -167.2890625 416.18015625 -167.953125 415.7578125 C-181.34071532 408.56818066 -196.35432085 413.17588946 -206 424 Z M187.5 422.3125 C186.15649566 424.09338765 186.15649566 424.09338765 185 426 C184.59007812 426.64453125 184.18015625 427.2890625 183.7578125 427.953125 C179.86729788 435.19753153 179.62878117 443.7693394 181.6953125 451.65234375 C185.35128404 460.63866035 191.29531966 465.98755687 200 470 C207.77502402 472.59167467 216.14419484 471.89905537 223.5 468.4375 C228.40436413 465.64618638 232.00753462 462.79587166 235 458 C235.40992188 457.35546875 235.81984375 456.7109375 236.2421875 456.046875 C240.13501757 448.79815693 240.33224806 440.28169348 238.33984375 432.3828125 C235.14780183 424.39579852 229.6523829 418.19496277 221.796875 414.69140625 C209.74433791 410.05379959 196.3808397 412.81000152 187.5 422.3125 Z " fill="#000000" transform="translate(242,10)"/>
</svg>
