<?xml version="1.0" encoding="UTF-8"?>
<svg version="1.1" xmlns="http://www.w3.org/2000/svg" width="512" height="512">
<path d="M0 0 C3.99683469 0.3137702 5.84303374 2.02418206 8.5625 4.875 C39.35032285 42.60981878 55.21411003 91.84347583 67.53955078 138.26611328 C68.75317978 142.82952514 70.00420452 147.38278374 71.25 151.9375 C72.44625 152.329375 73.6425 152.72125 74.875 153.125 C75.54789062 153.34542969 76.22078125 153.56585938 76.9140625 153.79296875 C80.49820968 154.01473036 82.28957059 152.92665992 85.25 150.9375 C86.85194948 148.50218341 88.0565352 146.36812435 89.25 143.75 C89.75418457 142.70054199 89.75418457 142.70054199 90.26855469 141.62988281 C92.93772605 135.94933864 95.19151587 130.12198625 97.171875 124.16723633 C98.53997944 120.20288905 99.90652047 117.52661895 103.25 114.9375 C106.6875 114.375 106.6875 114.375 110.25 114.9375 C115.63787314 119.07399615 117.59150736 124.57029939 120.0625 130.75 C120.49264404 131.80735352 120.92278809 132.86470703 121.3659668 133.95410156 C128.39337521 151.50120153 134.31594429 169.43752679 138.25 187.9375 C138.41371094 188.67693848 138.57742188 189.41637695 138.74609375 190.17822266 C144.34829572 216.44722549 143.95790296 247.80536544 134.25 272.9375 C134.81847656 272.7209375 135.38695312 272.504375 135.97265625 272.28125 C143.95161783 269.40402846 149.78020225 269.13249734 157.640625 272.5625 C176.16175313 282.32213638 188.10783054 305.58412273 194.25 324.9375 C197.83141927 337.33752598 200.42564965 349.30374534 200.5 362.25 C200.5309375 363.5793457 200.5309375 363.5793457 200.5625 364.93554688 C200.61516994 373.9618585 198.72325507 381.69867878 193.25 388.9375 C192.59 389.9275 191.93 390.9175 191.25 391.9375 C191.64832031 392.47117187 192.04664063 393.00484375 192.45703125 393.5546875 C192.98683594 394.29976563 193.51664062 395.04484375 194.0625 395.8125 C194.58457031 396.53179687 195.10664063 397.25109375 195.64453125 397.9921875 C199.59748823 405.24408425 200.78703273 412.63827661 200.6875 420.8125 C200.67920166 421.71597168 200.67090332 422.61944336 200.66235352 423.55029297 C199.95111635 452.6730502 187.65038053 482.64008563 167.8125 503.875 C160.36064661 510.95361721 153.93627815 513.41409471 143.69787598 513.24081421 C138.20031557 512.75718655 133.42089416 511.05346511 128.296875 509.08203125 C127.18211792 508.67274384 126.06736084 508.26345642 124.91882324 507.84176636 C121.27161677 506.49742211 117.63614935 505.1239383 114 503.75 C111.44140088 502.79808998 108.88039628 501.85273564 106.31933594 500.9074707 C100.98703263 498.9362536 95.65986914 496.95171745 90.3359375 494.95800781 C82.41192833 491.99173407 74.47367752 489.06497848 66.53125 486.1484375 C63.98337792 485.21253957 61.43553537 484.27656128 58.88769531 483.34057617 C57.65523071 482.88782318 56.42276611 482.43507019 55.1529541 481.96859741 C50.47732718 480.24884949 45.8041235 478.52259897 41.13165283 476.79429626 C38.95704434 475.9911576 36.78156809 475.19036395 34.60516357 474.3921051 C29.38908532 472.47815187 24.18881287 470.53417824 19.00976562 468.52197266 C17.51688019 467.95226494 17.51688019 467.95226494 15.99383545 467.37104797 C14.1365021 466.66177018 12.28413236 465.9392824 10.43829346 465.2006073 C3.21541194 462.47103405 -2.19079371 462.59330336 -9.44140625 465.6015625 C-10.24126953 465.91867187 -11.04113281 466.23578125 -11.86523438 466.5625 C-13.50283638 467.23165581 -15.13825394 467.90618154 -16.77148438 468.5859375 C-21.85255637 470.58719911 -25.27711035 471.36398221 -30.75 469.9375 C-33.10352451 468.36848366 -33.62641182 467.2641259 -34.625 464.625 C-34.80020521 460.85808788 -33.80568879 459.09295566 -31.75 455.9375 C-29.16639565 454.54342896 -26.96798829 453.58972108 -24.22265625 452.6640625 C-23.43641373 452.37890778 -22.6501712 452.09375305 -21.84010315 451.79995728 C-20.09276813 451.16866488 -18.34190553 450.54707702 -16.5881958 449.93371582 C-13.63544356 448.89729032 -10.69582351 447.82906935 -7.75732422 446.75292969 C-2.13313949 444.69640322 3.4991904 442.66325756 9.1340332 440.63613892 C15.55109714 438.32705852 21.96533769 436.0101752 28.37890625 433.69140625 C29.0375127 433.45333693 29.69611916 433.2152676 30.37468338 432.96998405 C44.68996838 427.79357169 58.97204411 422.52848056 73.25 417.25 C90.40595424 410.90787532 107.58325172 404.63254462 124.80123901 398.46072388 C127.94565457 397.33200778 131.08849167 396.19901823 134.23071289 395.06420898 C135.22787827 394.70415268 136.22504364 394.34409637 137.25242615 393.97312927 C139.19938216 393.27010232 141.14629286 392.56694984 143.09315491 391.86366272 C148.21093011 390.01885838 153.33736185 388.20382829 158.47915649 386.42709351 C161.26441039 385.46000582 164.04124587 384.47040011 166.81628418 383.47442627 C168.61124871 382.83947323 170.41730311 382.23613782 172.22363281 381.63427734 C177.57248471 379.8194068 177.57248471 379.8194068 181.60229492 376.09375 C188.11023164 360.35257204 181.12785951 337.73308457 174.9453125 322.75390625 C169.37246599 309.94030699 162.3552791 295.74828723 150.25 287.9375 C146.67855468 286.5956388 144.62328209 287.24587263 141.1171875 288.58984375 C140.14652344 288.95400391 139.17585938 289.31816406 138.17578125 289.69335938 C136.66564453 290.27827148 136.66564453 290.27827148 135.125 290.875 C133.12338959 291.63673103 131.12083044 292.39597521 129.1171875 293.15234375 C128.23144043 293.49386475 127.34569336 293.83538574 126.43310547 294.18725586 C124.25 294.9375 124.25 294.9375 122.25 294.9375 C121.99992187 295.50082031 121.74984375 296.06414062 121.4921875 296.64453125 C112.18012833 313.83377255 91.36067416 323.75660508 73.4375 329.25 C61.61333846 332.64284552 49.8788035 335.20366017 37.5234375 334.75 C7.65163145 334.18803439 -19.11877047 346.2358364 -46.52636719 356.78808594 C-54.32641547 359.79065231 -62.15926378 362.69721611 -70.0078125 365.5703125 C-71.22446091 366.01574402 -72.44110931 366.46117554 -73.69462585 366.92010498 C-76.10953598 367.80379041 -78.52454834 368.68719648 -80.93966675 369.5703125 C-86.7601279 371.70322601 -92.57302558 373.85653657 -98.38671875 376.0078125 C-111.34623127 380.79861892 -124.3254153 385.53451231 -137.3125 390.25 C-138.26966919 390.59755341 -139.22683838 390.94510681 -140.2130127 391.30319214 C-145.39137593 393.18304223 -150.57036787 395.06114911 -155.75 396.9375 C-155.75 399.836017 -154.32094632 400.56957247 -152.3125 402.625 C-137.2725236 419.25932018 -128.5965206 442.64111728 -124.9375 464.5 C-124.81342773 465.21841064 -124.68935547 465.93682129 -124.56152344 466.67700195 C-123.80501489 471.7086764 -123.6895781 476.67254747 -123.7199707 481.75366211 C-123.72213844 482.44626884 -123.72430618 483.13887558 -123.72653961 483.8524704 C-123.73215846 485.54748899 -123.7407743 487.2424972 -123.75 488.9375 C-116.22176173 486.21814425 -108.69399842 483.4974795 -101.16684151 480.77513218 C-97.67184524 479.51114343 -94.17668578 478.24760993 -90.68115234 476.98510742 C-87.30915259 475.76720354 -83.93758292 474.54811615 -80.56631088 473.32819939 C-79.2786376 472.86248341 -77.99080869 472.39719749 -76.70282364 471.93234444 C-74.90189685 471.28228083 -73.10156857 470.63055987 -71.30126953 469.97875977 C-70.27534698 469.60791763 -69.24942444 469.2370755 -68.19241333 468.85499573 C-65.79006081 468.0009125 -65.79006081 468.0009125 -63.75 466.9375 C-59.37637986 466.44237319 -57.43044756 466.44526134 -53.8125 469.0625 C-51.75 471.9375 -51.75 471.9375 -51.125 474.9375 C-51.94057298 478.85225029 -53.56320381 480.69292041 -56.75 482.9375 C-60.75781415 484.81951668 -64.90202127 486.25209594 -69.08203125 487.703125 C-70.95354298 488.37271108 -72.82505443 489.04229795 -74.69655132 489.71192551 C-77.32165001 490.64702129 -79.95134603 491.56881803 -82.58099365 492.49102783 C-86.45181647 493.8515687 -90.31604721 495.23066969 -94.18114471 496.60737038 C-97.34878893 497.73546265 -100.51719076 498.86125669 -103.68786621 499.98080444 C-109.72726338 502.11955711 -115.74580758 504.29658878 -121.73046875 506.58447266 C-123.36637215 507.20947662 -123.36637215 507.20947662 -125.0353241 507.84710693 C-127.06136695 508.62616866 -129.0846478 509.41247027 -131.10444641 510.20758057 C-139.19952016 513.32433765 -145.98013614 514.85525331 -154.46484375 512.03515625 C-171.87724293 504.25849075 -183.00722017 484.44412988 -189.77099609 467.35839844 C-192.01504815 461.29094178 -193.9324075 455.14403997 -195.75 448.9375 C-196.11222656 447.7721875 -196.47445312 446.606875 -196.84765625 445.40625 C-198.92802448 437.58793593 -199.07976088 429.80674265 -199.1875 421.75 C-199.20997803 420.6566333 -199.23245605 419.5632666 -199.25561523 418.43676758 C-199.22538215 408.18155187 -197.01354355 399.40280865 -189.75 391.9375 C-190.34748047 391.24527344 -190.34748047 391.24527344 -190.95703125 390.5390625 C-191.48683594 389.88679688 -192.01664063 389.23453125 -192.5625 388.5625 C-193.08457031 387.93601562 -193.60664063 387.30953125 -194.14453125 386.6640625 C-198.70239976 378.92344882 -199.27360169 370.74447274 -199.1875 361.9375 C-199.17992676 360.84244141 -199.17235352 359.74738281 -199.16455078 358.61914062 C-198.97114544 348.96863776 -197.54650808 340.15346144 -194.75 330.9375 C-194.44449219 329.89553467 -194.44449219 329.89553467 -194.1328125 328.83251953 C-187.91910315 308.11536049 -176.43368851 283.6327177 -156.875 272.5625 C-149.25194462 269.09475716 -142.58540076 269.79604513 -134.75 271.9375 C-135.08773437 270.79796875 -135.42546875 269.6584375 -135.7734375 268.484375 C-145.90835434 233.0102731 -145.90835434 233.0102731 -140.375 220.9375 C-138.75 218.9375 -138.75 218.9375 -136.75 217.9375 C-130.55703883 217.36407767 -130.55703883 217.36407767 -127.375 219.625 C-124.74959371 223.36115511 -124.63939128 227.42630589 -124.35546875 231.89453125 C-122.53556662 257.84037314 -116.9058736 280.66462246 -96.75 298.625 C-89.04618606 304.68111436 -78.59701073 310.54733378 -68.75 311.9375 C-69.14832031 311.22207031 -69.54664063 310.50664062 -69.95703125 309.76953125 C-70.48683594 308.77308594 -71.01664062 307.77664063 -71.5625 306.75 C-72.08457031 305.78707031 -72.60664063 304.82414062 -73.14453125 303.83203125 C-77.43657299 294.42528454 -78.30920493 284.14173134 -78.25 273.9375 C-78.24427979 272.76832031 -78.23855957 271.59914063 -78.23266602 270.39453125 C-77.8481266 251.39802504 -72.21577449 230.54016796 -62.75 213.9375 C-59.03986601 211.46407734 -57.13939738 211.55246514 -52.75 211.9375 C-48.34746604 214.21496468 -47.25209951 218.00938818 -45.6875 222.4375 C-43.73390677 228.32840064 -43.73390677 228.32840064 -39.75 232.9375 C-39.6571875 231.86886719 -39.564375 230.80023438 -39.46875 229.69921875 C-38.73122568 223.86432581 -36.98813741 218.35342394 -35.25 212.75 C-34.89615234 211.60885742 -34.54230469 210.46771484 -34.17773438 209.29199219 C-28.05588021 190.04192361 -20.17972498 170.3391846 -6.75 154.9375 C-6.02296875 154.10025391 -6.02296875 154.10025391 -5.28125 153.24609375 C-3.03043979 151.32256972 -0.80756424 151.14678611 2.08203125 151.3046875 C9.85710432 153.57416829 13.91039583 163.54481231 17.5625 170.125 C19.15512294 173.04735026 20.70905422 175.98766916 22.25 178.9375 C23.14332031 180.58105469 23.14332031 180.58105469 24.0546875 182.2578125 C25.66341323 185.8643022 25.17786459 188.15466744 24.25 191.9375 C22.25 194.9375 22.25 194.9375 18.4375 195.875 C15.44496947 196.37857864 14.41088017 196.03306988 11.7578125 194.45703125 C8.5301838 191.21432017 6.8528466 187.80167903 4.9375 183.6875 C4.39899414 182.56988281 4.39899414 182.56988281 3.84960938 181.4296875 C2.97199241 179.60424422 2.10945177 177.7715658 1.25 175.9375 C0.59 175.9375 -0.07 175.9375 -0.75 175.9375 C-13.57532901 198.14305634 -21.45638011 222.8013222 -25.92651367 247.98168945 C-27.68885859 257.33940462 -27.68885859 257.33940462 -31.75 260.9375 C-35.64677588 261.64019729 -38.0059816 261.86376755 -41.5078125 260.00390625 C-47.32987893 255.44103093 -51.49105287 248.90582047 -55.75 242.9375 C-56.40003625 245.14459983 -57.04484745 247.35323892 -57.6875 249.5625 C-58.04714844 250.79226562 -58.40679687 252.02203125 -58.77734375 253.2890625 C-62.87435644 268.65697355 -62.63010396 286.17729208 -55.46484375 300.5078125 C-49.9847116 309.7583977 -40.88769071 314.26156133 -30.75 316.9375 C-7.22754454 321.98622215 25.8248179 322.98555355 47.0625 310.25 C55.64362523 304.05933108 59.0420054 295.19871079 60.93652344 285.03808594 C62.89670912 271.90300993 62.05695305 254.65036517 55.25 242.9375 C54.81429687 243.57816406 54.37859375 244.21882812 53.9296875 244.87890625 C44.25 258.9375 44.25 258.9375 40.25 260.9375 C32.9793061 261.52384628 32.9793061 261.52384628 30.22485352 259.30932617 C27.80619969 256.40448974 27.31681422 254.25728787 26.58203125 250.5625 C26.20208008 248.71398437 26.20208008 248.71398437 25.81445312 246.828125 C25.56630859 245.54421875 25.31816406 244.2603125 25.0625 242.9375 C24.54829263 240.39580996 24.03397454 237.85414231 23.51953125 235.3125 C23.29885986 234.18585938 23.07818848 233.05921875 22.85083008 231.8984375 C22.50143046 230.17656891 22.12619828 228.45880716 21.6862793 226.7578125 C20.74995214 222.85112236 20.66477806 219.24564317 22.3125 215.5625 C25.1783235 213.15890609 27.56939225 213.06664413 31.25 212.9375 C33.33984375 213.60546875 33.33984375 213.60546875 35.25 214.9375 C36.4453125 217.29296875 36.4453125 217.29296875 37.375 220.125 C37.70242188 221.1046875 38.02984375 222.084375 38.3671875 223.09375 C39.38247545 226.36423509 40.36762274 229.62858528 41.25 232.9375 C41.84748047 231.63425781 41.84748047 231.63425781 42.45703125 230.3046875 C42.98683594 229.15226563 43.51664063 227.99984375 44.0625 226.8125 C44.58457031 225.67554688 45.10664063 224.53859375 45.64453125 223.3671875 C46.17433594 222.23539063 46.70414063 221.10359375 47.25 219.9375 C47.74886719 218.84695312 48.24773437 217.75640625 48.76171875 216.6328125 C50.25 213.9375 50.25 213.9375 53.25 211.9375 C56.74972058 211.48101471 58.62578012 211.57353793 61.6953125 213.36328125 C65.25882218 216.95403489 66.56408488 220.78971711 68.25 225.5 C68.5910376 226.42369385 68.9320752 227.3473877 69.28344727 228.29907227 C78.12869768 252.83204641 83.60196889 280.2663653 72.87109375 305.1328125 C71.73598245 307.45477807 70.55711522 309.7089757 69.25 311.9375 C85.92443272 307.98532069 100.29849936 298.25905278 110.18359375 284.2890625 C127.8145189 255.69296839 127.65955394 218.70892529 120.25 186.9375 C117.19839942 174.52516145 113.65631533 162.26273149 109.09765625 150.31640625 C108.25 147.9375 108.25 147.9375 108.25 145.9375 C107.59 145.9375 106.93 145.9375 106.25 145.9375 C106.13785156 146.66195312 106.02570313 147.38640625 105.91015625 148.1328125 C103.9920604 156.28188245 98.21506673 163.45552301 91.25 167.9375 C84.43978603 171.21229507 77.56496579 171.78450277 70.25 169.9375 C62.53120744 166.80765771 58.07896779 162.26300638 54.25 154.9375 C52.73635874 150.73735112 51.68238199 146.45948868 50.625 142.125 C49.95337452 139.54435938 49.27610829 136.9662689 48.5859375 134.390625 C48.31520416 133.37813942 48.31520416 133.37813942 48.03900146 132.34519958 C37.72186311 94.34910481 23.150387 56.7880805 1.25 23.9375 C-2.71122972 25.25790991 -3.69735724 27.62029676 -5.6875 31.0625 C-6.26685303 32.05189575 -6.26685303 32.05189575 -6.85791016 33.0612793 C-25.08044365 64.60083165 -38.91748302 98.32290536 -48.07421875 133.58984375 C-48.25238632 134.27537323 -48.43055389 134.96090271 -48.61412048 135.66720581 C-49.43978435 138.87476167 -50.23277826 142.08461837 -50.98901367 145.30957031 C-53.13487071 154.0563038 -55.98674203 161.59384906 -63.625 166.875 C-71.12173496 170.97056976 -78.37684029 171.89395456 -86.75 169.9375 C-97.62134522 165.55767746 -101.97353858 157.041553 -106.75 146.9375 C-112.93788425 159.7892596 -116.90808929 173.50145565 -120.01342773 187.38793945 C-121.81410917 195.14803764 -121.81410917 195.14803764 -124.75 197.9375 C-128.72344161 199.04123378 -130.83999772 199.35293583 -134.625 197.625 C-136.75 195.9375 -136.75 195.9375 -137.75 193.9375 C-138.19007047 187.83252242 -136.88949308 182.50123068 -135.3125 176.625 C-135.04735596 175.62879639 -134.78221191 174.63259277 -134.5090332 173.60620117 C-130.11040852 157.53031982 -124.66002701 141.75447922 -117.9375 126.5 C-117.5768042 125.67153564 -117.2161084 124.84307129 -116.84448242 123.98950195 C-113.62056119 116.94358354 -113.62056119 116.94358354 -109.75 114.9375 C-106.8125 114.4375 -106.8125 114.4375 -103.75 114.9375 C-98.19069656 119.14745795 -96.58826459 124.77953314 -94.3125 131.1875 C-90.02275358 144.25424451 -90.02275358 144.25424451 -80.6875 153.625 C-77.26986074 153.98857864 -75.696814 153.68965968 -72.75 151.9375 C-69.61788011 148.58176567 -68.69098967 144.81897097 -67.62109375 140.47265625 C-67.22764541 138.94953507 -66.83383098 137.42650842 -66.43969727 135.90356445 C-66.23611603 135.10423492 -66.03253479 134.3049054 -65.82278442 133.48135376 C-33.81265213 8.45316303 -33.81265213 8.45316303 0 0 Z M-155.25 292.25 C-156.075 293.136875 -156.9 294.02375 -157.75 294.9375 C-158.6575 295.865625 -159.565 296.79375 -160.5 297.75 C-174.96535369 314.97420981 -182.98341246 339.86426043 -183.1875 362.125 C-183.19765137 362.90270752 -183.20780273 363.68041504 -183.21826172 364.48168945 C-183.13849479 369.65586682 -182.15860503 373.34298335 -179.75 377.9375 C-175.84156176 381.27116791 -170.82716642 382.6603601 -165.75 382.9375 C-161.18509924 382.01387208 -156.93919374 380.3895047 -152.59375 378.734375 C-151.30558977 378.26276096 -150.01666838 377.7932215 -148.72705078 377.3256073 C-145.27341864 376.06691074 -141.83087917 374.78016671 -138.38973999 373.4877739 C-134.80310821 372.14635494 -131.20680461 370.83140073 -127.61132812 369.51391602 C-121.78130019 367.37410618 -115.95691476 365.21962593 -110.13671875 363.05322266 C-102.49687287 360.2099518 -94.84502264 357.40083926 -87.1875 354.60546875 C-70.34860445 348.45314648 -53.52735463 342.25587564 -36.75 335.9375 C-36.75 335.6075 -36.75 335.2775 -36.75 334.9375 C-37.45906494 334.83727539 -38.16812988 334.73705078 -38.89868164 334.63378906 C-67.8435515 330.49444975 -96.32065719 324.73422215 -116.75 301.9375 C-117.63783487 300.58446513 -118.52174758 299.22885091 -119.40234375 297.87109375 C-123.16249874 292.72289256 -128.10016698 291.31192612 -134 289.4375 C-135.00546875 289.09203125 -136.0109375 288.7465625 -137.046875 288.390625 C-145.56917347 285.50404003 -148.29606023 285.81760572 -155.25 292.25 Z M-179.75 404.9375 C-182.52218448 410.4671233 -183.29876447 414.90415652 -183.25 421.0625 C-183.24355469 421.9299585 -183.23710937 422.79741699 -183.23046875 423.69116211 C-182.58222432 447.43951135 -172.30095724 475.6488063 -155.75 492.9375 C-152.62254368 495.43817272 -149.87479793 496.84177252 -145.8125 497.1875 C-145.131875 497.105 -144.45125 497.0225 -143.75 496.9375 C-136.48730301 483.80575869 -140.16934658 467.20318738 -143.9375 453.390625 C-149.06870725 436.10964094 -158.28554278 414.11960114 -174.75 404.9375 C-177.54643244 404.51446494 -177.54643244 404.51446494 -179.75 404.9375 Z M178.25 403.9375 C161.93837038 412.25976001 153.25733171 430.34422113 147.25 446.9375 C142.22086814 462.64938885 137.69704163 480.10118393 144.25 495.9375 C146.34495303 496.99793651 146.34495303 496.99793651 149.25 496.9375 C165.58823589 488.43743698 173.63927133 468.42389322 179.03515625 451.89453125 C182.18598777 441.82013009 184.38273471 432.04006018 184.4375 421.4375 C184.45167969 420.1896875 184.46585937 418.941875 184.48046875 417.65625 C184.18033506 412.81341481 183.82380094 408.37243615 180.125 405 C179.196875 404.4740625 179.196875 404.4740625 178.25 403.9375 Z M141.69262695 409.50024414 C140.75595184 409.84726379 139.81927673 410.19428345 138.85421753 410.55181885 C137.82595856 410.93819519 136.79769958 411.32457153 135.73828125 411.72265625 C134.64975861 412.12683777 133.56123596 412.53101929 132.43972778 412.94744873 C129.43984141 414.06155465 126.44144596 415.17957871 123.44343185 416.29870987 C117.66151049 418.45445218 111.87349978 420.59383497 106.0859375 422.734375 C105.4151586 422.98260828 104.74437969 423.23084156 104.05327415 423.48659706 C87.30365818 429.68252653 70.4984017 435.72275698 53.6875 441.75 C52.24304814 442.26806535 50.79860028 442.78614188 49.35415649 443.30422974 C41.32063202 446.18532544 33.28596012 449.06320375 25.25 451.9375 C26.71217958 454.86185916 28.57652653 454.98366839 31.62304688 456.08544922 C32.77879211 456.50741074 33.93453735 456.92937225 35.12530518 457.36412048 C36.40640649 457.82360711 37.68755617 458.28295889 38.96875 458.7421875 C40.29163266 459.22227085 41.61428087 459.70300069 42.93670654 460.18434143 C46.47492559 461.47019801 50.01625412 462.74727309 53.55830383 464.02253342 C57.19129651 465.3319954 60.82162198 466.64880711 64.45214844 467.96508789 C68.75490445 469.52452351 73.05797451 471.08307014 77.36248779 472.63764954 C85.1402309 475.4466262 92.91202806 478.27078326 100.671875 481.12890625 C102.22589447 481.70007878 103.77992991 482.27120786 105.33398438 482.84228516 C107.39513068 483.59987172 109.45579831 484.35861785 111.51489258 485.12176514 C113.32604901 485.79251085 115.13950893 486.45702736 116.953125 487.12109375 C117.91895508 487.47743896 118.88478516 487.83378418 119.87988281 488.20092773 C122.31381835 489.08588678 122.31381835 489.08588678 125.25 488.9375 C125.27578125 487.79796875 125.3015625 486.6584375 125.328125 485.484375 C126.24218019 456.86435936 135.04057763 432.53073102 149.25 407.9375 C146.19112657 407.9375 144.52647115 408.44155266 141.69262695 409.50024414 Z " fill="#000000" transform="translate(255.75,-0.9375)"/>
<path d="M0 0 C2.81972931 2.36493426 2.97850831 3.8280665 3.4375 7.5 C2.91833667 11.65330668 2.12903453 12.37166455 -1 15 C-4.47288243 16.77035538 -8.14529776 17.99883947 -11.8125 19.3125 C-13.27139648 19.8703418 -13.27139648 19.8703418 -14.75976562 20.43945312 C-20.29730608 22.45276337 -24.26313019 23.67071075 -30 22 C-32.1875 20 -32.1875 20 -34 18 C-36.49303853 16.90929564 -37.4880922 16.82160789 -40.0625 17.71875 C-42.17254536 18.82990576 -42.17254536 18.82990576 -42.6875 21.0234375 C-42.790625 21.79945313 -42.89375 22.57546875 -43 23.375 C-43.56463371 27.59563698 -44.58300286 29.38821669 -48 32 C-51.38110906 33.63347672 -54.85507501 34.94810993 -58.375 36.25 C-59.30828125 36.61351562 -60.2415625 36.97703125 -61.203125 37.3515625 C-69.97280802 40.65572069 -69.97280802 40.65572069 -75 40 C-77.875 38.5 -77.875 38.5 -80 36 C-80.65741545 33.21027184 -80.78274563 30.7639018 -80 28 C-76.44469029 23.18400649 -71.25209994 22.15190911 -65.75585938 20.55273438 C-61.55704279 19.16092609 -60.33259013 18.63306318 -58.1796875 14.53515625 C-57.79039062 13.36855469 -57.40109375 12.20195312 -57 11 C-53.36449251 5.50091303 -49.29252292 2.5231533 -43.0625 0.3125 C-37.17938578 -0.57888094 -32.60808419 0.22580208 -27.11328125 2.24609375 C-26.41589844 2.49488281 -25.71851563 2.74367188 -25 3 C-24.3915625 3.24878906 -23.783125 3.49757813 -23.15625 3.75390625 C-18.77890793 4.2534942 -14.58645871 1.66358612 -10.60546875 0.03125 C-6.57685828 -1.12102862 -4.04856604 -0.96726824 0 0 Z " fill="#000000" transform="translate(321,338)"/>
<path d="M0 0 C2.65357835 2.04565114 3.00504864 3.01817511 3.9375 6.375 C4 10 4 10 2.5324707 12.50463867 C-0.79979008 15.78807042 -4.10102986 17.00178359 -8.45703125 18.55078125 C-9.68881355 19.00628609 -9.68881355 19.00628609 -10.94548035 19.47099304 C-12.67844637 20.10770757 -14.41423736 20.7367792 -16.15258789 21.35864258 C-18.8003302 22.30813585 -21.43635415 23.28578412 -24.07226562 24.26757812 C-25.76239796 24.88452155 -27.45313506 25.49981126 -29.14453125 26.11328125 C-29.92705765 26.40382889 -30.70958405 26.69437653 -31.51582336 26.99372864 C-36.1408307 28.62844697 -40.0240567 29.49794363 -45 29 C-48.38121991 26.55401113 -49.76936783 25.10703441 -50.625 21 C-49.77593558 16.92449077 -48.16015265 15.6876916 -45 13 C-42.40387847 11.62935002 -39.71878276 10.64295179 -36.953125 9.66796875 C-36.18248718 9.3864949 -35.41184937 9.10502106 -34.61785889 8.8150177 C-32.99318727 8.22592384 -31.36593595 7.64390153 -29.73632812 7.06860352 C-27.26394957 6.19244344 -24.80400856 5.28651072 -22.34375 4.37695312 C-20.75586546 3.80546254 -19.16734228 3.23574267 -17.578125 2.66796875 C-16.85280579 2.39929489 -16.12748657 2.13062103 -15.38018799 1.85380554 C-10.40089586 0.1269248 -5.26145189 -1.0381599 0 0 Z " fill="#000000" transform="translate(180,383)"/>
<path d="M0 0 C2.81972931 2.36493426 2.97850831 3.8280665 3.4375 7.5 C2.91357501 11.69139996 2.2033216 12.37791043 -1 15 C-4.08105469 16.46386719 -4.08105469 16.46386719 -7.671875 17.796875 C-8.31312317 18.0353717 -8.95437134 18.27386841 -9.61505127 18.51959229 C-10.96789441 19.01909791 -12.32283369 19.51295878 -13.6796875 20.00146484 C-15.7361804 20.74500343 -17.78197943 21.51366681 -19.828125 22.28515625 C-21.15047394 22.76978109 -22.47337481 23.25290309 -23.796875 23.734375 C-24.98635742 24.16975586 -26.17583984 24.60513672 -27.40136719 25.05371094 C-31.58620877 26.15414825 -34.69026569 26.3191134 -39 26 C-41.99097304 23.45767292 -42.84202557 21.8425303 -43.5625 18 C-42.79738466 13.91938485 -41.12727288 12.68765625 -38 10 C-34.69775391 8.40673828 -34.69775391 8.40673828 -30.9765625 7.0703125 C-29.97996109 6.71113235 -29.97996109 6.71113235 -28.96322632 6.34469604 C-27.56555698 5.84544202 -26.1653067 5.35336036 -24.76269531 4.86816406 C-22.63013254 4.12678431 -20.51074963 3.35425959 -18.390625 2.578125 C-17.02411416 2.0944382 -15.65694575 1.61260433 -14.2890625 1.1328125 C-12.44368896 0.48143311 -12.44368896 0.48143311 -10.56103516 -0.18310547 C-6.62417864 -1.08621269 -3.91620645 -0.90913014 0 0 Z " fill="#000000" transform="translate(388,312)"/>
<path d="M0 0 C3.56393935 1.26852508 7.10100533 2.59383934 10.63476562 3.9440918 C11.85292969 4.39977539 13.07109375 4.85545898 14.32617188 5.32495117 C27.25056589 10.19119214 27.25056589 10.19119214 29.19726562 12.6940918 C30.21399391 16.11399603 29.75757711 18.57768953 28.88476562 22.0065918 C27.25976562 23.9440918 27.25976562 23.9440918 24.88476562 25.0065918 C19.6327954 25.34751969 15.70342026 24.53542109 10.77929688 22.7409668 C9.80956184 22.3889621 9.80956184 22.3889621 8.82023621 22.02984619 C7.46446024 21.53431856 6.11073202 21.03315492 4.7590332 20.52661133 C2.69801924 19.75687325 0.62927024 19.01160515 -1.44140625 18.26831055 C-2.76420287 17.78146966 -4.08648769 17.29323538 -5.40820312 16.8034668 C-7.1952063 16.14362793 -7.1952063 16.14362793 -9.01831055 15.47045898 C-12.13198296 13.99867501 -13.93092261 12.642284 -16.11523438 10.0065918 C-16.8988763 7.23952515 -16.76098244 4.8010237 -16.11523438 2.0065918 C-11.63867964 -3.72899396 -6.14568213 -1.95977904 0 0 Z " fill="#000000" transform="translate(138.115234375,312.993408203125)"/>
<path d="M0 0 C1.9375 1.6875 1.9375 1.6875 3 4 C3 7.5 3 7.5 2 11 C-2.88100333 15.63516575 -8.6583395 17.37813802 -14.90063477 19.57421875 C-16.80277408 20.24656221 -18.69511511 20.94241972 -20.58789062 21.640625 C-26.90431766 23.89242286 -32.27381543 25.80360628 -39 25 C-41.5 23.5 -41.5 23.5 -43 21 C-43.58362269 17.66597151 -43.92315658 14.3164697 -41.89233398 11.42041016 C-39.21367123 9.40977154 -36.43303216 8.47208517 -33.28515625 7.3359375 C-32.63300644 7.09839752 -31.98085663 6.86085754 -31.3089447 6.61611938 C-29.22955203 5.8611946 -27.14609704 5.11823064 -25.0625 4.375 C-23.66445003 3.86791343 -22.26666039 3.3601085 -20.86914062 2.8515625 C-5.81267506 -2.59715269 -5.81267506 -2.59715269 0 0 Z " fill="#000000" transform="translate(371,370)"/>
<path d="M0 0 C2.5 1.5625 2.5 1.5625 4 4 C4.52807792 7.69654545 4.7958272 9.92626489 2.5234375 12.9921875 C-0.97452297 15.77539443 -4.70286789 17.10173367 -8.875 18.625 C-9.66519531 18.9240625 -10.45539063 19.223125 -11.26953125 19.53125 C-24.94295837 24.67300463 -24.94295837 24.67300463 -31 24 C-33.4375 22.5 -33.4375 22.5 -35 20 C-35.60921535 17.19531045 -35.86557371 14.75263191 -35 12 C-30.74427424 7.45817503 -24.90587582 5.79905305 -19.1875 3.75 C-18.22779297 3.38648438 -17.26808594 3.02296875 -16.27929688 2.6484375 C-10.61236885 0.59054964 -6.03218689 -0.57936258 0 0 Z " fill="#000000" transform="translate(253,391)"/>
<path d="M0 0 C3.32274404 2.45594125 4.77618008 3.9256644 5.625 8 C4.81659283 11.88035439 3.12676969 13.73709293 0 16 C-3.5501226 17.74368948 -7.20865984 19.06586085 -10.9375 20.375 C-11.91396484 20.74238281 -12.89042969 21.10976563 -13.89648438 21.48828125 C-22.81796579 24.6939661 -22.81796579 24.6939661 -28 23 C-29.875 21.9375 -29.875 21.9375 -31 20 C-31.65923438 13.078039 -31.65923438 13.078039 -29.78100586 10.0065918 C-27.67836095 7.63762147 -26.06971908 6.93268075 -23.10546875 5.859375 C-22.14962891 5.51132812 -21.19378906 5.16328125 -20.20898438 4.8046875 C-19.21189453 4.45664062 -18.21480469 4.10859375 -17.1875 3.75 C-16.20201172 3.38648438 -15.21652344 3.02296875 -14.20117188 2.6484375 C-4.79985286 -0.7105294 -4.79985286 -0.7105294 0 0 Z " fill="#000000" transform="translate(199,429)"/>
<path d="M0 0 C2.09679403 2.69587803 1.99510821 4.092944 1.8125 7.5625 C0.98493823 11.06372287 0.76021165 11.9283313 -2 14 C-6.87888732 15.19328823 -11.46108407 15.64634469 -16.125 13.6875 C-18.80585699 11.27472871 -18.9732753 10.28862673 -19.3125 6.625 C-19 3 -19 3 -17.25 0.625 C-12.42494494 -2.85976199 -4.98442896 -3.6921696 0 0 Z " fill="#000000" transform="translate(360,73)"/>
<path d="M0 0 C3.1875 2.125 3.1875 2.125 5 5 C5.70973162 8.78523532 5.38640991 10.37080976 3.37109375 13.65234375 C1 16 1 16 -2.09375 16.62890625 C-3.2178125 16.60699219 -4.341875 16.58507812 -5.5 16.5625 C-6.6240625 16.56378906 -7.748125 16.56507812 -8.90625 16.56640625 C-12.58247772 15.89335951 -13.78438896 14.96477448 -16 12 C-16.69758716 7.73696737 -16.46334187 5.75093338 -14.1875 2.0625 C-9.53838583 -0.94575034 -5.38794756 -1.00165742 0 0 Z " fill="#000000" transform="translate(168,57)"/>
<path d="M0 0 C2.6484375 1.62890625 2.6484375 1.62890625 5 4 C5.6640625 7.09375 5.6640625 7.09375 5.625 10.5 C5.63789063 11.6240625 5.65078125 12.748125 5.6640625 13.90625 C5 17 5 17 2.6484375 19.37109375 C-0.63073685 21.38793107 -2.21601575 21.70949705 -6 21 C-8.875 19.1875 -8.875 19.1875 -11 16 C-12.00709788 10.58278802 -11.96584744 6.44877116 -8.875 1.8125 C-5.46389624 -0.33797846 -3.95509517 -0.74158034 0 0 Z " fill="#000000" transform="translate(181,39)"/>
<path d="M0 0 C2.95691557 2.39749911 4.8222503 4.35362985 5.23828125 8.20703125 C5.35768908 12.39887447 5.33782083 15.29620661 3.5 19.125 C0.47461826 21.39403631 -1.31086045 21.5592009 -5 21.56640625 C-7.96545737 20.72657946 -9.15524842 19.45024992 -11 17 C-11.56640625 13.90625 -11.56640625 13.90625 -11.5625 10.5 C-11.58441406 9.3759375 -11.60632813 8.251875 -11.62890625 7.09375 C-11 4 -11 4 -8.65625 1.625 C-5.4104841 -0.36064502 -3.74137444 -0.63682969 0 0 Z " fill="#000000" transform="translate(338,54)"/>
</svg>
