<?xml version="1.0" encoding="UTF-8"?>
<svg version="1.1" xmlns="http://www.w3.org/2000/svg" width="512" height="512">
<path d="M0 0 C0.804375 -0.01933594 1.60875 -0.03867187 2.4375 -0.05859375 C13.12584048 2.0106429 21.10886547 15.48476219 27.53125 23.43359375 C32.02290331 28.89891242 36.70453233 34.20134704 41.34912109 39.53662109 C48.24881733 47.48116928 55.06531273 55.49755266 61.8515625 63.5390625 C65.25340609 67.5665325 68.68617995 71.56659219 72.125 75.5625 C75.61819482 79.6237481 79.06448551 83.71268779 82.4375 87.875 C85.98257891 92.23915851 89.62399313 96.50735125 93.3125 100.75 C93.86164063 101.38164062 94.41078125 102.01328125 94.9765625 102.6640625 C96.09325576 103.94773793 97.2101184 105.23126605 98.32714844 106.51464844 C120.55057593 132.05926533 120.55057593 132.05926533 120.31420898 140.30932617 C119.2988382 147.18655003 114.4227021 152.74966628 110.0625 157.875 C108.89497247 159.278151 107.72967485 160.68315991 106.56640625 162.08984375 C105.97359863 162.80640137 105.38079102 163.52295898 104.77001953 164.26123047 C101.92807328 167.75545238 99.2147456 171.34413847 96.5 174.9375 C92.20500673 180.60728039 87.81873943 186.1840704 83.3125 191.6875 C78.21466522 197.91408181 73.26906216 204.23067028 68.38671875 210.62841797 C60.12494938 221.40653611 51.72748645 232.08206334 43.32666016 242.75195312 C41.97081386 244.47458155 40.61606851 246.19806978 39.26171875 247.921875 C38.80571289 248.50227539 38.34970703 249.08267578 37.87988281 249.68066406 C36.96623991 250.84389377 36.05282521 252.00730276 35.13964844 253.17089844 C32.76780186 256.19223992 30.39031494 259.20889301 28.00390625 262.21875 C27.51148438 262.84136719 27.0190625 263.46398437 26.51171875 264.10546875 C25.57737254 265.28662339 24.64130255 266.46641749 23.703125 267.64453125 C20.94242144 271.1391983 18.4220509 274.70608052 16 278.4375 C17.03833984 279.71367188 17.03833984 279.71367188 18.09765625 281.015625 C24.75139699 289.24011517 31.17409593 297.6120352 37.49584961 306.09399414 C41.56837588 311.55062653 45.70768819 316.94249165 49.93554688 322.27929688 C55.20474482 328.93800184 60.33602861 335.70173613 65.48486328 342.45361328 C67.64907736 345.28738763 69.82408893 348.11269486 72 350.9375 C75.84384601 355.9295078 79.67443778 360.93146907 83.5 365.9375 C87.38895443 371.0261479 91.28174731 376.11173183 95.1875 381.1875 C95.98542969 382.22519531 96.78335938 383.26289063 97.60546875 384.33203125 C99.22869964 386.43720019 100.85555999 388.53896178 102.48828125 390.63671875 C104.57998962 393.32710248 106.65092387 396.03247284 108.71044922 398.74755859 C109.59879985 399.91173184 110.49408883 401.07063238 111.39501953 402.22509766 C121.32879159 414.98441533 121.32879159 414.98441533 121.3046875 421.48046875 C120.518127 426.53260733 118.7823594 430.01421375 114.9375 433.3125 C111.36440031 435.89729552 109.64526374 436.62393184 105.3125 436.75 C104.48363281 436.78738281 103.65476562 436.82476562 102.80078125 436.86328125 C97.35177371 436.03491051 93.53173914 433.41129613 90.18359375 429.1796875 C89.25569431 427.89961833 88.34093507 426.60995117 87.4375 425.3125 C86.3924145 423.86589301 85.34546696 422.42062981 84.296875 420.9765625 C83.75740234 420.22793945 83.21792969 419.47931641 82.66210938 418.70800781 C79.92355492 414.96703302 77.05260157 411.33187055 74.1875 407.6875 C69.14746856 401.24707082 64.20349792 394.74174775 59.3125 388.1875 C54.63937372 381.92664402 49.91502076 375.7188642 45.06396484 369.5949707 C39.79927302 362.94242106 34.67258178 356.18474167 29.52832031 349.43896484 C27.29667825 346.51644062 25.05567471 343.60117678 22.8125 340.6875 C22.01199219 339.64722656 21.21148437 338.60695313 20.38671875 337.53515625 C18.78665597 335.45847903 17.18507603 333.38296995 15.58203125 331.30859375 C14.76296188 330.24744134 13.94395172 329.18624321 13.125 328.125 C12.72321533 327.60558838 12.32143066 327.08617676 11.9074707 326.55102539 C9.49116153 323.41546927 7.11832873 320.25188488 4.7734375 317.0625 C4.22929199 316.32555908 3.68514648 315.58861816 3.12451172 314.8293457 C2.05552164 313.37880297 0.99188271 311.92429881 -0.06591797 310.46557617 C-1.32975829 308.75343261 -2.65924628 307.09010625 -4 305.4375 C-4.66 305.4375 -5.32 305.4375 -6 305.4375 C-7.56264902 307.27842899 -9.00592212 309.12289833 -10.4375 311.0625 C-11.34298571 312.26489886 -12.2492626 313.46670224 -13.15625 314.66796875 C-13.62546875 315.2923584 -14.0946875 315.91674805 -14.578125 316.56005859 C-16.82632267 319.52857509 -19.13059917 322.45201657 -21.4375 325.375 C-22.36331373 326.55075568 -23.28909478 327.72653708 -24.21484375 328.90234375 C-24.67487793 329.48612793 -25.13491211 330.06991211 -25.60888672 330.67138672 C-27.90874237 333.59121048 -30.20415945 336.51451893 -32.5 339.4375 C-33.4166451 340.60418361 -34.33331177 341.77085027 -35.25 342.9375 C-35.930625 343.80375 -35.930625 343.80375 -36.625 344.6875 C-40.75 349.9375 -40.75 349.9375 -42.12426758 351.68652344 C-43.04343313 352.85640016 -43.96254095 354.02632223 -44.8815918 355.19628906 C-47.13456094 358.06421157 -49.38843723 360.9314099 -51.64453125 363.796875 C-56.78426392 370.32735886 -61.90120342 376.87499359 -67 383.4375 C-72.53001576 390.55501554 -78.08423393 397.65278819 -83.66015625 404.734375 C-85.53340107 407.11552585 -87.40258926 409.49985038 -89.27197266 411.8840332 C-90.65574136 413.64703758 -92.04240635 415.40772759 -93.4296875 417.16796875 C-95.05044329 419.22489675 -96.65782937 421.2899467 -98.2578125 423.36328125 C-106.17733617 433.52616808 -106.17733617 433.52616808 -112 436.4375 C-116.95482094 436.98110446 -120.87125852 437.00187074 -125.375 434.75 C-130.3334241 430.38186448 -132.37444887 427.4241637 -133.21484375 420.9140625 C-132.67897387 414.7369443 -129.25233871 410.09588069 -125.5 405.375 C-124.84632446 404.54536743 -124.84632446 404.54536743 -124.17944336 403.69897461 C-123.25808806 402.53083065 -122.33346923 401.36525406 -121.40576172 400.20214844 C-120.02348092 398.46697552 -118.65244209 396.72356767 -117.28515625 394.9765625 C-114.99266853 392.04786821 -112.69310305 389.12484233 -110.39111328 386.20361328 C-108.09125763 383.28378952 -105.79584055 380.36048107 -103.5 377.4375 C-102.5833549 376.27081639 -101.66668823 375.10414973 -100.75 373.9375 C-100.069375 373.07125 -100.069375 373.07125 -99.375 372.1875 C-95.25 366.9375 -95.25 366.9375 -93.87573242 365.18847656 C-92.95656687 364.01859984 -92.03745905 362.84867777 -91.1184082 361.67871094 C-88.86543906 358.81078843 -86.61156277 355.9435901 -84.35546875 353.078125 C-79.21573608 346.54764114 -74.09879658 340.00000641 -69 333.4375 C-63.46549557 326.31420722 -57.9069184 319.21053308 -52.32666016 312.12304688 C-49.5958622 308.65351632 -46.86928167 305.18066966 -44.1418457 301.70849609 C-41.75214614 298.6665925 -39.36131089 295.62559126 -36.96875 292.5859375 C-36.22334961 291.63847656 -36.22334961 291.63847656 -35.46289062 290.671875 C-34.51403848 289.46585731 -33.56484062 288.26011151 -32.61523438 287.0546875 C-30.37553759 284.20721692 -28.15776864 281.3476485 -26 278.4375 C-27.31772317 275.63153842 -28.79272252 273.2357135 -30.6875 270.78515625 C-31.21625732 270.09776367 -31.74501465 269.41037109 -32.28979492 268.70214844 C-32.8541626 267.97543945 -33.41853027 267.24873047 -34 266.5 C-34.87458862 265.36546387 -34.87458862 265.36546387 -35.7668457 264.20800781 C-36.9520656 262.67096884 -38.13866185 261.13499016 -39.32666016 259.60009766 C-41.21591695 257.15845239 -43.09748561 254.71099685 -44.9777832 252.26245117 C-46.98269868 249.65221712 -48.99163588 247.04508096 -51 244.4375 C-57.07622653 236.54836654 -63.13653234 228.64741997 -69.18286133 220.73535156 C-72.44798403 216.46376667 -75.71979133 212.19751126 -79 207.9375 C-83.40772904 202.21317658 -87.79685525 196.47479383 -92.18359375 190.734375 C-95.44848676 186.46312673 -98.72003958 182.19718886 -102 177.9375 C-103.6669294 175.77103475 -105.33362381 173.60439062 -107 171.4375 C-107.51594727 170.76686523 -108.03189453 170.09623047 -108.56347656 169.40527344 C-129.0026488 142.82114748 -129.0026488 142.82114748 -129.328125 134.66796875 C-128.31107919 127.75447876 -123.33652941 123.27611493 -118.6875 118.5 C-117.23401633 116.9821142 -115.78089787 115.46387862 -114.328125 113.9453125 C-113.59916016 113.18766602 -112.87019531 112.43001953 -112.11914062 111.64941406 C-109.02628605 108.42115802 -105.98069048 105.1499943 -102.9375 101.875 C-101.78933154 100.64297838 -100.64089275 99.41120865 -99.4921875 98.1796875 C-98.92081055 97.56706055 -98.34943359 96.95443359 -97.76074219 96.32324219 C-92.81344307 91.02472051 -87.85075724 85.74057584 -82.89111328 80.45361328 C-79.76003342 77.11557333 -76.63005676 73.77649927 -73.5 70.4375 C-69.73883388 66.42526255 -65.9774312 62.41324839 -62.21484375 58.40234375 C-55.55904565 51.30649289 -48.9105113 44.20402685 -42.27587891 37.08837891 C-39.24770646 33.84177531 -36.21521236 30.59934981 -33.17578125 27.36328125 C-32.2175647 26.3427063 -32.2175647 26.3427063 -31.23999023 25.30151367 C-29.96574802 23.94528095 -28.69053623 22.58995845 -27.41430664 21.2355957 C-24.50971599 18.14644133 -21.63052882 15.04264329 -18.8203125 11.8671875 C-18.33006592 11.31699951 -17.83981934 10.76681152 -17.3347168 10.19995117 C-16.03732263 8.73752067 -14.75062244 7.26562206 -13.46484375 5.79296875 C-9.46993236 1.97532759 -5.55174694 0.00889703 0 0 Z M-3.45776367 41.74414062 C-4.02213135 42.35451172 -4.58649902 42.96488281 -5.16796875 43.59375 C-6.12533936 44.62072998 -6.12533936 44.62072998 -7.10205078 45.66845703 C-7.79024902 46.41724121 -8.47844727 47.16602539 -9.1875 47.9375 C-10.64713234 49.50781536 -12.10676783 51.07812779 -13.56640625 52.6484375 C-14.30777832 53.44991211 -15.04915039 54.25138672 -15.81298828 55.07714844 C-19.066444 58.58846904 -22.34669225 62.07440478 -25.625 65.5625 C-31.0032859 71.29858848 -36.36986388 77.04554817 -41.7331543 82.7956543 C-47.84671033 89.34852832 -53.97742525 95.88527092 -60.10888672 102.42138672 C-63.23996658 105.75942668 -66.36992988 109.09851324 -69.5 112.4375 C-70.73046332 113.75000509 -71.9609321 115.06250507 -73.19140625 116.375 C-74.11590576 117.36113281 -74.11590576 117.36113281 -75.05908203 118.3671875 C-80.70605469 124.390625 -86.35302734 130.4140625 -92 136.4375 C-90.45796449 141.30368392 -87.6429045 144.63982392 -84.4375 148.5 C-83.34360694 149.84127061 -82.2511727 151.18373221 -81.16015625 152.52734375 C-80.62148926 153.18976074 -80.08282227 153.85217773 -79.52783203 154.53466797 C-76.65245806 158.11579049 -73.93419144 161.80989647 -71.1953125 165.49609375 C-68.50353954 169.10268634 -65.75985776 172.66760064 -63.01123047 176.23095703 C-59.49515781 180.79042257 -55.99551003 185.36225443 -52.5 189.9375 C-48.67452055 194.94359389 -44.84384574 199.94549255 -41 204.9375 C-37.15615366 209.92950823 -33.32566494 214.9315472 -29.5 219.9375 C-27.33363845 222.77106675 -25.16691956 225.60435996 -23 228.4375 C-22.52997559 229.05222168 -22.05995117 229.66694336 -21.57568359 230.30029297 C-16.13350382 237.41364664 -10.62971253 244.47112388 -5 251.4375 C-1.16807473 247.7444126 2.20282882 243.86081934 5.5 239.6875 C6.01699463 239.03773193 6.53398926 238.38796387 7.06665039 237.71850586 C11.47516903 232.15469699 15.77335525 226.50904895 20.06567383 220.85546875 C24.37452015 215.20199512 28.8277115 209.67930474 33.33129883 204.18041992 C37.50418544 199.07614755 41.54313799 193.88502035 45.54296875 188.64453125 C48.14402717 185.23895698 50.78702317 181.8671874 53.4375 178.5 C54.12634277 177.62444458 54.12634277 177.62444458 54.82910156 176.73120117 C57.11146199 173.8318677 59.39682137 170.93491674 61.68359375 168.0390625 C63.9578236 165.15798605 66.21858523 162.26659505 68.47753906 159.37353516 C70.17791141 157.21125922 71.89802819 155.06533194 73.6171875 152.91796875 C74.82863788 151.3832172 76.03958313 149.84806678 77.25 148.3125 C77.83571777 147.58957764 78.42143555 146.86665527 79.02490234 146.12182617 C79.55809082 145.43967041 80.0912793 144.75751465 80.640625 144.0546875 C81.36040527 143.15145752 81.36040527 143.15145752 82.09472656 142.22998047 C83.19671936 140.45704508 83.19671936 140.45704508 82.75683594 138.34838867 C81.68510823 135.64244907 79.9991238 133.98171553 78 131.875 C74.79348873 128.41640451 71.7096851 124.92220189 68.75 121.25 C65.14529915 116.79897808 61.44629733 112.44551395 57.6875 108.125 C57.13642578 107.49150635 56.58535156 106.8580127 56.01757812 106.20532227 C54.89837515 104.91918345 53.77907163 103.63313212 52.65966797 102.34716797 C46.5392154 95.30477609 40.43969663 88.24747199 34.5625 81 C29.95078764 75.32276565 25.15746143 69.8127438 20.35546875 64.296875 C17.05347479 60.50395322 13.77260286 56.6932931 10.5 52.875 C9.78009888 52.03618286 9.78009888 52.03618286 9.0456543 51.18041992 C8.58715088 50.64521729 8.12864746 50.11001465 7.65625 49.55859375 C7.21539062 49.04538574 6.77453125 48.53217773 6.3203125 48.00341797 C5.40376314 46.91637145 4.50374593 45.81525487 3.6171875 44.70361328 C2.45188507 43.24826299 1.23024703 41.8383806 0 40.4375 C-2.07805774 40.21501519 -2.07805774 40.21501519 -3.45776367 41.74414062 Z " fill="#000000" transform="translate(262,37.5625)"/>
</svg>
