<?xml version="1.0" encoding="UTF-8"?>
<svg version="1.1" xmlns="http://www.w3.org/2000/svg" width="512" height="512">
<path d="M0 0 C4.23301121 2.82200747 7.17159664 5.95228992 8.8125 10.875 C9.40922145 16.96155882 8.01348602 20.83795442 4.8125 25.875 C2.61729576 28.40321335 0.19903361 30.6029544 -2.3125 32.8125 C-2.98410156 33.4209375 -3.65570313 34.029375 -4.34765625 34.65625 C-6.284462 36.40718188 -8.23402011 38.14271834 -10.1875 39.875 C-11.85464994 41.37446285 -13.52139133 42.87438024 -15.1875 44.375 C-15.9609375 45.0659375 -16.734375 45.756875 -17.53125 46.46875 C-20.95161883 49.56720176 -24.31920786 52.7201442 -27.6875 55.875 C-32.58649472 60.46356337 -37.5252837 64.99675344 -42.53125 69.46875 C-45.95161883 72.56720176 -49.31920786 75.7201442 -52.6875 78.875 C-56.82112908 82.74669615 -60.96349986 86.60155988 -65.1875 90.375 C-70.03068334 94.70329341 -74.77082374 99.13723702 -79.51293945 103.57543945 C-85.3663334 109.05095701 -91.26978682 114.46908904 -97.1875 119.875 C-99.16743913 121.68665745 -101.14641562 123.49936315 -103.125 125.3125 C-103.61766357 125.76391357 -104.11032715 126.21532715 -104.61791992 126.68041992 C-108.86542868 130.57471697 -113.09936058 134.48361298 -117.33178711 138.39428711 C-121.43428208 142.18351177 -125.54894667 145.9592269 -129.66796875 149.73046875 C-133.34959047 153.10287289 -137.02049023 156.48671781 -140.6875 159.875 C-145.33738581 164.17145031 -149.99853067 168.45528402 -154.66796875 172.73046875 C-158.34959047 176.10287289 -162.02049023 179.48671781 -165.6875 182.875 C-169.84594961 186.71736793 -174.01170168 190.55149373 -178.1875 194.375 C-182.50331727 198.32973296 -186.81783653 202.28584158 -191.125 206.25 C-191.92260742 206.98186523 -191.92260742 206.98186523 -192.73632812 207.72851562 C-195.96679939 210.7051349 -199.10223709 213.7499639 -202.1875 216.875 C-200.52414694 218.56587177 -198.85693461 220.25264845 -197.1875 221.9375 C-196.72988281 222.40349609 -196.27226562 222.86949219 -195.80078125 223.34960938 C-192.41542243 226.75815558 -188.87115031 229.92968071 -185.24023438 233.07397461 C-181.89531667 236.00873411 -178.67066937 239.0683093 -175.4375 242.125 C-169.69935663 247.52736904 -163.92814591 252.88759914 -158.109375 258.203125 C-153.32990413 262.57365719 -148.57653803 266.9724101 -143.81982422 271.36767578 C-142.21554639 272.84910134 -140.60995634 274.32908992 -139.00390625 275.80859375 C-133.19170142 281.16452001 -127.39842348 286.53977464 -121.625 291.9375 C-116.16004144 297.04610874 -110.66550817 302.12000725 -105.14453125 307.16796875 C-100.35612506 311.54708212 -95.59452925 315.95533323 -90.82861328 320.35888672 C-88.65659558 322.36546659 -86.48373927 324.37113692 -84.31079102 326.37670898 C-83.22656892 327.37744158 -82.14242206 328.37825569 -81.05834961 329.37915039 C-78.37601745 331.85561326 -75.69284524 334.33115272 -73.0078125 336.8046875 C-67.19449959 342.16212413 -61.39976679 347.53851874 -55.625 352.9375 C-50.16004144 358.04610874 -44.66550817 363.12000725 -39.14453125 368.16796875 C-34.353067 372.54987879 -29.58867589 376.96119455 -24.81982422 381.36767578 C-23.21554639 382.84910134 -21.60995634 384.32908992 -20.00390625 385.80859375 C-17.31519682 388.2856651 -14.63020926 390.76672499 -11.94677734 393.24951172 C-10.7061928 394.39575261 -9.46419724 395.54046728 -8.22119141 396.68408203 C-6.1860705 398.55693738 -4.15524565 400.43436227 -2.125 402.3125 C-1.49352051 402.89177246 -0.86204102 403.47104492 -0.21142578 404.06787109 C9.53701981 413.11116596 9.53701981 413.11116596 10.05078125 418.265625 C10.16935234 422.83373242 10.16342188 426.10297186 8.25 430.3125 C4.13389465 434.63968768 0.84710831 436.61663704 -5.125 437.375 C-13.29240029 436.85668421 -18.34028437 432.14788289 -23.71875 426.38671875 C-26.3776611 423.68152914 -29.18418437 421.23180122 -32.05078125 418.7512207 C-35.59987543 415.6348143 -39.01219398 412.37611108 -42.4375 409.125 C-48.35130884 403.53530596 -54.29881123 397.99038798 -60.30859375 392.50390625 C-68.17022039 385.32497175 -75.97295907 378.08288042 -83.75 370.8125 C-89.21498136 365.70391534 -94.70949152 360.62999303 -100.23046875 355.58203125 C-105.021933 351.20012121 -109.78632411 346.78880545 -114.55517578 342.38232422 C-116.15945361 340.90089866 -117.76504366 339.42091008 -119.37109375 337.94140625 C-125.18329858 332.58547999 -130.97657652 327.21022536 -136.75 321.8125 C-142.21764521 316.7013798 -147.71522159 311.62534808 -153.23828125 306.57421875 C-161.1162746 299.36402881 -168.94870177 292.1055574 -176.75 284.8125 C-182.21498136 279.70391534 -187.70949152 274.62999303 -193.23046875 269.58203125 C-198.021933 265.20012121 -202.78632411 260.78880545 -207.55517578 256.38232422 C-209.15945361 254.90089866 -210.76504366 253.42091008 -212.37109375 251.94140625 C-215.05980318 249.4643349 -217.74479074 246.98327501 -220.42822266 244.50048828 C-221.6688072 243.35424739 -222.91080276 242.20953272 -224.15380859 241.06591797 C-226.1889295 239.19306262 -228.21975435 237.31563773 -230.25 235.4375 C-230.88147949 234.85822754 -231.51295898 234.27895508 -232.16357422 233.68212891 C-241.87550725 224.67270547 -241.87550725 224.67270547 -242.42578125 219.73828125 C-242.45027344 218.89652344 -242.47476563 218.05476562 -242.5 217.1875 C-242.55607422 215.94419922 -242.55607422 215.94419922 -242.61328125 214.67578125 C-241.5741935 207.84068111 -237.16902874 203.47046242 -232.1875 199.125 C-231.0208158 198.07814454 -229.85414952 197.03126911 -228.6875 195.984375 C-227.80771484 195.20416992 -227.80771484 195.20416992 -226.91015625 194.40820312 C-224.30876939 192.09290983 -221.75011952 189.73315519 -219.1875 187.375 C-218.19807772 186.46857417 -217.20849314 185.56232547 -216.21875 184.65625 C-213.03428069 181.73715314 -209.86036584 178.80669789 -206.6875 175.875 C-202.03761419 171.57854969 -197.37646933 167.29471598 -192.70703125 163.01953125 C-189.02540953 159.64712711 -185.35450977 156.26328219 -181.6875 152.875 C-177.03761419 148.57854969 -172.37646933 144.29471598 -167.70703125 140.01953125 C-164.02540953 136.64712711 -160.35450977 133.26328219 -156.6875 129.875 C-152.03761419 125.57854969 -147.37646933 121.29471598 -142.70703125 117.01953125 C-139.02540953 113.64712711 -135.35450977 110.26328219 -131.6875 106.875 C-127.03761419 102.57854969 -122.37646933 98.29471598 -117.70703125 94.01953125 C-114.02540953 90.64712711 -110.35450977 87.26328219 -106.6875 83.875 C-102.03761419 79.57854969 -97.37646933 75.29471598 -92.70703125 71.01953125 C-89.02540953 67.64712711 -85.35450977 64.26328219 -81.6875 60.875 C-77.03761419 56.57854969 -72.37646933 52.29471598 -67.70703125 48.01953125 C-64.02540953 44.64712711 -60.35450977 41.26328219 -56.6875 37.875 C-52.03874636 33.5795958 -47.38128682 29.29397874 -42.70922852 25.02392578 C-40.10459353 22.64129861 -37.51139121 20.24759832 -34.93359375 17.8359375 C-11.49488628 -4.05701869 -11.49488628 -4.05701869 0 0 Z " fill="#000000" transform="translate(372.1875,38.125)"/>
</svg>
