<?xml version="1.0" encoding="UTF-8"?>
<svg version="1.1" xmlns="http://www.w3.org/2000/svg" width="512" height="512">
<path d="M0 0 C3.93792318 2.56821077 6.74612583 5.61725165 8.875 9.875 C8.96844316 12.83485156 9.00073235 15.77102676 8.98852539 18.73095703 C8.98867142 19.64808472 8.98881744 20.5652124 8.9889679 21.51013184 C8.98826948 24.55104919 8.9804804 27.5919058 8.97265625 30.6328125 C8.97079182 32.73745693 8.96936803 34.8421018 8.96836853 36.94674683 C8.96454535 42.49356275 8.95471674 48.0403526 8.94366455 53.5871582 C8.93344616 59.2442998 8.92886999 64.90144559 8.92382812 70.55859375 C8.91309431 81.66407397 8.89602026 92.76953482 8.875 103.875 C9.64344238 104.16745605 10.41188477 104.45991211 11.20361328 104.76123047 C14.44317291 106.11188583 16.92072383 107.91861229 19.75 110 C20.98848211 110.90125481 22.22815576 111.80087356 23.46875 112.69921875 C24.1596875 113.1998584 24.850625 113.70049805 25.5625 114.21630859 C30.0905253 117.46413417 34.67301685 120.63423691 39.25 123.8125 C40.24797607 124.50601563 41.24595215 125.19953125 42.27416992 125.9140625 C48.48563587 130.22660763 54.71127295 134.51789448 60.94873047 138.79272461 C67.1469176 143.04733168 73.29934049 147.36665607 79.45385742 151.68408203 C84.57620468 155.2744894 89.71422516 158.84007902 94.875 162.375 C101.76823902 167.09658851 108.61315461 171.88525088 115.453125 176.68359375 C120.57574471 180.27414161 125.71444885 183.83922485 130.875 187.375 C133.54261892 189.20695031 136.20887404 191.04087785 138.875 192.875 C139.71724121 193.4534668 140.55948242 194.03193359 141.42724609 194.62792969 C144.14286593 196.49641708 146.85312681 198.37246912 149.5625 200.25 C150.41263672 200.83330078 151.26277344 201.41660156 152.13867188 202.01757812 C163.85098044 210.16077903 163.85098044 210.16077903 165.875 215.875 C166.42234234 220.24663034 166.41808131 224.41546898 164.875 228.5625 C159.52552875 234.74782614 152.89165646 239.43188133 146.125 243.9375 C144.44073729 245.07453054 142.75716575 246.21258544 141.07421875 247.3515625 C140.21489746 247.93196289 139.35557617 248.51236328 138.47021484 249.11035156 C134.264088 251.97035955 130.10007046 254.88960888 125.9375 257.8125 C125.10959961 258.39330322 124.28169922 258.97410645 123.42871094 259.57250977 C121.74929754 260.75099693 120.07009836 261.92978942 118.39111328 263.10888672 C114.22208138 266.03521864 110.0483148 268.95478099 105.875 271.875 C104.20831039 273.04163389 102.54164373 274.20830057 100.875 275.375 C97.54166667 277.70833333 94.20833333 280.04166667 90.875 282.375 C89.63786255 283.2410083 89.63786255 283.2410083 88.37573242 284.12451172 C86.70665493 285.29284967 85.03754678 286.46114384 83.3684082 287.62939453 C79.23837662 290.52013489 75.10885554 293.41159854 70.98046875 296.3046875 C61.1624781 303.18353445 51.33005719 310.04119705 41.48608398 316.8828125 C34.00564587 322.08350409 26.53870778 327.30323952 19.08007812 332.53515625 C18.30599609 333.07785156 17.53191406 333.62054688 16.734375 334.1796875 C16.05858398 334.65390137 15.38279297 335.12811523 14.68652344 335.61669922 C13.09566294 336.7217255 11.48667094 337.80055271 9.875 338.875 C9.58011118 341.71349394 9.47921746 344.33604351 9.50610352 347.17675781 C9.50233704 348.03547989 9.49857056 348.89420197 9.49468994 349.77894592 C9.48824354 351.64778806 9.48860051 353.51666296 9.49487495 355.38550568 C9.50395734 358.34477217 9.49379293 361.3034012 9.47825623 364.26263428 C9.43808394 372.67752026 9.43695119 381.09235834 9.43920898 389.50732422 C9.43926012 394.65149959 9.42007116 399.79533325 9.38987541 404.93941498 C9.37904911 407.8521887 9.39118398 410.76431016 9.40370178 413.67706299 C9.39479515 415.46993655 9.38472 417.26280481 9.37329102 419.05566406 C9.38303452 419.86316605 9.39277802 420.67066803 9.40281677 421.50263977 C9.33614213 426.7532857 8.3118325 429.68863962 4.875 433.875 C1.19979522 437.19164822 -1.33294066 438.69930791 -6.3125 439.1875 C-10.88012413 438.81310458 -14.55047741 437.81568972 -18.125 434.875 C-21.46264989 429.85832952 -22.62520342 426.65471096 -22.62836456 420.50515747 C-22.63417833 419.79343754 -22.63999209 419.0817176 -22.64598203 418.3484304 C-22.66055309 415.96908077 -22.6467112 413.59076747 -22.63293457 411.21142578 C-22.63754465 409.48620134 -22.64389828 407.76098082 -22.65184355 406.03576851 C-22.66854534 401.2991334 -22.66028661 396.56282056 -22.64789867 391.82618427 C-22.63885401 386.71635565 -22.65281502 381.60658272 -22.66381836 376.49676514 C-22.68161438 366.48827671 -22.67775875 356.47990819 -22.6661678 346.47141504 C-22.65713802 338.33805004 -22.6559075 330.20471867 -22.66026306 322.0713501 C-22.66087599 320.91421859 -22.66148893 319.75708708 -22.66212043 318.56489098 C-22.66339932 316.21427583 -22.66469617 313.86366068 -22.6660108 311.51304555 C-22.67741977 289.46601314 -22.6642979 267.41904723 -22.64280933 245.37202573 C-22.62493808 226.4504578 -22.6280421 207.52898803 -22.64648438 188.60742188 C-22.66788546 166.63983226 -22.6763211 144.67230096 -22.66403532 122.70470238 C-22.66276111 120.36268489 -22.66150363 118.0206674 -22.66026306 115.6786499 C-22.65964596 114.52630171 -22.65902886 113.37395352 -22.65839306 112.18668568 C-22.65493788 104.062126 -22.66077213 95.93760327 -22.67018127 87.81304932 C-22.68139416 77.91330058 -22.67837611 68.01367872 -22.6570583 58.11394453 C-22.64653838 53.0619429 -22.64244218 48.01015289 -22.65565491 42.95815277 C-22.66756501 38.3343274 -22.66103902 33.71091003 -22.6397447 29.08712173 C-22.63527278 27.41360113 -22.63755813 25.74004615 -22.64724785 24.06654763 C-22.65940766 21.79215548 -22.64694259 19.51916172 -22.62836456 17.24484253 C-22.62771515 15.9815103 -22.62706574 14.71817806 -22.62639666 13.41656303 C-21.93568935 8.53782394 -20.13520213 4.52875392 -16.23046875 1.31640625 C-10.52067548 -1.30009779 -6.11780866 -2.20241112 0 0 Z M8.875 141.875 C8.875 194.015 8.875 246.155 8.875 299.875 C14.65087045 296.66618308 19.76590275 293.68700799 24.9375 289.75 C30.0163667 285.95812939 35.13903763 282.25951111 40.375 278.6875 C46.98053023 274.17734742 53.5603628 269.63201836 60.125 265.0625 C61.10573486 264.37986084 62.08646973 263.69722168 63.09692383 262.99389648 C71.86807193 256.88517367 80.62604152 250.75771945 89.37939453 244.62353516 C93.75185562 241.55998924 98.12603891 238.49890372 102.5 235.4375 C104.07552835 234.33464616 105.65104944 233.23178194 107.2265625 232.12890625 C112.109375 228.7109375 116.9921875 225.29296875 121.875 221.875 C120.61279767 218.088393 119.40250573 217.66927284 116.0625 215.5625 C110.47717526 211.94652915 105.0038042 208.20428375 99.5625 204.375 C97.83215736 203.15997663 96.1016849 201.94513814 94.37109375 200.73046875 C93.4776123 200.10317871 92.58413086 199.47588867 91.66357422 198.82958984 C86.82493281 195.43805044 81.97555357 192.06197234 77.125 188.6875 C76.14966309 188.00896973 75.17432617 187.33043945 74.16943359 186.63134766 C68.06059181 182.38517146 61.93654408 178.16201301 55.79980469 173.95629883 C50.46783516 170.29620647 45.16976649 166.58864865 39.875 162.875 C33.57631658 158.45903582 27.27073156 154.05381586 20.9375 149.6875 C20.29361328 149.24212891 19.64972656 148.79675781 18.98632812 148.33789062 C15.66944428 146.05686783 12.33276217 143.9496573 8.875 141.875 Z " fill="#000000" transform="translate(184.125,37.125)"/>
</svg>
