<?xml version="1.0" encoding="UTF-8"?>
<svg version="1.1" xmlns="http://www.w3.org/2000/svg" width="512" height="512">
<path d="M0 0 C1.65612305 0.83144531 1.65612305 0.83144531 3.34570312 1.6796875 C4.54971481 2.26392165 5.75482928 2.84588762 6.9609375 3.42578125 C9.56393816 4.68022875 12.16125919 5.94553948 14.75537109 7.21826172 C21.33568804 10.43748419 27.97278557 13.53754185 34.60134888 16.65579224 C36.92151841 17.74845823 39.2401811 18.84425778 41.55834961 19.94116211 C51.76480472 24.77028292 61.99495515 29.54468379 72.24316406 34.28466797 C81.1215152 38.39737731 89.96995919 42.57118636 98.81347656 46.75814819 C101.13323223 47.85537644 103.45407071 48.95027484 105.77539062 50.04418945 C106.52606812 50.39795151 107.27674561 50.75171356 108.0501709 51.11619568 C109.54109442 51.81873097 111.03206074 52.52117542 112.52307129 53.223526 C116.56270192 55.12849826 120.59455829 57.04841342 124.61810303 58.98712158 C127.37615448 60.31250035 130.14300834 61.61929289 132.90820312 62.9296875 C134.36661621 63.64342529 134.36661621 63.64342529 135.85449219 64.37158203 C136.7384668 64.78649902 137.62244141 65.20141602 138.53320312 65.62890625 C139.28859375 65.99201904 140.04398438 66.35513184 140.82226562 66.72924805 C142.92642749 67.44137661 142.92642749 67.44137661 145.01464844 66.55517578 C147.04920989 65.1444136 148.17549968 63.87860801 149.58007812 61.84765625 C150.07145264 61.14995117 150.56282715 60.45224609 151.0690918 59.73339844 C151.59349854 58.97317383 152.11790527 58.21294922 152.65820312 57.4296875 C157.66003039 50.33348485 162.80361117 43.37465879 168.09570312 36.4921875 C172.5864638 30.63912682 177.02817622 24.76914022 181.28320312 18.7421875 C182.06032613 17.65218633 182.83766511 16.56233912 183.61523438 15.47265625 C184.80095618 13.80214188 185.9852306 12.13045367 187.14794922 10.44384766 C195.92337134 -2.23924804 195.92337134 -2.23924804 202.68164062 -3.66015625 C208.19885152 -3.90213918 212.88475668 -2.84269479 217.34570312 0.4921875 C220.98340539 4.3960631 221.70354195 7.40023697 222.28320312 12.6171875 C221.44752009 20.69545681 216.24012034 26.72938132 211.28320312 32.8671875 C207.03630869 38.22461412 202.84271367 43.58784311 198.90820312 49.1796875 C189.27911827 62.84290267 179.25209563 76.23020881 169.17431641 89.56494141 C168.0281968 91.08322943 166.88778424 92.60582142 165.74804688 94.12890625 C165.14089844 94.92941406 164.53375 95.72992188 163.90820312 96.5546875 C163.16570312 97.53888672 163.16570312 97.53888672 162.40820312 98.54296875 C158.75553954 102.68075171 155.48295351 104.08047335 149.99023438 104.64453125 C143.51117124 104.54938508 138.30225823 101.62680409 132.59570312 98.8046875 C131.37796021 98.21870113 130.15934563 97.63452334 128.93994141 97.05200195 C126.31155742 95.79382035 123.68783813 94.52653485 121.06689453 93.25292969 C116.81338254 91.19027771 112.54098234 89.16900066 108.26367188 87.15625 C107.5318721 86.81183868 106.80007233 86.46742737 106.0460968 86.11257935 C104.54919114 85.40820481 103.0522477 84.70391058 101.55526733 83.99969482 C97.72268947 82.19477823 93.89374074 80.38219626 90.06445312 78.5703125 C77.83036326 72.78378222 65.58291574 67.02567548 53.33601379 61.2663269 C48.87421087 59.1677981 44.41342381 57.06712388 39.95330811 54.9650116 C36.86806897 53.51091154 33.78257919 52.05734376 30.69708252 50.60379028 C29.23842321 49.91644852 27.779882 49.22885606 26.32147217 48.54098511 C24.28950619 47.58262885 22.25709985 46.62521203 20.22460938 45.66796875 C19.07420166 45.12567627 17.92379395 44.58338379 16.73852539 44.0246582 C11.81014213 41.73119615 6.85685764 39.49157591 1.90820312 37.2421875 C1.90820312 154.7221875 1.90820312 272.2021875 1.90820312 393.2421875 C14.11820313 387.3021875 26.32820313 381.3621875 38.90820312 375.2421875 C53.03320313 368.6796875 53.03320313 368.6796875 59.75976562 365.58203125 C68.02955585 361.74573505 76.2170201 357.74289873 84.40820312 353.7421875 C98.45881724 346.88091031 112.57301294 340.18306433 126.79345703 333.6796875 C129.00600336 332.65856563 131.21066777 331.62028833 133.40966797 330.5703125 C135.1337085 329.75240234 135.1337085 329.75240234 136.89257812 328.91796875 C137.92866211 328.42079346 138.96474609 327.92361816 140.03222656 327.41137695 C144.02745183 325.78717204 147.71375885 325.09282021 151.90820312 326.2421875 C158.11860641 329.09405101 161.39782715 332.80120957 165.40820312 338.2421875 C166.00568359 339.03109375 166.60316406 339.82 167.21875 340.6328125 C169.12801112 343.15995105 171.01898098 345.70004399 172.90820312 348.2421875 C174.15737192 349.90947725 175.40736765 351.57614777 176.65820312 353.2421875 C178.53938108 355.74911755 180.4192352 358.25696549 182.29418945 360.76855469 C186.49794135 366.39389941 190.77005233 371.96014413 195.09570312 377.4921875 C222.68276969 412.79247545 222.68276969 412.79247545 221.90820312 422.2421875 C220.50211215 426.54884329 218.58875353 429.57823588 215.34570312 432.7421875 C210.56499691 434.82831385 206.05208704 435.07329538 200.90820312 434.2421875 C190.6273441 429.14779169 184.02581887 417.18739683 177.36035156 408.19091797 C175.32208654 405.45564032 173.2435006 402.75434029 171.15820312 400.0546875 C165.97391538 393.34116091 160.83697501 386.59200912 155.70410156 379.83911133 C151.47396388 374.27903602 147.20935068 368.74752266 142.90820312 363.2421875 C134.79594165 365.59119251 127.41547341 369.25575944 119.87524414 372.98901367 C115.95887302 374.92727553 112.03309 376.84628009 108.10742188 378.765625 C107.31947235 379.15123596 106.53152283 379.53684692 105.71969604 379.93414307 C98.82585966 383.29996521 91.88030032 386.54132612 84.90820312 389.7421875 C74.33757174 394.60297213 63.86207136 399.63639202 53.40820312 404.7421875 C40.34075577 411.12359582 27.21869668 417.35569219 13.99804688 423.4140625 C10.22320784 425.1490017 6.48882295 426.93452001 2.78710938 428.8203125 C-11.74497797 436.18296882 -11.74497797 436.18296882 -20.09179688 434.2421875 C-25.27349048 431.88687222 -27.86385825 428.38104078 -30.09179688 423.2421875 C-30.5943442 419.71459919 -30.5943442 419.71459919 -30.59795475 415.90637302 C-30.60712479 414.84430764 -30.60712479 414.84430764 -30.61648008 413.76078638 C-30.63205072 411.39393932 -30.61922671 409.02812127 -30.60646057 406.66127014 C-30.61178702 404.94500727 -30.61885327 403.22874907 -30.62750763 401.51249975 C-30.64614885 396.80060514 -30.63982486 392.08902452 -30.6293546 387.3771168 C-30.62236681 382.29384848 -30.63835733 377.21064494 -30.65135193 372.12739563 C-30.67300419 362.17071473 -30.67286188 352.21414807 -30.66472638 342.25745136 C-30.65842885 334.16556972 -30.65956116 326.07372142 -30.66599846 317.98184013 C-30.66690011 316.83054807 -30.66780177 315.67925601 -30.66873075 314.49307631 C-30.67058193 312.15430088 -30.67244449 309.81552547 -30.67431831 307.47675007 C-30.69090106 285.54032962 -30.68217352 263.60397346 -30.66533273 241.66755687 C-30.65063541 221.59478546 -30.66526383 201.52216372 -30.69410289 181.44941158 C-30.72348948 160.84222885 -30.73447131 140.23511523 -30.72492069 119.62791246 C-30.72389813 117.29739186 -30.72290352 114.96687125 -30.72193718 112.63635063 C-30.72146079 111.48967137 -30.7209844 110.34299211 -30.72049357 109.16156499 C-30.71832847 101.07954172 -30.72813867 92.9975838 -30.74270821 84.91557503 C-30.76021637 75.06597488 -30.76013589 65.21656559 -30.73735655 55.36697299 C-30.72620065 50.34113002 -30.7230825 45.3156235 -30.74165726 40.28979492 C-30.75844365 35.68866367 -30.75213594 31.08816279 -30.72744047 26.48707252 C-30.72255073 24.82295401 -30.72609045 23.15878484 -30.73892791 21.49470866 C-30.8544159 5.35952625 -30.8544159 5.35952625 -25.09179688 -0.7578125 C-18.11012972 -7.32879335 -7.5339838 -3.60624828 0 0 Z " fill="#000000" transform="translate(160.091796875,40.7578125)"/>
</svg>
