<?xml version="1.0" encoding="UTF-8"?>
<svg version="1.1" xmlns="http://www.w3.org/2000/svg" width="512" height="512">
<path d="M0 0 C1.2322003 0.72395692 2.46537306 1.44626097 3.69946289 2.16699219 C5.5923967 3.27285606 7.48463593 4.37975319 9.37382507 5.49200439 C15.48756817 9.09077511 21.67418461 12.55369913 27.875 16 C38.93916125 22.17538603 49.94587385 28.44666556 60.9375 34.75 C65.51981646 37.37677914 70.10297084 40.00208512 74.6875 42.625 C75.27964294 42.96380188 75.87178589 43.30260376 76.48187256 43.65167236 C85.95817043 49.07116483 95.47059226 54.42349308 105.00170898 59.74609375 C112.27166674 63.80880226 119.52194279 67.90378265 126.73999023 72.05810547 C131.26740956 74.66259095 135.80733658 77.2409003 140.37358093 79.77658081 C142.93399859 81.2001591 145.4890778 82.6331741 148.04379272 84.06695557 C149.29220525 84.76446354 150.54299996 85.45772724 151.79629517 86.14642334 C166.41591078 94.18523235 166.41591078 94.18523235 168.9375 101.75 C169.56916497 107.09326434 169.34497499 111.67442167 166.328125 116.2421875 C162.69235255 120.18434527 158.35779179 121.5132847 153.1875 122.375 C147.1556374 121.98136597 142.08471517 118.66322171 136.9375 115.75 C135.87668213 115.15396973 135.87668213 115.15396973 134.79443359 114.54589844 C129.51759164 111.5728729 124.26763819 108.55410538 119.02148438 105.52734375 C113.41723665 102.29753664 107.80255569 99.08596462 102.1875 95.875 C101.59553833 95.53625854 101.00357666 95.19751709 100.39367676 94.84851074 C92.01907424 90.05742206 83.61562646 85.32150356 75.1875 80.625 C66.09330194 75.55667784 57.0877914 70.35338701 48.11206055 65.07861328 C39.42358471 59.99167031 30.6372177 55.09308982 21.81103516 50.25024414 C15.48610628 46.76824974 9.23460242 43.1849063 3.01733398 39.51464844 C2.23684441 39.05468475 1.45635483 38.59472107 0.65221405 38.12081909 C-1.25307254 36.99785824 -3.15796774 35.87423955 -5.0625 34.75 C-5.67272677 49.4649958 -6.12966578 64.17830035 -6.40961647 78.90341949 C-6.54313931 85.7431807 -6.72535725 92.57496539 -7.02392578 99.40966797 C-10.00666297 127.69911422 -10.00666297 127.69911422 -2.58575439 153.74710083 C2.91519356 159.71755642 10.05278227 162.47663011 17.73019409 164.71395874 C22.58351494 166.28170463 26.5762239 168.90811238 30.8125 171.6875 C32.42052445 172.65762717 34.03211468 173.62188762 35.6484375 174.578125 C41.92825973 178.33685071 48.18298439 182.13688207 54.4375 185.9375 C55.3222551 186.47509949 55.3222551 186.47509949 56.22488403 187.02355957 C58.63655126 188.48905284 61.04812686 189.95469667 63.45954895 191.42059326 C67.68689392 193.99034903 71.9153385 196.55828647 76.14453125 199.125 C87.83049233 206.21741538 99.51611708 213.31036418 111.1875 220.42675781 C115.90204372 223.29999197 120.62128508 226.1650718 125.35025024 229.01449585 C127.86816528 230.53195204 130.38453504 232.0519617 132.90087891 233.57202148 C134.11120468 234.30214803 135.32227715 235.03103857 136.53417969 235.75854492 C159.96211977 249.82385932 159.96211977 249.82385932 162.875 258.5625 C162.97446811 263.63537353 161.91393781 268.52650746 158.46875 272.40234375 C153.91156882 276.25584255 150.72192872 277.25147602 144.88110352 277.13549805 C141.64474118 276.71165993 139.71925244 275.82785829 136.8984375 274.2109375 C135.9391333 273.66397217 134.9798291 273.11700684 133.99145508 272.5534668 C128.63475461 269.39014868 123.30570631 266.1855279 118 262.9375 C116.77425401 262.18983282 115.54833867 261.44244322 114.32226562 260.6953125 C111.78466765 259.14868827 109.24778939 257.60089371 106.71142578 256.05224609 C101.37027539 252.79231262 96.02023114 249.5470484 90.67037964 246.30142212 C87.75901149 244.53495387 84.84829024 242.7674203 81.9375 241 C80.7708364 240.29166162 79.60416973 239.58332829 78.4375 238.875 C76.10416667 237.45833333 73.77083333 236.04166667 71.4375 234.625 C70.57127266 234.09907761 70.57127266 234.09907761 69.68754578 233.56253052 C68.5207233 232.85410077 67.35390404 232.14566571 66.18708801 231.43722534 C63.27283165 229.66782365 60.35851957 227.89851386 57.4440918 226.12939453 C52.16627567 222.92552474 46.88886406 219.72099858 41.61355591 216.51300049 C39.22965485 215.06339329 36.84542673 213.61432447 34.46118164 212.1652832 C32.86248242 211.19338174 31.26423197 210.22074219 29.66601562 209.24804688 C21.78264079 204.45734299 13.87483075 199.70794737 5.96362305 194.96337891 C4.79374189 194.26163478 3.62386828 193.55987808 2.45400238 192.85810852 C-0.38475782 191.15528238 -3.22359393 189.45258294 -6.0625 187.75 C-6.05973462 188.93074946 -6.05696924 190.11149893 -6.05412006 191.32802868 C-5.98915938 219.35086584 -5.9396849 247.37369925 -5.90930401 275.39659552 C-5.90555185 278.84504493 -5.90166889 282.29349418 -5.89770508 285.74194336 C-5.89691815 286.4284732 -5.89613122 287.11500305 -5.89532044 287.82233683 C-5.88226326 298.9414092 -5.85860771 310.06043508 -5.83104161 321.17947986 C-5.80299606 332.58697995 -5.78655013 343.99444229 -5.78023452 355.40197784 C-5.77631816 361.81012745 -5.76709195 368.2181716 -5.74530983 374.62628746 C-5.72498313 380.65494089 -5.71865851 386.68344515 -5.72317696 392.71212959 C-5.72235005 394.92730392 -5.71636182 397.14248312 -5.70488358 399.35762787 C-5.6899994 402.37761578 -5.6935317 405.39703747 -5.70173645 408.41703796 C-5.69299793 409.29739186 -5.6842594 410.17774577 -5.67525607 411.08477706 C-5.72305105 417.57519973 -7.14032834 420.78312668 -11.75 425.5 C-15.29056734 428.26251674 -18.60734108 429.02583536 -23.0625 428.75 C-29.2699672 427.54522356 -32.52714112 424.89234019 -36.0625 419.75 C-37.21878338 416.28114985 -37.190286 413.59349805 -37.19392776 409.93202496 C-37.1959804 409.2313743 -37.19803303 408.53072364 -37.20014787 407.80884114 C-37.20583611 405.44340008 -37.20435838 403.07801691 -37.20294189 400.71257019 C-37.20552448 399.00658914 -37.20853734 397.30060871 -37.2119453 395.59462911 C-37.22003098 390.89273626 -37.22180574 386.19085865 -37.22254276 381.48895967 C-37.22439058 376.42340647 -37.23193651 371.35786123 -37.23867798 366.29231262 C-37.2522727 355.2097973 -37.25828772 344.1272856 -37.26268864 333.04476333 C-37.26544899 326.12839096 -37.26968594 319.21201999 -37.27419281 312.29564857 C-37.28638668 293.15636247 -37.29668595 274.01707749 -37.3000679 254.87778759 C-37.30028747 253.65231127 -37.30050703 252.42683494 -37.30073325 251.16422297 C-37.30106067 249.32154586 -37.30106067 249.32154586 -37.3013947 247.44164294 C-37.30183817 244.95222485 -37.30228473 242.46280676 -37.30273438 239.97338867 C-37.3029558 238.73854452 -37.30317723 237.50370038 -37.30340537 236.23143671 C-37.30735475 216.21529811 -37.32481249 196.19919588 -37.3480939 176.18307134 C-37.37178886 155.64610057 -37.3842689 135.10914807 -37.38543582 114.5721634 C-37.3863536 103.036021 -37.39213171 91.49992599 -37.41025543 79.96379662 C-37.42563136 70.14190535 -37.43079172 60.32007612 -37.42251733 50.49817511 C-37.418602 45.48482952 -37.41958341 40.47160898 -37.43357468 35.45827866 C-37.44626064 30.87081262 -37.44516298 26.28356625 -37.43298396 21.69610075 C-37.43101774 20.03458518 -37.43414786 18.37305433 -37.44282833 16.71156027 C-37.45386875 14.45593815 -37.44647009 12.20109846 -37.4344368 9.94549847 C-37.43503389 8.69176927 -37.43563097 7.43804008 -37.43624616 6.14631909 C-36.89436464 1.22211451 -35.2892441 -2.05641115 -31.75 -5.5 C-20.39037939 -12.89696226 -10.37263425 -6.21761239 0 0 Z " fill="#000000" transform="translate(190.0625,46.25)"/>
</svg>
