<?xml version="1.0" encoding="UTF-8"?>
<svg version="1.1" xmlns="http://www.w3.org/2000/svg" width="512" height="512">
<path d="M0 0 C4.63328325 2.31664163 8.84169168 5.65918934 10.59725451 10.72261065 C11.14449981 13.81709747 11.12829914 16.79499167 11.13142776 19.93822956 C11.1334804 20.63973447 11.13553303 21.34123938 11.13764787 22.06400201 C11.14332467 24.42633725 11.14185978 26.78861432 11.14044189 29.1509552 C11.14302513 30.85708661 11.14603818 32.56321741 11.1494453 34.26934737 C11.15752327 38.96705026 11.15930531 43.66473789 11.16004276 48.3624469 C11.16189191 53.42527498 11.1694385 58.4880951 11.17617798 63.55091858 C11.18976704 74.62517762 11.19578679 85.69943305 11.20018864 96.77369905 C11.20294984 103.68589686 11.20718695 110.59809328 11.21169281 117.51029015 C11.22388575 136.64103641 11.23418532 155.77178156 11.2375679 174.90253162 C11.23789725 176.73956608 11.23789725 176.73956608 11.23823325 178.61371235 C11.23856067 180.45518413 11.23856067 180.45518413 11.2388947 182.33385736 C11.23933817 184.82161129 11.23978473 187.30936521 11.24023438 189.79711914 C11.2404558 191.03113548 11.24067723 192.26515181 11.24090537 193.53656258 C11.24485471 213.539029 11.26231275 233.54145902 11.2855939 253.54391138 C11.30929295 274.07074852 11.32176908 294.59756739 11.32293582 315.12441844 C11.32385334 326.65331198 11.3296252 338.18215809 11.34775543 349.71103859 C11.36313684 359.52665541 11.36828844 369.34221013 11.36001733 379.15783671 C11.356104 384.16726266 11.35707371 389.17656348 11.37107468 394.18597412 C11.38377249 398.77098535 11.38265242 403.35577689 11.37048396 407.94078764 C11.36851982 409.60027228 11.37163838 411.25977227 11.38032833 412.91923533 C11.39139143 415.17450625 11.38395366 417.4289978 11.3719368 419.68424702 C11.37253389 420.93705442 11.37313097 422.18986182 11.37374616 423.48063308 C10.88023273 428.12778405 9.62065488 432.16078352 6.46484375 435.7421875 C0.75118355 439.97994059 -2.91624464 440.78466213 -10 440 C-14.63305523 437.68347239 -18.84076496 434.34125016 -20.59725451 429.27854002 C-21.14533917 426.17774096 -21.12830177 423.19293931 -21.13142776 420.04335976 C-21.1334804 419.33986688 -21.13553303 418.636374 -21.13764787 417.91156316 C-21.14332479 415.54247524 -21.14185977 413.17344534 -21.14044189 410.80435181 C-21.14302512 409.09338291 -21.14603816 407.38241461 -21.1494453 405.67144716 C-21.15752332 400.96041208 -21.15930531 396.24939224 -21.16004276 391.53835106 C-21.16189189 386.46122706 -21.16943844 381.384111 -21.17617798 376.30699158 C-21.18976679 365.20180892 -21.19578667 354.09662988 -21.20018864 342.9914403 C-21.20294973 336.06048919 -21.20718679 329.12953949 -21.21169281 322.19858932 C-21.22388542 303.0172287 -21.23418525 283.83586919 -21.2375679 264.65450478 C-21.23778747 263.42659596 -21.23800703 262.19868715 -21.23823325 260.93356898 C-21.23845153 259.70269072 -21.23866981 258.47181246 -21.2388947 257.20363486 C-21.23933817 254.70932428 -21.23978473 252.2150137 -21.24023438 249.72070312 C-21.2404558 248.48343386 -21.24067723 247.2461646 -21.24090537 245.97140233 C-21.24485526 225.91329492 -21.26231513 205.8552238 -21.2855939 185.79713042 C-21.30928862 165.2149275 -21.32176887 144.63274281 -21.32293582 124.05052602 C-21.32385356 112.48980634 -21.32963079 100.92913396 -21.34775543 89.36842728 C-21.36313096 79.52643149 -21.36829191 69.68449762 -21.36001733 59.84249212 C-21.35610199 54.81901334 -21.35708348 49.79565936 -21.37107468 44.77219582 C-21.38376044 40.17551771 -21.38266316 35.57905884 -21.37048396 30.98238127 C-21.36851772 29.31753088 -21.37164795 27.65266524 -21.38032833 25.98783632 C-21.39136846 23.72773072 -21.38397031 21.46840604 -21.3719368 19.20832253 C-21.37253389 17.95209764 -21.37313097 16.69587276 -21.37374616 15.40158045 C-20.89001506 10.99899275 -19.50351796 7.61063883 -16.46484375 4.35546875 C-10.772356 0.00238988 -7.12777365 -0.789538 0 0 Z " fill="#000000" transform="translate(261,36)"/>
</svg>
