<?xml version="1.0" encoding="UTF-8"?>
<svg version="1.1" xmlns="http://www.w3.org/2000/svg" width="512" height="512">
<path d="M0 0 C8.79762254 3.91005446 12.73643843 15.04968507 17.0625 23.125 C18.21974411 25.2736034 19.37730291 27.42203734 20.53515625 29.5703125 C21.11539551 30.64829102 21.69563477 31.72626953 22.29345703 32.83691406 C24.84550142 37.56714111 27.42199099 42.28388886 30 47 C34.73471711 55.66898014 39.44355481 64.35174737 44.14453125 73.0390625 C47.75023924 79.69972594 51.36985996 86.35262403 55 93 C61.91431084 105.6627639 68.77944658 118.3520455 75.64550781 131.04101562 C81.5835438 142.01385693 87.5277405 152.98323878 93.5 163.9375 C93.98025635 164.81873535 94.4605127 165.6999707 94.95532227 166.60791016 C95.41350342 167.44757324 95.87168457 168.28723633 96.34375 169.15234375 C96.78203125 169.95655762 97.2203125 170.76077148 97.671875 171.58935547 C98.58737845 173.25106155 99.51524013 174.90599852 100.453125 176.55517578 C101.14148438 177.76729736 101.14148438 177.76729736 101.84375 179.00390625 C102.25818359 179.72521729 102.67261719 180.44652832 103.09960938 181.18969727 C104 183 104 183 104 185 C104.66 185 105.32 185 106 185 C106.20882812 184.236875 106.41765625 183.47375 106.6328125 182.6875 C108.55205146 177.51103835 111.21166556 172.82729368 113.875 168 C114.45507812 166.93910156 115.03515625 165.87820312 115.6328125 164.78515625 C116.8348949 162.58743604 118.03901141 160.39082726 119.24511719 158.1953125 C121.35158082 154.35983726 123.44707016 150.51845573 125.54125977 146.67626953 C126.52031806 144.88004575 127.49998107 143.08415146 128.48022461 141.28857422 C134.34756633 130.54057935 140.17250168 119.7696319 146 109 C152.8084426 96.4175132 159.62670783 83.84071486 166.48291016 71.28417969 C170.14685321 64.57115389 173.79584979 57.85014299 177.4375 51.125 C178.24006226 49.64362549 178.24006226 49.64362549 179.05883789 48.13232422 C181.8789568 42.92497529 184.6931457 37.71451155 187.5 32.5 C188.07564697 31.43249512 188.65129395 30.36499023 189.24438477 29.26513672 C190.33535533 27.24176781 191.42452559 25.21742665 192.51147461 23.19189453 C203.18877581 3.40561209 203.18877581 3.40561209 210 0 C215.22840334 -0.52113171 219.64036754 -0.64273534 224.4375 1.625 C228.23804181 5.14745338 230.73578383 8.19857795 231.50139666 13.41851521 C231.50204607 14.68276923 231.50269547 15.94702326 231.50336456 17.24958801 C231.50917833 17.9604537 231.51499209 18.67131939 231.52098203 19.40372646 C231.53558217 21.78617983 231.52169755 24.16760295 231.50793457 26.55004883 C231.5125435 28.27512291 231.51889636 30.00019308 231.52684355 31.72525501 C231.54356115 36.46607983 231.53527945 41.20658309 231.52289867 45.94740915 C231.51386047 51.05996296 231.52781181 56.1724609 231.53881836 61.28500366 C231.55662129 71.30064627 231.55275568 81.3161691 231.5411678 91.33181643 C231.53214073 99.47045803 231.53090633 107.60906602 231.53526306 115.74771118 C231.53587599 116.9052669 231.53648893 118.06282262 231.53712043 119.25545579 C231.53839931 121.60687821 231.53969616 123.95830062 231.5410108 126.30972302 C231.55242179 148.36816612 231.53929473 170.42654277 231.51780933 192.48497498 C231.49993789 211.41937858 231.50304185 230.3536841 231.52148438 249.28808594 C231.54288189 271.26664566 231.55132311 293.2451471 231.53903532 315.22371578 C231.5377611 317.56657345 231.53650362 319.90943113 231.53526306 322.25228882 C231.53433741 323.98146466 231.53433741 323.98146466 231.53339306 325.74557334 C231.5299368 333.87610159 231.53577444 342.00659294 231.54518127 350.13711548 C231.5563902 360.04313866 231.55338448 369.94903503 231.5320583 379.85504365 C231.52153302 384.91096493 231.51745126 389.96667465 231.53065491 395.02259445 C231.54255398 399.64887469 231.53605734 404.2747468 231.5147447 408.90098989 C231.51026808 410.5765414 231.5125686 412.25212723 231.52224785 413.92765677 C231.53438295 416.2024012 231.52196779 418.47574125 231.50336456 420.75041199 C231.50271515 422.01466601 231.50206574 423.27892004 231.50139666 424.58148479 C230.73578383 429.80142205 228.23804181 432.85254662 224.4375 436.375 C219.55915262 438.68112785 215.30512948 438.76013796 210 438 C201.23775714 434.10566984 197.31237927 423.04547388 193 415 C191.84511057 412.85673932 190.69016095 410.71351106 189.53515625 408.5703125 C188.65561279 406.93497559 188.65561279 406.93497559 187.75830078 405.26660156 C184.99399721 400.13103065 182.21596171 395.00292089 179.4375 389.875 C178.89931641 388.88113281 178.36113281 387.88726562 177.80664062 386.86328125 C173.72580696 379.33018998 169.62555765 371.80782246 165.51928711 364.28857422 C161.28008082 356.52237613 157.06633098 348.74253088 152.85546875 340.9609375 C149.24976076 334.30027406 145.63014004 327.64737597 142 321 C137.84050588 313.38236561 133.69511495 305.75725114 129.5625 298.125 C129.02890869 297.13959229 128.49531738 296.15418457 127.94555664 295.13891602 C125.10503053 289.89181528 122.26669505 284.64353516 119.4296875 279.39453125 C118.84501709 278.31349121 118.26034668 277.23245117 117.65795898 276.11865234 C116.54217855 274.05555897 115.42706603 271.99210418 114.31274414 269.92822266 C112.13416379 265.90084546 109.94912628 261.88913703 107.62890625 257.94140625 C106 255 106 255 106 253 C105.34 253 104.68 253 104 253 C103.78988281 253.76570312 103.57976562 254.53140625 103.36328125 255.3203125 C101.4619721 260.45221284 98.82915167 265.09054272 96.1875 269.875 C95.0050665 272.03638075 93.8227789 274.19784132 92.640625 276.359375 C92.03541016 277.46216797 91.43019531 278.56496094 90.80664062 279.70117188 C87.99689151 284.83162187 85.21852626 289.97894354 82.4375 295.125 C77.81454445 303.66469353 73.17084221 312.19287969 68.51708984 320.71582031 C62.65143822 331.4627861 56.82668371 342.23187355 51 353 C44.1970177 365.57239577 37.38827435 378.14136727 30.5324707 390.68505859 C27.86474148 395.56921111 25.20975992 400.45987294 22.5703125 405.359375 C21.99539062 406.42542969 21.42046875 407.49148438 20.828125 408.58984375 C19.72977723 410.62783308 18.63328263 412.66682277 17.5390625 414.70703125 C6.81742879 434.5912856 6.81742879 434.5912856 0 438 C-5.22840334 438.52113171 -9.64036754 438.64273534 -14.4375 436.375 C-18.23804181 432.85254662 -20.73578383 429.80142205 -21.50139666 424.58148479 C-21.50204607 423.31723077 -21.50269547 422.05297674 -21.50336456 420.75041199 C-21.50917833 420.0395463 -21.51499209 419.32868061 -21.52098203 418.59627354 C-21.53558217 416.21382017 -21.52169755 413.83239705 -21.50793457 411.44995117 C-21.5125435 409.72487709 -21.51889636 407.99980692 -21.52684355 406.27474499 C-21.54356115 401.53392017 -21.53527945 396.79341691 -21.52289867 392.05259085 C-21.51386047 386.94003704 -21.52781181 381.8275391 -21.53881836 376.71499634 C-21.55662129 366.69935373 -21.55275568 356.6838309 -21.5411678 346.66818357 C-21.53214073 338.52954197 -21.53090633 330.39093398 -21.53526306 322.25228882 C-21.53618246 320.51595524 -21.53618246 320.51595524 -21.53712043 318.74454421 C-21.53839931 316.39312179 -21.53969616 314.04169938 -21.5410108 311.69027698 C-21.55242179 289.63183388 -21.53929473 267.57345723 -21.51780933 245.51502502 C-21.49993789 226.58062142 -21.50304185 207.6463159 -21.52148438 188.71191406 C-21.54288189 166.73335434 -21.55132311 144.7548529 -21.53903532 122.77628422 C-21.5377611 120.43342655 -21.53650362 118.09056887 -21.53526306 115.74771118 C-21.53464596 114.59492729 -21.53402886 113.4421434 -21.53339306 112.25442666 C-21.5299368 104.12389841 -21.53577444 95.99340706 -21.54518127 87.86288452 C-21.5563902 77.95686134 -21.55338448 68.05096497 -21.5320583 58.14495635 C-21.52153302 53.08903507 -21.51745126 48.03332535 -21.53065491 42.97740555 C-21.54255398 38.35112531 -21.53605734 33.7252532 -21.5147447 29.09901011 C-21.51026808 27.4234586 -21.5125686 25.74787277 -21.52224785 24.07234323 C-21.53438295 21.7975988 -21.52196779 19.52425875 -21.50336456 17.24958801 C-21.50271515 15.98533399 -21.50206574 14.72107996 -21.50139666 13.41851521 C-20.73578383 8.19857795 -18.23804181 5.14745338 -14.4375 1.625 C-9.55915262 -0.68112785 -5.30512948 -0.76013796 0 0 Z M10 78 C10 171.06 10 264.12 10 360 C12.43359939 356.75520082 14.26834854 353.81297967 16.15234375 350.2578125 C16.75771973 349.12053711 17.3630957 347.98326172 17.98681641 346.81152344 C18.46359833 345.91040833 18.46359833 345.91040833 18.95001221 344.99108887 C20.63298546 341.81071775 22.3271153 338.63629058 24.01953125 335.4609375 C24.35946106 334.82240845 24.69939087 334.18387939 25.04962158 333.52600098 C28.03907209 327.91442409 31.07223861 322.32738835 34.125 316.75 C38.26783912 309.17623102 42.39218535 301.59282767 46.5 294 C51.14039486 285.42442909 55.79899138 276.85906001 60.47387695 268.30224609 C63.10097299 263.49087646 65.71899635 258.67481605 68.32421875 253.8515625 C68.88101318 252.82135986 69.43780762 251.79115723 70.01147461 250.72973633 C71.11730388 248.68125405 72.22102881 246.63163421 73.32250977 244.58081055 C75.76962301 240.04033406 78.24595253 235.5342892 80.890625 231.10546875 C81.32415283 230.37183105 81.75768066 229.63819336 82.2043457 228.88232422 C82.99955916 227.54757473 83.8096166 226.22150464 84.63745117 224.90673828 C85.84173129 222.97103826 85.84173129 222.97103826 87 220 C85.90323656 216.57196039 84.26340748 213.4401286 82.6015625 210.25390625 C82.12855713 209.34584229 81.65555176 208.43777832 81.16821289 207.50219727 C80.65895264 206.53209717 80.14969238 205.56199707 79.625 204.5625 C79.09189209 203.54406006 78.55878418 202.52562012 78.00952148 201.47631836 C72.96253812 191.86799495 67.76718523 182.3437564 62.54736328 172.82861328 C59.84833199 167.89472616 57.17523463 162.94681782 54.5 158 C50.34742208 150.32559207 46.18225654 142.6582745 42 135 C37.27525301 126.34835247 32.57543287 117.68344083 27.8840332 109.01367188 C22.2804979 98.66242626 16.64339686 88.32955542 11 78 C10.67 78 10.34 78 10 78 Z M199 78 C198.54786133 78.85416504 198.09572266 79.70833008 197.62988281 80.58837891 C189.00186401 96.88283941 180.32911562 113.14784119 171.46679688 129.31640625 C168.79604055 134.20271676 166.14928721 139.10202659 163.5 144 C158.85969283 152.57561811 154.20100841 161.14094037 149.52612305 169.69775391 C146.89902701 174.50912354 144.28100365 179.32518395 141.67578125 184.1484375 C141.11898682 185.17864014 140.56219238 186.20884277 139.98852539 187.27026367 C138.88269612 189.31874595 137.77897119 191.36836579 136.67749023 193.41918945 C134.23037699 197.95966594 131.75404747 202.4657108 129.109375 206.89453125 C128.45908325 207.99498779 128.45908325 207.99498779 127.7956543 209.11767578 C127.00044084 210.45242527 126.1903834 211.77849536 125.36254883 213.09326172 C124.15826871 215.02896174 124.15826871 215.02896174 123 218 C124.72763325 223.38940506 127.69651429 228.37326202 130.3125 233.375 C130.84230469 234.39013672 131.37210938 235.40527344 131.91796875 236.45117188 C136.16001644 244.52201612 140.61550079 252.4567373 145.1418457 260.37060547 C149.45240031 267.94151851 153.49246947 275.63049481 157.48046875 283.375 C161.00063698 290.175115 164.69842174 296.85358812 168.5 303.5 C173.3781789 312.03300597 178.01641132 320.6610847 182.52441406 329.39477539 C187.8461114 339.68936635 193.41007646 349.84916618 199 360 C199.33 360 199.66 360 200 360 C200 266.94 200 173.88 200 78 C199.67 78 199.34 78 199 78 Z " fill="#000000" transform="translate(151,37)"/>
</svg>
