<?xml version="1.0" encoding="UTF-8"?>
<svg version="1.1" xmlns="http://www.w3.org/2000/svg" width="512" height="512">
<path d="M0 0 C1.24330078 -0.05607422 1.24330078 -0.05607422 2.51171875 -0.11328125 C9.91667608 1.01243751 13.62489316 5.45546289 17.90478516 11.16455078 C18.8800415 12.50622314 18.8800415 12.50622314 19.875 13.875 C20.91599854 15.27468018 20.91599854 15.27468018 21.97802734 16.70263672 C24.10175237 19.56378643 26.20787025 22.43728729 28.3125 25.3125 C29.53142176 26.96047206 30.75141468 28.60765257 31.97265625 30.25390625 C36.00871455 35.70362939 40.01511168 41.17492396 44.02148438 46.64648438 C50.7821872 55.8740343 57.60783664 65.04244164 64.5625 74.125 C88.36553469 105.22251306 88.36553469 105.22251306 87.3125 115.3125 C85.60003965 119.99923359 83.55172126 122.67476233 79.3125 125.3125 C74.42112625 127.34882298 70.38934227 127.52656985 65.26953125 126.30859375 C59.45828826 123.35077546 55.52716753 116.94246502 51.625 111.875 C51.00415527 111.07296143 50.38331055 110.27092285 49.74365234 109.44458008 C45.80360531 104.32720583 41.99266504 99.14389694 38.28466797 93.85595703 C34.4178322 88.37624987 30.33409526 83.06882173 26.25 77.75 C20.36786498 70.0849416 14.6793368 62.34784732 9.3125 54.3125 C7.79771311 57.12259292 6.84837626 59.73038752 6.12390137 62.83575439 C5.90953115 63.74346903 5.69516094 64.65118366 5.47429466 65.5864048 C5.24494539 66.58044004 5.01559612 67.57447529 4.77929688 68.59863281 C4.530516 69.65852606 4.28173512 70.7184193 4.02541542 71.81043053 C3.18931066 75.37774301 2.36036485 78.94668199 1.53125 82.515625 C0.93299912 85.073709 0.33426262 87.63167948 -0.2649231 90.18954468 C-1.56079543 95.72422429 -2.85322158 101.25969916 -4.14337158 106.79571533 C-6.20802718 115.65458609 -8.27972343 124.51180212 -10.35302734 133.36865234 C-10.61639063 134.49375029 -10.61639063 134.49375029 -10.88507438 135.64157748 C-11.60288905 138.7080775 -12.32072062 141.77457356 -13.0386318 144.84105098 C-14.14188118 149.55356016 -15.24460818 154.26619123 -16.34696662 158.9789089 C-21.72729466 181.9794251 -27.13729775 204.97281171 -32.5703125 227.9609375 C-32.84315587 229.11549525 -32.84315587 229.11549525 -33.12151122 230.2933774 C-36.2115092 243.36889034 -39.30332704 256.44397287 -42.39619827 269.51880646 C-44.87349797 279.9913989 -47.34988029 290.46420748 -49.82421875 300.9375 C-49.99431088 301.65741607 -50.164403 302.37733214 -50.33964944 303.11906385 C-55.06756978 323.13199892 -59.75573552 343.15368143 -64.39453125 363.1875 C-64.90093086 365.37211237 -65.40737926 367.55671343 -65.91387939 369.74130249 C-67.97409916 378.63063058 -70.03129671 387.52057162 -72.06841373 396.41522598 C-72.85742388 399.85422988 -73.65230648 403.29185707 -74.44870567 406.72915649 C-74.80713115 408.2825896 -75.16285851 409.8366483 -75.5155735 411.39138794 C-75.98972364 413.48084947 -76.47309694 415.56796997 -76.95874023 417.65478516 C-77.22259018 418.80596832 -77.48644012 419.95715149 -77.75828552 421.14321899 C-79.70808276 427.7934117 -82.27342866 431.28074475 -87.6875 435.3125 C-90.07379084 436.50564542 -91.71195596 436.5475148 -94.375 436.625 C-95.20386719 436.66238281 -96.03273438 436.69976562 -96.88671875 436.73828125 C-100.77728089 436.14682899 -103.68705999 434.80398008 -106.6875 432.3125 C-108.98217178 429.10060124 -110.64838606 425.64183529 -112.35668945 422.09082031 C-112.86713208 421.07144001 -113.37757471 420.05205971 -113.9034853 419.00178909 C-114.97774871 416.85245227 -116.04357474 414.69887986 -117.10138321 412.54139709 C-118.61469957 409.46070163 -120.15388557 406.3948486 -121.70565796 403.33337402 C-124.81963642 397.18649217 -127.9015493 391.02387524 -130.98046875 384.859375 C-132.1042387 382.61251107 -133.22812723 380.36570645 -134.35212708 378.11895752 C-136.67851105 373.46764661 -139.00348123 368.8156327 -141.32739258 364.16308594 C-144.00984995 358.79298376 -146.69500309 353.42423923 -149.38171595 348.05626559 C-151.98916039 342.84645409 -154.59436264 337.63552435 -157.19860268 332.42411041 C-158.29965817 330.22133271 -159.4013072 328.01885159 -160.50356102 325.81667328 C-162.03189542 322.7625327 -163.55767594 319.70712999 -165.08276367 316.65136719 C-165.76442345 315.29108398 -165.76442345 315.29108398 -166.45985413 313.90332031 C-167.07958603 312.65962677 -167.07958603 312.65962677 -167.71183777 311.39080811 C-168.07142169 310.67126324 -168.43100561 309.95171837 -168.80148602 309.21036911 C-171.3305134 303.79311495 -171.52683483 298.69061535 -169.5625 293.125 C-166.74675903 288.90138854 -164.25578614 286.05244174 -159.35546875 284.640625 C-154.29297936 283.86297686 -150.02555221 284.01777492 -145.603302 286.7640686 C-137.73596586 293.1227791 -133.45851983 306.5149091 -129.0078125 315.4765625 C-128.18719057 317.12154395 -127.3662108 318.76634693 -126.54489136 320.41098022 C-124.40093852 324.70646357 -122.26180458 329.00432861 -120.12371826 333.30273438 C-117.93438332 337.70199009 -115.74042622 342.09893928 -113.546875 346.49609375 C-109.25592948 355.09933099 -104.97007919 363.7050954 -100.6875 372.3125 C-96.71461295 359.31340248 -93.72621894 346.08275972 -90.640625 332.8515625 C-90.03941 330.28511817 -89.43791258 327.71874161 -88.83604431 325.15245056 C-87.54380541 319.64022287 -86.25392264 314.12744841 -84.96566772 308.61428833 C-82.91067588 299.82008894 -80.8508975 291.02701428 -78.7902832 282.23413086 C-78.08117839 279.20811782 -77.37209294 276.18210024 -76.66300964 273.15608215 C-76.48588623 272.40023006 -76.30876281 271.64437797 -76.12627202 270.86562127 C-74.85400987 265.43618154 -73.58239335 260.00659082 -72.31098938 254.57695007 C-67.44601302 233.80201025 -62.56790123 213.03019241 -57.67822218 192.26105309 C-57.15308781 190.03050422 -56.62800062 187.79994426 -56.10292435 185.56938171 C-53.01577613 172.45519655 -49.92778487 159.34121011 -46.8371582 146.22784424 C-44.85803217 137.83048276 -42.87967697 129.43294007 -40.90234375 121.03515625 C-40.74434658 120.36419104 -40.5863494 119.69322582 -40.42356443 119.00192833 C-36.41089187 101.95996854 -32.42375938 84.9124119 -28.48966408 67.85212517 C-27.83094545 64.99662028 -27.17103442 62.14139388 -26.51066589 59.28627014 C-26.09474551 57.48764306 -25.67883643 55.68901336 -25.26293945 53.89038086 C-25.06440337 53.03189702 -24.86586729 52.17341318 -24.66131496 51.28891468 C-23.53960457 46.43391935 -22.42712924 41.57693546 -21.32256985 36.7180109 C-20.66891682 33.85123757 -20.00724256 30.98636086 -19.34332085 28.12195015 C-18.911185 26.24552582 -18.4895158 24.36670021 -18.06837463 22.48777771 C-16.11598405 14.10927431 -14.26929899 6.30052565 -6.6875 1.3125 C-4.30120916 0.11935458 -2.66304404 0.0774852 0 0 Z " fill="#000000" transform="translate(297.6875,37.6875)"/>
</svg>
