<?xml version="1.0" encoding="UTF-8"?>
<svg version="1.1" xmlns="http://www.w3.org/2000/svg" width="512" height="512">
<path d="M0 0 C3.75778866 1.27071696 6.31590545 3.17908654 8.875 6.25 C11.00357555 11.45318467 11.31775092 15.38476617 10.25 20.8125 C6.76733603 28.9654645 -2.07880039 35.32092165 -8.65625 40.94140625 C-11.91983715 43.80792363 -15.08081861 46.77985698 -18.25 49.75 C-24.7927037 55.87897748 -31.3810248 61.95347671 -38 68 C-39.97993913 69.81165745 -41.95891562 71.62436315 -43.9375 73.4375 C-44.43016357 73.88891357 -44.92282715 74.34032715 -45.43041992 74.80541992 C-49.67792868 78.69971697 -53.91186058 82.60861298 -58.14428711 86.51928711 C-62.24678208 90.30851177 -66.36144667 94.0842269 -70.48046875 97.85546875 C-74.16209047 101.22787289 -77.83299023 104.61171781 -81.5 108 C-86.14988581 112.29645031 -90.81103067 116.58028402 -95.48046875 120.85546875 C-99.162091 124.22787338 -102.83288674 127.61182924 -106.5 131 C-125.34862568 148.40631566 -125.34862568 148.40631566 -133 155 C-131.41365048 159.12645519 -128.40785866 161.63245453 -125.1875 164.5 C-124.00376451 165.57276029 -122.82017477 166.64568142 -121.63671875 167.71875 C-121.03134277 168.26402344 -120.4259668 168.80929687 -119.80224609 169.37109375 C-117.01379089 171.89135562 -114.25774166 174.44623954 -111.5 177 C-110.41684166 178.00018955 -109.33350778 179.00018901 -108.25 180 C-92 195 -92 195 -75.75 210 C-75.21391113 210.49483887 -74.67782227 210.98967773 -74.12548828 211.49951172 C-73.04047744 212.50108526 -71.95551662 213.502713 -70.87060547 214.50439453 C-68.18834243 216.98076272 -65.50526066 219.45623064 -62.8203125 221.9296875 C-57.00699959 227.28712413 -51.21226679 232.66351874 -45.4375 238.0625 C-39.97254144 243.17110874 -34.47800817 248.24500725 -28.95703125 253.29296875 C-25.81666785 256.16490709 -22.68870098 259.05016112 -19.5625 261.9375 C-19.02584717 262.43290283 -18.48919434 262.92830566 -17.9362793 263.4387207 C-15.14496508 266.01618592 -12.35616881 268.59632387 -9.5703125 271.1796875 C-8.44277028 272.22402522 -7.31516703 273.26829705 -6.1875 274.3125 C-5.64569092 274.81523437 -5.10388184 275.31796875 -4.5456543 275.8359375 C-1.54567764 278.60954432 1.50299042 281.30062902 4.625 283.9375 C9.59421876 288.299951 11.54377005 292.13243763 12.05859375 298.7265625 C11.94745191 303.03886593 10.53839217 306.38196355 7.56640625 309.5078125 C3.20811716 313.31180547 -0.07616224 314.1008448 -5.76953125 314.328125 C-11.45854476 313.49121233 -15.38820345 310.0185366 -19.4375 306.1875 C-19.94410156 305.71248047 -20.45070312 305.23746094 -20.97265625 304.74804688 C-22.07151822 303.71686843 -23.16761761 302.6827398 -24.26123047 301.64599609 C-26.69108834 299.34578523 -29.1392975 297.06548059 -31.58666992 294.78393555 C-32.86758406 293.58964697 -34.14768861 292.39448951 -35.42700195 291.19848633 C-40.27109184 286.67035575 -45.14928559 282.18144303 -50.04296875 277.70703125 C-54.83137494 273.32791788 -59.59297075 268.91966677 -64.35888672 264.51611328 C-66.53090442 262.50953341 -68.70376073 260.50386308 -70.87670898 258.49829102 C-71.96093108 257.49755842 -73.04507794 256.49674431 -74.12915039 255.49584961 C-76.81148255 253.01938674 -79.49465476 250.54384728 -82.1796875 248.0703125 C-87.99300041 242.71287587 -93.78773321 237.33648126 -99.5625 231.9375 C-105.02745856 226.82889126 -110.52199183 221.75499275 -116.04296875 216.70703125 C-120.83137494 212.32791788 -125.59297075 207.91966677 -130.35888672 203.51611328 C-133.07177586 201.00985896 -135.78594859 198.50499554 -138.5 196 C-139.58333957 195.00000676 -140.66667291 194.00000676 -141.75 193 C-142.28625 192.505 -142.8225 192.01 -143.375 191.5 C-145 190 -146.625 188.5 -148.25 187 C-148.78705566 186.50459717 -149.32411133 186.00919434 -149.87744141 185.4987793 C-150.95401269 184.50433585 -152.02922327 183.50841719 -153.10302734 182.51098633 C-155.90511484 179.91184382 -158.7304529 177.34705766 -161.6015625 174.82421875 C-162.19130859 174.29892578 -162.78105469 173.77363281 -163.38867188 173.23242188 C-164.50893953 172.23564829 -165.63734641 171.24791285 -166.77539062 170.27148438 C-171.12336558 166.37424766 -173.69383192 162.47918274 -174.21484375 156.55859375 C-174.12332031 155.85863281 -174.03179687 155.15867187 -173.9375 154.4375 C-173.82728516 153.38369141 -173.82728516 153.38369141 -173.71484375 152.30859375 C-171.72819418 145.89269267 -166.81968529 141.67258558 -162 137.3125 C-161.33500488 136.70164551 -160.67000977 136.09079102 -159.98486328 135.46142578 C-157.99492695 133.63537216 -155.99785177 131.81738424 -154 130 C-152.93421686 129.02287548 -151.8690569 128.04507054 -150.8046875 127.06640625 C-148.85892658 125.27890055 -146.91102342 123.49372382 -144.9609375 121.7109375 C-141.79744272 118.81793526 -138.64824074 115.90958228 -135.5 113 C-130.8501666 108.70349321 -126.18896906 104.41971574 -121.51953125 100.14453125 C-117.83790953 96.77212711 -114.16700977 93.38828219 -110.5 90 C-105.85011419 85.70354969 -101.18896933 81.41971598 -96.51953125 77.14453125 C-92.83790953 73.77212711 -89.16700977 70.38828219 -85.5 67 C-80.85011419 62.70354969 -76.18896933 58.41971598 -71.51953125 54.14453125 C-67.83790953 50.77212711 -64.16700977 47.38828219 -60.5 44 C-55.85011419 39.70354969 -51.18896933 35.41971598 -46.51953125 31.14453125 C-43.38764207 28.27568788 -40.26249221 25.39970503 -37.14282227 22.51757812 C-36.05266225 21.51052884 -34.96200907 20.50401315 -33.87084961 19.49804688 C-31.14671639 16.98635921 -28.42903924 14.46831196 -25.72265625 11.9375 C-24.66930708 10.95829434 -23.61592303 9.9791262 -22.5625 9 C-21.63566406 8.13375 -20.70882812 7.2675 -19.75390625 6.375 C-13.11342269 0.64817163 -8.6994625 -1.24999534 0 0 Z " fill="#000000" transform="translate(260,161)"/>
<path d="M0 0 C2.87226219 1.64076118 5.04139147 3.28678435 7.453125 5.53515625 C8.30777344 6.32535156 9.16242188 7.11554687 10.04296875 7.9296875 C11.03420065 8.86030817 12.02505696 9.79132898 13.015625 10.72265625 C14.22487088 11.85197974 15.43452959 12.98086131 16.64453125 14.109375 C18.59301471 15.92741398 20.5407683 17.7461983 22.48608398 19.56762695 C25.96459752 22.82239955 29.46277044 26.04877284 33.015625 29.22265625 C37.9114156 33.59622918 42.69724505 38.08286671 47.48828125 42.5703125 C50.96651533 45.82369105 54.46362973 49.04954048 58.015625 52.22265625 C62.9114156 56.59622918 67.69724505 61.08286671 72.48828125 65.5703125 C75.96651533 68.82369105 79.46362973 72.04954048 83.015625 75.22265625 C87.9114156 79.59622918 92.69724505 84.08286671 97.48828125 88.5703125 C100.96651533 91.82369105 104.46362973 95.04954048 108.015625 98.22265625 C112.9114156 102.59622918 117.69724505 107.08286671 122.48828125 111.5703125 C126.72529279 115.53341622 131.01122676 119.43385715 135.33984375 123.296875 C139.52801553 127.09374314 143.64159335 130.9707152 147.75195312 134.8515625 C150.37908158 137.32022924 152.97443604 139.6904289 155.81640625 141.9140625 C159.79940237 145.18959927 161.723732 149.05754627 162.28515625 154.18359375 C162.05387375 161.34233777 159.03401847 164.9270872 154.015625 169.72265625 C153.36851562 170.39167969 152.72140625 171.06070313 152.0546875 171.75 C148.90595537 174.99207399 145.65683863 178.05145611 142.24609375 181.015625 C138.15881151 184.57218966 134.2022483 188.25090881 130.265625 191.97265625 C124.52748163 197.37502529 118.75627091 202.73525539 112.9375 208.05078125 C109.80918515 210.9114328 106.6919478 213.78375375 103.578125 216.66015625 C102.76758667 217.40881958 102.76758667 217.40881958 101.94067383 218.17260742 C100.84597608 219.18386237 99.75133104 220.19517437 98.65673828 221.20654297 C96.48472058 223.21312284 94.31186427 225.21879317 92.13891602 227.22436523 C91.05469392 228.22509783 89.97054706 229.22591194 88.88647461 230.22680664 C86.20414245 232.70326951 83.52097024 235.17880897 80.8359375 237.65234375 C75.02262459 243.00978038 69.22789179 248.38617499 63.453125 253.78515625 C57.98816644 258.89376499 52.49363317 263.9676635 46.97265625 269.015625 C43.83229341 271.88756284 40.70423686 274.77272159 37.578125 277.66015625 C36.76770752 278.40869873 36.76770752 278.40869873 35.94091797 279.17236328 C34.84614194 280.18370297 33.7514155 281.19509633 32.65673828 282.20654297 C31.02542313 283.71360442 29.39366691 285.22018655 27.76171875 286.7265625 C27.22538818 287.22164307 26.68905762 287.71672363 26.13647461 288.22680664 C25.06064064 289.21967224 23.98463304 290.21234973 22.90844727 291.20483398 C20.09566522 293.79944539 17.28703253 296.3983587 14.484375 299.00390625 C13.61329102 299.81214844 13.61329102 299.81214844 12.72460938 300.63671875 C11.62045585 301.66137322 10.51750454 302.6873254 9.41601562 303.71484375 C2.7950266 309.85261078 -1.26535407 313.11070686 -10.41015625 313.00390625 C-15.35987861 312.46311716 -18.60158235 310.33591435 -21.859375 306.53515625 C-23.98477806 301.2216486 -24.67481778 296.79635725 -22.84765625 291.30859375 C-21.03067488 287.37285963 -18.42122651 284.66971165 -15.296875 281.72265625 C-14.55920898 280.99949219 -14.55920898 280.99949219 -13.80664062 280.26171875 C-10.32566659 276.88352059 -6.68707922 273.7019646 -3.02612305 270.52148438 C0.31019485 267.58210972 3.534891 264.52704452 6.765625 261.47265625 C12.50376837 256.07028721 18.27497909 250.71005711 24.09375 245.39453125 C27.22206485 242.5338797 30.3393022 239.66155875 33.453125 236.78515625 C34.26366333 236.03649292 34.26366333 236.03649292 35.09057617 235.27270508 C36.18527392 234.26145013 37.27991896 233.25013813 38.37451172 232.23876953 C41.08740086 229.73251521 43.80157359 227.22765179 46.515625 224.72265625 C47.59896457 223.72266301 48.68229791 222.72266301 49.765625 221.72265625 C82.265625 191.72265625 82.265625 191.72265625 83.89013672 190.22314453 C84.97514756 189.22157099 86.06010838 188.21994325 87.14501953 187.21826172 C89.82728257 184.74189353 92.51036434 182.26642561 95.1953125 179.79296875 C97.8821841 177.31729948 100.56575708 174.8380937 103.24755859 172.35693359 C104.50209633 171.19732636 105.75774451 170.03891995 107.01416016 168.88134766 C109.07993306 166.97727341 111.14183822 165.0690849 113.203125 163.16015625 C113.8513623 162.56412598 114.49959961 161.9680957 115.16748047 161.35400391 C115.77092285 160.79374512 116.37436523 160.23348633 116.99609375 159.65625 C117.79889771 158.91459595 117.79889771 158.91459595 118.61791992 158.15795898 C120.24965134 156.56996039 120.24965134 156.56996039 122.015625 153.72265625 C121.44328125 153.47902344 120.8709375 153.23539063 120.28125 152.984375 C117.61128962 151.49748327 115.87733493 149.74181717 113.765625 147.53515625 C111.05045748 144.75848008 108.34106496 142.06042364 105.390625 139.53515625 C101.41366698 136.12067635 97.58968894 132.55601137 93.765625 128.97265625 C87.2228636 122.84372714 80.63421939 116.76960416 74.015625 110.72265625 C72.01488838 108.89012606 70.01524874 107.05640064 68.015625 105.22265625 C65.02807115 102.48357991 62.040172 99.74488408 59.05078125 97.0078125 C53.31230269 91.75257424 47.58644808 86.48401215 41.87133789 81.20336914 C38.26035931 77.86812823 34.64115336 74.5420714 31.015625 71.22265625 C26.28919555 66.89529209 21.57772435 62.55200695 16.87109375 58.203125 C12.28254389 53.96501332 7.67835053 49.74424858 3.0703125 45.52734375 C0.90189491 43.53998125 -1.25817371 41.54391438 -3.4140625 39.54296875 C-3.98898437 39.00994141 -4.56390625 38.47691406 -5.15625 37.92773438 C-6.25379465 36.90948481 -7.35023557 35.89004363 -8.4453125 34.86914062 C-10.99202919 32.50758063 -13.56793934 30.21832058 -16.25390625 28.015625 C-20.74704805 24.24241436 -22.51828428 20.75649841 -23.04296875 14.83984375 C-22.91899046 10.36009499 -21.58053534 6.47973738 -18.55078125 3.14453125 C-13.00086901 -1.67185145 -6.7413211 -2.88535602 0 0 Z " fill="#000000" transform="translate(263.984375,38.27734375)"/>
</svg>
