<?xml version="1.0" encoding="UTF-8"?>
<svg version="1.1" xmlns="http://www.w3.org/2000/svg" width="512" height="512">
<path d="M0 0 C3.4375 1.8125 3.4375 1.8125 6 4 C6.78117187 4.66322266 6.78117187 4.66322266 7.578125 5.33984375 C9.36843318 7.4301761 9.76584303 9.06261766 10.3125 11.75 C10.58513672 12.97976562 10.58513672 12.97976562 10.86328125 14.234375 C11.08403936 18.69999624 10.35652549 22.26280398 7.55493164 25.85058594 C5.72207131 27.80693233 3.82473713 29.6602675 1.875 31.5 C1.235625 32.12519531 0.59625 32.75039062 -0.0625 33.39453125 C-3.9230457 37.13879545 -7.91899382 40.70084822 -11.98193359 44.22265625 C-15.48744212 47.31001435 -18.86233592 50.53457675 -22.25 53.75 C-28.11554258 59.2947011 -34.0180343 64.79005318 -39.98046875 70.23046875 C-43.49028516 73.44028082 -46.9635445 76.68897735 -50.4375 79.9375 C-55.63486744 84.79759848 -60.84960956 89.63776866 -66.08349609 94.45849609 C-70.25992477 98.30866119 -74.41350267 102.18280879 -78.5625 106.0625 C-83.98146428 111.12901132 -89.43452046 116.15491065 -94.91015625 121.16015625 C-99.08838515 124.99031271 -103.2232387 128.86696357 -107.36328125 132.73828125 C-111.91962428 136.99706718 -116.49609216 141.2332184 -121.08349609 145.45849609 C-125.25992477 149.30866119 -129.41350267 153.18280879 -133.5625 157.0625 C-138.98146428 162.12901132 -144.43452046 167.15491065 -149.91015625 172.16015625 C-154.07883221 175.98155559 -158.20451193 179.84904841 -162.3347168 183.71191406 C-167.19175546 188.25242097 -172.07056749 192.76868686 -176.96459961 197.26928711 C-179.00862666 199.15086625 -181.03525208 201.03525208 -183 203 C-182.05724401 203.00146656 -181.11448803 203.00293312 -180.14316368 203.00444412 C-157.20835674 203.04103216 -134.27369592 203.10047262 -111.33901024 203.18390274 C-100.247977 203.22371932 -89.15701498 203.25609852 -78.06591797 203.27099609 C-68.39939532 203.28399901 -58.73302921 203.31092894 -49.06659472 203.35461307 C-43.94782694 203.37725841 -38.82925246 203.39290884 -33.71043015 203.39188385 C-28.89227784 203.39113906 -24.07455333 203.40901715 -19.25651169 203.44116783 C-17.48846385 203.44968542 -15.72036813 203.45140417 -13.95230865 203.44580269 C-11.536665 203.43916907 -9.12238502 203.45706656 -6.70687866 203.48101807 C-6.00842122 203.47325765 -5.30996379 203.46549723 -4.59034097 203.45750165 C0.36560205 203.54439762 3.1651332 204.92786955 7 208 C10.13291951 211.88914146 11.10119256 216.059963 11 221 C8.82356669 231.37991269 -0.35155463 237.68626962 -8.0703125 244.2890625 C-10.83970162 246.74451277 -13.40035124 249.39096339 -15.99609375 252.02734375 C-18.58246151 254.57337829 -21.3153528 256.92021557 -24.06640625 259.28515625 C-26.56431556 261.5004738 -28.88024989 263.8689817 -31.21875 266.25 C-33.71896185 268.70634849 -36.37680516 270.96309368 -39.03125 273.25 C-40.93023071 274.93798286 -42.72005988 276.68769734 -44.5 278.5 C-47.53832417 281.59356643 -50.7476532 284.42105507 -54.03125 287.25 C-55.93023071 288.93798286 -57.72005988 290.68769734 -59.5 292.5 C-62.53832417 295.59356643 -65.7476532 298.42105507 -69.03125 301.25 C-70.93023071 302.93798286 -72.72005988 304.68769734 -74.5 306.5 C-77.53832417 309.59356643 -80.7476532 312.42105507 -84.03125 315.25 C-85.93023071 316.93798286 -87.72005988 318.68769734 -89.5 320.5 C-91.89053167 322.93389732 -94.35046262 325.21355559 -96.9375 327.4375 C-99.74576347 329.85617779 -102.39970593 332.35899683 -105 335 C-108.2215855 338.27202128 -111.58592145 341.29316055 -115.06640625 344.28515625 C-117.56431556 346.5004738 -119.88024989 348.8689817 -122.21875 351.25 C-124.71896185 353.70634849 -127.37680516 355.96309368 -130.03125 358.25 C-131.93023071 359.93798286 -133.72005988 361.68769734 -135.5 363.5 C-138.53832417 366.59356643 -141.7476532 369.42105507 -145.03125 372.25 C-146.93023071 373.93798286 -148.72005988 375.68769734 -150.5 377.5 C-153.53832417 380.59356643 -156.7476532 383.42105507 -160.03125 386.25 C-161.93023071 387.93798286 -163.72005988 389.68769734 -165.5 391.5 C-168.53832417 394.59356643 -171.7476532 397.42105507 -175.03125 400.25 C-176.93023071 401.93798286 -178.72005988 403.68769734 -180.5 405.5 C-183.53832417 408.59356643 -186.7476532 411.42105507 -190.03125 414.25 C-191.93023071 415.93798286 -193.72005988 417.68769734 -195.5 419.5 C-198.50111375 422.5486427 -201.63995255 425.37545531 -204.8828125 428.1640625 C-207.94616626 430.82047627 -210.93123351 433.56294578 -213.921875 436.30078125 C-218.16421388 439.76961098 -221.37471724 440.39132516 -226.75390625 440.25 C-231.22730688 439.75209106 -234.03769809 437.90884069 -237.25 434.875 C-239.54779088 431.10005784 -240.99323945 427.4552012 -241 423 C-239.16131753 416.08372518 -235.95426814 412.28243417 -230.8125 407.4375 C-230.13703125 406.78201172 -229.4615625 406.12652344 -228.765625 405.45117188 C-224.84413194 401.66946229 -220.84974104 397.98512605 -216.6875 394.46875 C-214.2558757 392.35233626 -212.03508842 390.04479524 -209.77734375 387.74609375 C-207.93406426 385.93522357 -206.02177201 384.24678646 -204.0625 382.5625 C-201.25423653 380.14382221 -198.60029407 377.64100317 -196 375 C-192.7784145 371.72797872 -189.41407855 368.70683945 -185.93359375 365.71484375 C-183.43568444 363.4995262 -181.11975011 361.1310183 -178.78125 358.75 C-176.28103815 356.29365151 -173.62319484 354.03690632 -170.96875 351.75 C-169.06976929 350.06201714 -167.27994012 348.31230266 -165.5 346.5 C-162.46167583 343.40643357 -159.2523468 340.57894493 -155.96875 337.75 C-154.06976929 336.06201714 -152.27994012 334.31230266 -150.5 332.5 C-147.46167583 329.40643357 -144.2523468 326.57894493 -140.96875 323.75 C-139.06976929 322.06201714 -137.27994012 320.31230266 -135.5 318.5 C-133.10946833 316.06610268 -130.64953738 313.78644441 -128.0625 311.5625 C-125.25423653 309.14382221 -122.60029407 306.64100317 -120 304 C-116.7784145 300.72797872 -113.41407855 297.70683945 -109.93359375 294.71484375 C-107.43568444 292.4995262 -105.11975011 290.1310183 -102.78125 287.75 C-100.28103815 285.29365151 -97.62319484 283.03690632 -94.96875 280.75 C-93.06976929 279.06201714 -91.27994012 277.31230266 -89.5 275.5 C-86.46167583 272.40643357 -83.2523468 269.57894493 -79.96875 266.75 C-78.06976929 265.06201714 -76.27994012 263.31230266 -74.5 261.5 C-71.46167583 258.40643357 -68.2523468 255.57894493 -64.96875 252.75 C-62.46914539 250.52812924 -60.146839 248.1587623 -57.8046875 245.7734375 C-55.17433436 243.1886316 -52.39538237 240.78830219 -49.6015625 238.3828125 C-48.71147181 237.61429517 -47.83152881 236.83152881 -47 236 C-47.93152673 235.99853344 -48.86305346 235.99706688 -49.82280827 235.99555588 C-72.49092052 235.95895777 -95.15888507 235.89950405 -117.82687473 235.81609726 C-128.7889639 235.7762912 -139.75098112 235.74390664 -150.71313477 235.72900391 C-160.26796651 235.71599555 -169.82264005 235.68905166 -179.3773827 235.64538693 C-184.43637906 235.62275386 -189.49518015 235.60709043 -194.55423164 235.60811615 C-199.31739685 235.60886166 -204.08013007 235.59095439 -208.84318352 235.55883217 C-210.58984787 235.5503237 -212.33656062 235.54858967 -214.08323669 235.55419731 C-216.47225915 235.56084468 -218.85991014 235.54290068 -221.24879456 235.51898193 C-221.93655726 235.52674235 -222.62431996 235.53450277 -223.33292395 235.54249835 C-228.67967313 235.44803016 -231.67691546 233.92853941 -236 231 C-239.52511652 226.82551992 -240.80854438 223.45648528 -241 218 C-239.67419074 211.00936933 -236.58258318 207.3135675 -231.33203125 202.79296875 C-227.23254887 199.22727314 -223.26078102 195.54403197 -219.3125 191.8125 C-217.90402425 190.48657708 -216.49516522 189.16106119 -215.0859375 187.8359375 C-214.39467773 187.18592773 -213.70341797 186.53591797 -212.99121094 185.86621094 C-210.15444306 183.20752363 -207.29839962 180.57016954 -204.4375 177.9375 C-199.75162496 173.62451399 -195.08905654 169.28747405 -190.4375 164.9375 C-185.01855821 159.87096495 -179.56547918 154.84508902 -174.08984375 149.83984375 C-170.55943252 146.60353772 -167.06091361 143.33331669 -163.5625 140.0625 C-156.21062241 133.18891483 -148.81883527 126.35964235 -141.41601562 119.54101562 C-135.09149538 113.71436659 -128.78289688 107.87153586 -122.5 102 C-115.1681379 95.14817798 -107.79715043 88.33966877 -100.41601562 81.54101562 C-93.44931264 75.12273699 -86.50675108 68.67969615 -79.58642578 62.21142578 C-75.04615199 57.97002318 -70.48627185 53.75057412 -65.91625977 49.54125977 C-61.73989081 45.69119951 -57.58641328 41.81711262 -53.4375 37.9375 C-48.02516601 32.87718774 -42.58306389 27.85299342 -37.10546875 22.86328125 C-34.78964453 20.7421402 -32.5093816 18.5869069 -30.23828125 16.41796875 C-10.73580493 -2.17272243 -10.73580493 -2.17272243 0 0 Z " fill="#000000" transform="translate(371,36)"/>
</svg>
