<?xml version="1.0" encoding="UTF-8"?>
<svg version="1.1" xmlns="http://www.w3.org/2000/svg" width="512" height="512">
<path d="M0 0 C2.62113336 1.3875385 5.13234406 2.88141084 7.64697266 4.45361328 C8.56551025 5.003479 9.48404785 5.55334473 10.43041992 6.11987305 C13.11855816 7.73341352 15.78936551 9.37297042 18.45947266 11.01611328 C19.76506121 11.80020612 21.07215756 12.58179878 22.38134766 13.35986328 C24.76085338 14.77495184 27.13404777 16.19969129 29.50244141 17.63330078 C34.21849055 20.48159569 38.96441099 23.27901002 43.70947266 26.07861328 C52.02660518 30.98748861 60.33908224 35.90411064 68.64697266 40.82861328 C69.7790918 41.49965088 70.91121094 42.17068848 72.07763672 42.86206055 C74.3864241 44.23057944 76.69517344 45.59916248 79.00390625 46.96777344 C84.65537349 50.31787513 90.30746327 53.66692636 95.95947266 57.01611328 C102.18996064 60.70808677 108.42044168 64.40007167 114.65029907 68.09310913 C125.58288436 74.57389323 136.5164465 81.05296992 147.45947266 87.51611328 C156.65852338 92.94923413 165.85217798 98.39141886 175.04101562 103.84179688 C180.35894641 106.99583287 185.67832247 110.147245 191.00550842 113.28562927 C193.44612699 114.72367933 195.88564864 116.16358461 198.32510376 117.60360718 C200.02923878 118.60854167 201.73493099 119.61083409 203.44067383 120.61303711 C223.04727283 132.19171362 223.04727283 132.19171362 226.45947266 139.01611328 C226.5564728 140.57904665 226.59045503 142.14607988 226.59369373 143.71201706 C226.59815158 144.7085501 226.60260942 145.70508314 226.60720235 146.73181415 C226.60701799 147.83470696 226.60683363 148.93759977 226.60664368 150.07391357 C226.61032036 151.239285 226.61399705 152.40465643 226.61778516 153.60534215 C226.62692349 156.85009622 226.6315242 160.09482056 226.63417447 163.3395853 C226.63807337 166.83527477 226.647652 170.33094954 226.65638733 173.82662964 C226.67616373 182.27379906 226.68621955 190.72096971 226.69511512 199.1681565 C226.69949619 203.144202 226.70486348 207.12024615 226.71010399 211.09629059 C226.72711763 224.31046141 226.74161228 237.5246314 226.74885273 250.73881149 C226.75076269 254.16913606 226.75268301 257.59946062 226.75463867 261.02978516 C226.75512241 261.88239612 226.75560615 262.73500707 226.75610455 263.61345473 C226.76440661 277.42828267 226.78974588 291.24302407 226.82221935 305.05781421 C226.85527359 319.23504383 226.87330002 333.41222944 226.87649697 347.5894978 C226.87866362 355.55199628 226.88743471 363.51436856 226.91295815 371.47682953 C226.93464288 378.25749228 226.94272662 385.03799821 226.93299136 391.8186917 C226.92844008 395.27872681 226.93038031 398.7384382 226.94975281 402.19842911 C226.9673581 405.94935451 226.96042052 409.69945349 226.94721985 413.45037842 C226.95818909 414.54434834 226.96915834 415.63831827 226.98045999 416.7654388 C226.92861243 422.84972718 226.52371393 426.38716651 222.45947266 431.01611328 C218.75957793 434.44528401 215.88023776 435.31581077 210.95947266 435.51611328 C206.03870756 435.31581077 203.15936738 434.44528401 199.45947266 431.01611328 C194.77400921 425.60946366 194.90041697 420.93981229 194.97845459 413.96841431 C194.97503689 412.85256152 194.97161919 411.73670872 194.96809793 410.58704221 C194.96150724 406.84650413 194.983516 403.10668296 195.00537109 399.36621094 C195.00649931 396.6855406 195.00604237 394.00491423 195.00360107 391.32424927 C195.00150527 385.55223794 195.01403835 379.7804077 195.03655243 374.00844193 C195.06908253 365.66321517 195.07948046 357.31807584 195.0845044 348.97279255 C195.09325547 335.43265844 195.11986595 321.8926208 195.15771484 308.35253906 C195.19443979 295.20085126 195.22274918 282.04918968 195.23974609 268.89746094 C195.24079699 268.08657448 195.24184788 267.27568803 195.24293062 266.44022925 C195.24815083 262.37218584 195.25320565 258.30414225 195.25817823 254.23609853 C195.29963444 220.49603348 195.37007774 186.75608521 195.45947266 153.01611328 C194.69290344 152.71807297 193.92633423 152.42003265 193.13653564 152.11296082 C190.07785286 150.85975584 187.35498863 149.30670465 184.50634766 147.62939453 C183.65396515 147.12916023 183.65396515 147.12916023 182.78436279 146.61882019 C180.92397349 145.5255967 179.06668118 144.42723031 177.20947266 143.32861328 C175.90033963 142.55759015 174.59109326 141.78675944 173.28173828 141.01611328 C164.12964826 135.62285729 155.01660654 130.16546353 145.91748047 124.68334961 C137.96651657 119.90005275 129.97083828 115.1971483 121.95947266 110.51611328 C111.89942362 104.63803405 101.8853191 98.69033816 91.90600586 92.67578125 C83.41942458 87.56998946 74.87562098 82.5667111 66.32119751 77.57592773 C56.43607538 71.80479997 46.63853851 65.90007694 36.87176514 59.93121338 C28.69795159 54.93850103 20.46955362 50.09218669 12.07275391 45.48486328 C9.45947266 44.01611328 9.45947266 44.01611328 8.45947266 43.01611328 C8.45887557 43.82213537 8.45827848 44.62815746 8.4576633 45.45860445 C8.42178638 93.20689302 8.36517364 140.95511849 8.2815517 188.70334855 C8.27153398 194.43374253 8.2616899 200.16413679 8.25195312 205.89453125 C8.25001175 207.03537223 8.24807038 208.17621321 8.24607018 209.35162513 C8.21503061 227.83536796 8.19806407 246.31909837 8.18627843 264.80286236 C8.17387701 283.7622749 8.14639844 302.72162212 8.10485959 321.68099344 C8.07969531 333.3843802 8.06635751 345.08765869 8.06804308 356.79107289 C8.06807279 364.81142152 8.05348641 372.83165967 8.02730837 380.85196526 C8.01262902 385.48253692 8.004488 390.11288202 8.01366997 394.74347305 C8.0219314 398.98143008 8.01187265 403.21893107 7.98713604 407.45682029 C7.98143256 408.99122715 7.98249846 410.52567694 7.99096021 412.06007107 C8.00147225 414.14459242 7.98743784 416.22757269 7.96728134 418.31199074 C7.96576246 419.47013775 7.96424358 420.62828475 7.96267867 421.82152712 C7.16534497 426.88337285 4.58714312 429.97095529 0.89697266 433.39111328 C-3.96685168 435.69037569 -8.24942737 435.80347935 -13.54052734 435.01611328 C-18.68906415 432.44184488 -21.72253535 429.47008927 -23.54052734 424.01611328 C-23.63651244 421.7450602 -23.66969426 419.47121767 -23.67195511 417.19813824 C-23.67400774 416.49748758 -23.67606038 415.79683692 -23.67817521 415.07495442 C-23.68386345 412.70951336 -23.68238572 410.34413019 -23.68096924 407.97868347 C-23.68355183 406.27270243 -23.68656469 404.56672199 -23.68997264 402.86074239 C-23.69805833 398.15884954 -23.69983308 393.45697193 -23.70057011 388.75507295 C-23.70241793 383.68951975 -23.70996386 378.62397451 -23.71670532 373.5584259 C-23.73030004 362.47591058 -23.73631506 351.39339888 -23.74071598 340.31087661 C-23.74347633 333.39450424 -23.74771329 326.47813328 -23.75222015 319.56176186 C-23.76441403 300.42247575 -23.77471329 281.28319078 -23.77809525 262.14390087 C-23.77831481 260.91842455 -23.77853438 259.69294822 -23.7787606 258.43033626 C-23.77908801 256.58765914 -23.77908801 256.58765914 -23.77942204 254.70775622 C-23.77986552 252.21833813 -23.78031208 249.72892004 -23.78076172 247.23950195 C-23.78098315 246.0046578 -23.78120458 244.76981366 -23.78143272 243.49754999 C-23.78538209 223.48141139 -23.80283983 203.46530916 -23.82612124 183.44918462 C-23.8498162 162.91221385 -23.86229624 142.37526135 -23.86346316 121.83827668 C-23.86438094 110.30213428 -23.87015905 98.76603927 -23.88828278 87.2299099 C-23.9036587 77.40801863 -23.90881906 67.5861894 -23.90054467 57.76428839 C-23.89662934 52.7509428 -23.89761075 47.73772226 -23.91160202 42.72439194 C-23.92428798 38.1369259 -23.92319032 33.54967954 -23.91101131 28.96221403 C-23.90904508 27.30069846 -23.9121752 25.63916761 -23.92085567 23.97767355 C-23.9318961 21.72205143 -23.92449743 19.46721175 -23.91246414 17.21161175 C-23.91306123 15.95788255 -23.91365832 14.70415336 -23.9142735 13.41243237 C-23.36009827 8.37651189 -21.74747984 5.13254434 -18.04052734 1.70361328 C-12.65301077 -1.93296041 -6.03936138 -2.33890317 0 0 Z " fill="#000000" transform="translate(154.54052734375,38.98388671875)"/>
</svg>
