<?xml version="1.0" encoding="UTF-8"?>
<svg version="1.1" xmlns="http://www.w3.org/2000/svg" width="512" height="512">
<path d="M0 0 C3.59268132 2.91623505 5.46503427 5.30300783 6.8671875 9.765625 C7.0086697 12.69219403 7.04578151 15.51477703 6.97973633 18.4362793 C6.95728369 20.2233615 6.93497704 22.01044554 6.91279602 23.79753113 C6.89751673 24.74091024 6.88223743 25.68428936 6.86649513 26.65625572 C6.79418958 31.67358875 6.78430424 36.69122064 6.76367188 41.70898438 C6.73408917 48.08482866 6.68616556 54.45884184 6.5690918 60.83374023 C6.47594307 65.99496322 6.44678748 71.15315964 6.45947838 76.31516457 C6.45269097 78.27483784 6.42276587 80.23458051 6.36863136 82.19351768 C5.75394578 92.32197328 5.75394578 92.32197328 9.12582588 101.54303741 C12.58687413 105.06141115 16.59278694 107.36072568 20.8671875 109.765625 C22.65569957 111.088492 24.42732672 112.43506241 26.16796875 113.8203125 C27.83817986 115.0942245 29.50875612 116.36765789 31.1796875 117.640625 C32.08138672 118.32769531 32.98308594 119.01476562 33.91210938 119.72265625 C39.84132546 124.23575198 45.79161585 128.71932838 51.76000977 133.18041992 C58.32878879 138.09685312 64.84853817 143.07719119 71.37109375 148.0546875 C75.85665709 151.47632513 80.3477029 154.88892436 84.8671875 158.265625 C90.31169319 162.33344854 95.71437639 166.45512872 101.1171875 170.578125 C107.34836705 175.33280502 113.58899876 180.07317269 119.8671875 184.765625 C126.97643724 190.07930537 134.03458233 195.45867242 141.08984375 200.84375 C146.95507708 205.31737775 152.84336861 209.75818523 158.75195312 214.17431641 C165.3702298 219.12796574 171.94164493 224.14283252 178.51171875 229.16015625 C179.35089844 229.80082031 180.19007813 230.44148437 181.0546875 231.1015625 C181.79074219 231.66407715 182.52679688 232.2265918 183.28515625 232.80615234 C185.52740329 234.50776683 187.77632245 236.1997521 190.02856445 237.88809204 C190.74776566 238.42728586 191.46696686 238.96647968 192.20796204 239.52201271 C193.02927864 240.13760079 193.02927864 240.13760079 193.8671875 240.765625 C193.87077003 238.98815289 193.87077003 238.98815289 193.87442493 237.17477226 C193.93178465 209.04576543 194.0045151 180.9168288 194.09617378 152.78791254 C194.10744195 149.32573112 194.1185804 145.86354929 194.12963867 142.40136719 C194.13184236 141.71210904 194.13404604 141.02285089 194.1363165 140.31270613 C194.17168897 129.15231333 194.19655338 117.9919206 194.21753452 106.83149253 C194.23929699 95.37986943 194.27257421 83.92833315 194.31588906 72.47676861 C194.33985309 66.04458794 194.35856106 59.61248784 194.36480141 53.18026352 C194.3708378 47.12774968 194.39078557 41.0754421 194.42146301 35.02300453 C194.43026639 32.80021025 194.43396108 30.57738903 194.43219566 28.35457802 C194.43054725 25.32174761 194.44720582 22.28954924 194.46846008 19.25680542 C194.46118872 17.93480741 194.46118872 17.93480741 194.45377046 16.58610237 C194.52962953 10.03536373 195.9178167 5.90517832 200.4296875 0.953125 C204.4728727 -2.13695203 208.88794001 -2.6185762 213.8671875 -2.234375 C218.54325929 -0.9372455 221.24888912 1.00464238 224.3046875 4.765625 C226.79545852 9.54790537 226.99321946 13.27746537 226.99861526 18.66982651 C227.0006679 19.36765507 227.00272053 20.06548363 227.00483537 20.78445852 C227.01051194 23.13429773 227.00904731 25.48407846 227.00762939 27.83392334 C227.01021265 29.53109246 227.0132257 31.22826097 227.0166328 32.92542863 C227.02471065 37.59839778 227.0264928 42.27135157 227.02723026 46.94432688 C227.02907944 51.98058898 227.03662608 57.01684309 227.04336548 62.05310059 C227.05695474 73.06957737 227.0629744 84.08605052 227.06737614 95.10253429 C227.07013746 101.97922785 227.07437461 108.85592 227.07888031 115.73261261 C227.09107357 134.76642137 227.10137289 153.80022901 227.1047554 172.8340416 C227.10508475 174.66179588 227.10508475 174.66179588 227.10542075 176.52647449 C227.10563903 177.74791699 227.10585731 178.96935948 227.1060822 180.22781539 C227.10652567 182.7029837 227.10697223 185.17815201 227.10742188 187.65332031 C227.10775402 189.49497951 227.10775402 189.49497951 227.10809287 191.37384394 C227.11204165 211.27217046 227.12949783 231.17046038 227.1527814 251.06877276 C227.17648489 271.49052359 227.18895679 291.91225604 227.19012332 312.33402085 C227.19104063 323.80314263 227.19680695 335.27221672 227.21494293 346.74132538 C227.23033036 356.50677471 227.23547239 366.27216161 227.22720483 376.03762075 C227.22329357 381.02084239 227.22425119 386.00393825 227.23826218 390.98714447 C227.25097237 395.54938646 227.24982894 400.11140778 227.23767146 404.67364934 C227.23570947 406.32373059 227.23881604 407.97382731 227.24751583 409.62388679 C227.32417176 425.14624577 227.32417176 425.14624577 223.8671875 431.765625 C220.26386558 435.36894692 216.73609605 437.63366498 211.57421875 437.87109375 C205.85817404 437.63760932 202.46107369 436.38504027 198.2421875 432.53125 C195.13802373 428.54522152 194.62486895 424.73873045 194.70983887 419.79176331 C194.72468826 418.59348404 194.73953766 417.39520477 194.75483704 416.16061401 C194.78095566 414.85407867 194.80707428 413.54754333 194.83398438 412.20141602 C194.85416585 410.80470836 194.87319443 409.40798365 194.89115906 408.01124573 C194.93044988 405.00631762 194.9743393 402.00150225 195.02070618 398.99667549 C195.09056182 394.23323291 195.12790322 389.46988848 195.15661621 384.70603943 C195.16153721 383.9004698 195.16645822 383.09490017 195.17152834 382.26491934 C195.18632492 379.78403672 195.20064388 377.30315173 195.21484375 374.82226562 C195.27360616 364.57047762 195.35537372 354.32089655 195.54248047 344.07055664 C195.67886148 336.58674066 195.75054827 329.10535736 195.74847269 321.62025779 C195.74980414 317.66469527 195.78264255 313.71534302 195.89439392 309.76123238 C197.05936947 292.03961292 197.05936947 292.03961292 189.92085266 276.7769165 C186.21982745 273.59750511 182.28355275 271.12572911 177.96041393 268.88202953 C175.23192849 267.426815 172.87614155 265.61605827 170.47265625 263.6796875 C169.0010988 262.58185893 167.52846405 261.48547273 166.0546875 260.390625 C156.50476764 253.25988043 147.02033816 246.04565292 137.54785156 238.8125 C121.38311925 226.46100838 121.38311925 226.46100838 105.1328125 214.22265625 C100.60622325 210.82771431 96.11525533 207.38569308 91.6171875 203.953125 C85.38600795 199.19844498 79.14537624 194.45807731 72.8671875 189.765625 C66.67244251 185.13547469 60.51497528 180.45792361 54.3671875 175.765625 C47.01940934 170.15868273 39.65265558 164.57918355 32.25 159.04492188 C27.28687407 155.33277841 22.32897561 151.6136741 17.37109375 147.89453125 C16.45299927 147.20588989 15.53490479 146.51724854 14.58898926 145.80773926 C12.34835409 144.1270806 10.10775421 142.44637492 7.8671875 140.765625 C7.86621069 141.36639803 7.86523388 141.96717106 7.86422747 142.58614933 C7.80596876 178.18453996 7.73218209 213.78286537 7.63820122 249.38118006 C7.62693291 253.65451037 7.61579448 257.92784101 7.60473633 262.20117188 C7.60253264 263.05192322 7.60032896 263.90267457 7.5980585 264.77920626 C7.56267597 278.55854449 7.53781723 292.33788267 7.51684048 306.1172495 C7.49508604 320.25377 7.46203902 334.39023149 7.41848594 348.52670181 C7.39196306 357.25125523 7.37427238 365.9757351 7.36784146 374.70032685 C7.36258952 380.6812677 7.34637909 386.66211597 7.32152184 392.64300723 C7.30750013 396.0948499 7.2983385 399.54652681 7.30217934 402.99839973 C7.30382486 406.74059351 7.2871934 410.48227243 7.26591492 414.22439575 C7.27076249 415.31583897 7.27561007 416.40728218 7.28060454 417.53179944 C7.21305662 424.70845537 6.27220869 429.1259676 1.3046875 434.578125 C-2.7384977 437.66820203 -7.15356501 438.1498262 -12.1328125 437.765625 C-16.80888429 436.4684955 -19.51451412 434.52660762 -22.5703125 430.765625 C-25.06108352 425.98334463 -25.25884446 422.25378463 -25.26424026 416.86142349 C-25.2662929 416.16359493 -25.26834553 415.46576637 -25.27046037 414.74679148 C-25.27613694 412.39695227 -25.27467231 410.04717154 -25.27325439 407.69732666 C-25.27583765 406.00015754 -25.2788507 404.30298903 -25.2822578 402.60582137 C-25.29033565 397.93285222 -25.2921178 393.25989843 -25.29285526 388.58692312 C-25.29470444 383.55066102 -25.30225108 378.51440691 -25.30899048 373.47814941 C-25.32257974 362.46167263 -25.3285994 351.44519948 -25.33300114 340.42871571 C-25.33576246 333.55202215 -25.33999961 326.67533 -25.34450531 319.79863739 C-25.35669857 300.76482863 -25.36699789 281.73102099 -25.3703804 262.6972084 C-25.37059997 261.47870555 -25.37081953 260.26020269 -25.37104575 259.00477551 C-25.37126403 257.78333301 -25.37148231 256.56189052 -25.3717072 255.30343461 C-25.37215067 252.8282663 -25.37259723 250.35309799 -25.37304688 247.87792969 C-25.3732683 246.65015689 -25.37348973 245.42238409 -25.37371787 244.15740606 C-25.37766665 224.25907954 -25.39512283 204.36078962 -25.4184064 184.46247724 C-25.44210989 164.04072641 -25.45458179 143.61899396 -25.45574832 123.19722915 C-25.45666563 111.72810737 -25.46243195 100.25903328 -25.48056793 88.78992462 C-25.49595536 79.02447529 -25.50109739 69.25908839 -25.49282983 59.49362925 C-25.48891857 54.51040761 -25.48987619 49.52731175 -25.50388718 44.54410553 C-25.51659737 39.98186354 -25.51545394 35.41984222 -25.50329646 30.85760066 C-25.50133447 29.20751941 -25.50444104 27.55742269 -25.51314083 25.90736321 C-25.58979676 10.38500423 -25.58979676 10.38500423 -22.1328125 3.765625 C-16.05828148 -2.30890602 -7.78126423 -4.5034423 0 0 Z " fill="#000000" transform="translate(155.1328125,38.234375)"/>
</svg>
