<?xml version="1.0" encoding="UTF-8"?>
<svg version="1.1" xmlns="http://www.w3.org/2000/svg" width="512" height="512">
<path d="M0 0 C2.39064512 1.81689029 4.61211609 3.73937587 6.8359375 5.7578125 C8.29773438 7.07652344 8.29773438 7.07652344 9.7890625 8.421875 C11.86712164 10.31060205 13.93152384 12.21311243 15.98828125 14.125 C18.89794151 16.81513857 21.86030627 19.42968855 24.85546875 22.0234375 C27.14726905 24.03045788 29.39590502 26.08184101 31.6484375 28.1328125 C35.02534732 31.18640117 38.46810882 34.10210455 42.0234375 36.9453125 C48.08913968 41.84784736 53.71758727 47.18039287 59.390625 52.52734375 C62.50968704 55.46436263 65.68962971 58.31535558 68.9375 61.109375 C72.15292134 63.90136637 75.29123785 66.77935385 78.44140625 69.64453125 C80.84600994 71.76670188 83.32559006 73.76272906 85.8359375 75.7578125 C85.83736252 74.96125244 85.83878754 74.16469238 85.84025574 73.34399414 C85.85813691 65.81149182 85.89990051 58.27966909 85.96802807 50.74746704 C86.00221791 46.87567505 86.02739543 43.00427427 86.03149414 39.13232422 C86.03579453 35.39071747 86.06439872 31.64999199 86.10936928 27.90866089 C86.12228922 26.48628893 86.12667154 25.0638112 86.12209129 23.64138794 C86.10224147 15.60006494 86.0953357 8.87192745 91.8359375 2.7578125 C96.6894393 -0.85409581 101.98908146 -1.08969595 107.8359375 -0.2421875 C112.7124004 2.10573908 115.23931364 5.04542104 117.8359375 9.7578125 C119.11501441 14.28498984 118.91221654 18.81321392 118.8190918 23.47265625 C118.79300528 25.27017384 118.76753671 27.06770047 118.74259949 28.86523438 C118.7281951 29.81454834 118.7137907 30.7638623 118.69894981 31.74194336 C118.61861958 37.85751562 118.60665022 43.9736817 118.58384991 50.08969116 C118.56001784 55.45172342 118.5111612 60.81123717 118.4074707 66.17236328 C118.3082509 71.37265837 118.27850679 76.56936911 118.29441261 81.77053833 C118.28830477 83.74170128 118.2577082 85.71296008 118.20108604 87.68331909 C117.69716956 99.5763466 117.69716956 99.5763466 122.91641235 109.82397461 C125.81064828 112.70261146 128.91353925 115.20924378 132.22550392 117.58966064 C134.22055081 119.03679746 136.02780355 120.64794124 137.8359375 122.3203125 C140.20240718 124.3688982 142.58689452 126.39584306 144.97265625 128.421875 C152.1140058 134.49732164 159.09226382 140.70384229 165.95703125 147.08984375 C170.5273293 151.325276 175.22758413 155.39307441 179.9765625 159.42578125 C186.56013203 165.02573688 193.0295772 170.7114212 199.35546875 176.6015625 C202.80618914 179.81430218 206.30438135 182.95570664 209.8671875 186.04296875 C227.47578164 201.38061324 227.47578164 201.38061324 228.07421875 206.9921875 C228.24601089 212.81503687 227.94879982 217.36611205 223.8359375 221.7578125 C219.85156054 224.93429736 215.97701224 226.09537925 210.8984375 225.9453125 C204.83426219 224.98684102 201.24916562 221.83102777 196.8359375 217.7578125 C195.77874185 216.79546742 194.72144357 215.83323509 193.6640625 214.87109375 C191.39452178 212.79359109 189.13844911 210.70253227 186.890625 208.6015625 C182.27606674 204.29277132 177.50709511 200.17588229 172.6953125 196.08984375 C165.55483393 190.0161837 158.57826969 183.81053478 151.71484375 177.42578125 C148.15241406 174.12437083 144.52186931 170.919954 140.8359375 167.7578125 C140.05234863 167.08468018 140.05234863 167.08468018 139.25292969 166.39794922 C135.73616191 163.37733504 132.21579914 160.36095058 128.69308472 157.34727478 C126.83445123 155.75654046 124.97675493 154.1647189 123.11938477 152.57250977 C122.50096207 152.04238785 121.88253937 151.51226593 121.24537659 150.96607971 C120.78026169 150.56735153 120.31514679 150.16862335 119.8359375 149.7578125 C119.83447229 150.61917585 119.83447229 150.61917585 119.83297747 151.49794048 C119.77468681 185.54333891 119.70087594 219.58866574 119.60695122 253.63398432 C119.59568325 257.72319302 119.58454477 261.81240206 119.57348633 265.90161133 C119.57128264 266.71568837 119.56907896 267.52976541 119.5668085 268.36851145 C119.53145032 281.54443561 119.50657784 294.72035972 119.48559048 307.89631372 C119.46381664 321.41925351 119.43075118 334.94213181 119.38723594 348.46501929 C119.36074648 356.80723162 119.34303119 365.14936735 119.33659146 373.49161965 C119.33132929 379.21468013 119.31508451 384.93764428 119.29027184 390.66065311 C119.27628512 393.96098454 119.26870517 397.26111 119.27092934 400.56147575 C119.27258178 404.14498051 119.25588403 407.72795421 119.23466492 411.31138611 C119.24193628 412.86540608 119.24193628 412.86540608 119.24935454 414.45082039 C119.17912313 421.64650224 118.68400051 428.83480046 113.4609375 434.1953125 C112.5946875 434.7109375 111.7284375 435.2265625 110.8359375 435.7578125 C110.1140625 436.1909375 109.3921875 436.6240625 108.6484375 437.0703125 C103.53903723 438.31927701 98.33380475 438.20346461 93.703125 435.5234375 C90.09827562 432.59732545 88.34502566 430.18673063 86.8359375 425.7578125 C86.58754051 423.16832703 86.58754051 423.16832703 86.58984184 420.34804058 C86.58585975 419.2686829 86.58187765 418.18932521 86.57777488 417.07725972 C86.58651341 415.30732434 86.58651341 415.30732434 86.59542847 413.50163269 C86.59371962 412.24370999 86.59201077 410.98578729 86.59025013 409.68974572 C86.58577857 406.20071318 86.59377763 402.71180345 86.60380626 399.22278655 C86.6124412 395.45937647 86.60952056 391.69597335 86.60800171 387.93255615 C86.60695289 381.41302537 86.61322921 374.89353461 86.62447739 368.3740139 C86.64072978 358.94788101 86.64594013 349.52176748 86.64845337 340.0956221 C86.65283088 324.80242525 86.66614151 309.50924972 86.68505859 294.21606445 C86.70341594 279.35994575 86.71757316 264.50383284 86.72607422 249.64770508 C86.72659967 248.73201105 86.72712511 247.81631703 86.72766648 246.8728747 C86.73027655 242.27911803 86.73280397 237.68536133 86.73529029 233.09160459 C86.75602454 194.98032562 86.7912516 156.86907047 86.8359375 118.7578125 C86.2368457 118.48090576 85.63775391 118.20399902 85.02050781 117.91870117 C81.74600436 116.17861803 79.25224198 113.6066477 76.5859375 111.0703125 C75.41868399 109.97579923 74.25071821 108.88204505 73.08203125 107.7890625 C72.52112793 107.263125 71.96022461 106.7371875 71.38232422 106.1953125 C68.9041091 103.89159753 66.35131811 101.67848919 63.79296875 99.46484375 C61.450346 97.42147819 59.14320328 95.34100391 56.8359375 93.2578125 C51.51259057 88.45873458 46.14730411 83.717033 40.68359375 79.078125 C33.5457233 73.00983143 26.57424488 66.80679067 19.71484375 60.42578125 C15.1445457 56.190349 10.44429087 52.12255059 5.6953125 48.08984375 C-0.37103312 42.93030547 -6.37606784 37.72460448 -12.2265625 32.3203125 C-12.75016357 31.83667236 -13.27376465 31.35303223 -13.81323242 30.85473633 C-15.27181244 29.49796703 -16.71818699 28.12811268 -18.1640625 26.7578125 C-19.09089844 25.87996094 -20.01773438 25.00210938 -20.97265625 24.09765625 C-24.61648 20.20701378 -24.50474283 16.42075296 -24.4453125 11.33203125 C-23.99507057 7.21106689 -22.66608801 5.07130574 -20.1640625 1.7578125 C-14.17160726 -2.73652893 -6.66596925 -3.82631448 0 0 Z " fill="#000000" transform="translate(154.1640625,38.2421875)"/>
</svg>
