<?xml version="1.0" encoding="UTF-8"?>
<svg version="1.1" xmlns="http://www.w3.org/2000/svg" width="512" height="512">
<path d="M0 0 C1.30561013 0.70675244 2.60220318 1.43034686 3.890625 2.16796875 C4.61467529 2.56685303 5.33872559 2.9657373 6.0847168 3.37670898 C8.44685294 4.6856666 10.79447622 6.0180922 13.140625 7.35546875 C14.3164917 8.0196582 14.3164917 8.0196582 15.51611328 8.69726562 C20.73829587 11.64750778 25.94022875 14.6320964 31.13720703 17.62646484 C36.71585152 20.83797194 42.3028409 24.03490045 47.890625 27.23046875 C48.48204285 27.56881744 49.07346069 27.90716614 49.68280029 28.25576782 C59.15981945 33.67574123 68.67296161 39.02853984 78.20483398 44.3515625 C88.22338254 49.95028038 98.1848264 55.64614718 108.140625 61.35546875 C112.12609051 63.64010748 116.11218352 65.92364224 120.09939575 68.20523071 C121.28973803 68.88654171 122.47990445 69.56816005 123.66989136 70.25009155 C130.1809606 73.98065369 136.70540497 77.68301342 143.2734375 81.3125 C144.40813477 81.9410791 145.54283203 82.5696582 146.71191406 83.21728516 C148.85397024 84.40101972 150.99898746 85.57941796 153.14746094 86.75146484 C165.47898895 93.56820828 165.47898895 93.56820828 169.078125 99.60546875 C170.72791902 105.42827119 170.4353726 109.90983439 167.59375 115.27734375 C164.50446082 119.15371298 161.11201809 121.41646203 156.953125 124.04296875 C156.15720947 124.55915771 155.36129395 125.07534668 154.54125977 125.60717773 C152.88859757 126.67721976 151.23255395 127.74205656 149.57324219 128.80175781 C147.29935124 130.25409041 145.03463264 131.7194085 142.7734375 133.19140625 C139.27154774 135.46931878 135.76197755 137.73501986 132.24951172 139.99658203 C128.70972723 142.27748507 125.17547274 144.56692564 121.640625 146.85546875 C120.22398453 147.7721759 118.80731787 148.68884258 117.390625 149.60546875 C116.689375 150.05921875 115.988125 150.51296875 115.265625 150.98046875 C90.47395833 167.02213542 65.68229167 183.06380208 40.890625 199.10546875 C39.8372998 199.7871814 39.8372998 199.7871814 38.76269531 200.48266602 C37.35616144 201.39257628 35.94926446 202.30192552 34.54199219 203.21069336 C30.84200955 205.60108817 27.15017503 208.00298017 23.46875 210.421875 C22.70240234 210.92332031 21.93605469 211.42476562 21.14648438 211.94140625 C19.68188632 212.90005225 18.2195071 213.86209993 16.75976562 214.828125 C16.09654297 215.26125 15.43332031 215.694375 14.75 216.140625 C14.17217773 216.520979 13.59435547 216.90133301 12.99902344 217.29321289 C10.79145565 218.55505307 8.505848 219.42915484 6.140625 220.35546875 C6.14339038 221.40037759 6.14615576 222.44528643 6.14900494 223.52185917 C6.21559602 248.94377859 6.2648987 274.3656867 6.29606152 299.7876749 C6.31153207 312.08154461 6.33262528 324.37535672 6.36694336 336.66918945 C6.39683984 347.38416884 6.41619863 358.0991065 6.42289048 368.81412643 C6.42680229 374.48793352 6.4359997 380.16162125 6.45781517 385.83539009 C6.47818413 391.17624467 6.48445791 396.51693077 6.47994804 401.85782051 C6.48077305 403.81737178 6.4867362 405.77692871 6.49824142 407.73644638 C6.51319188 410.41419003 6.50956927 413.09129956 6.50138855 415.76905823 C6.51012707 416.54242179 6.5188656 417.31578535 6.52786893 418.11258417 C6.48559437 423.24054086 5.52695503 426.79401023 3.140625 431.35546875 C-0.39515199 434.79819897 -3.90648248 437.30616257 -8.96484375 437.390625 C-14.23239595 437.02886681 -17.84938183 435.9924393 -21.859375 432.35546875 C-27.0855814 424.73895499 -26.41937765 416.6147329 -26.36730957 407.73022461 C-26.37192089 406.02134896 -26.37827535 404.31247727 -26.38621855 402.60361385 C-26.40290331 397.91677369 -26.39466936 393.23025968 -26.38227367 388.54341841 C-26.37322204 383.48539498 -26.38719348 378.42742757 -26.39819336 373.36941528 C-26.41598192 363.46433453 -26.41213707 353.559375 -26.4005428 343.65428948 C-26.39151009 335.60438559 -26.39028377 327.55451567 -26.39463806 319.50460815 C-26.39525099 318.3590023 -26.39586393 317.21339645 -26.39649543 316.03307527 C-26.39777433 313.70581538 -26.39907118 311.37855551 -26.4003858 309.05129564 C-26.41179259 287.22741416 -26.39867632 265.40359989 -26.37718433 243.57972944 C-26.35931328 224.85292399 -26.36241735 206.12621772 -26.38085938 187.39941406 C-26.40226432 165.65374525 -26.41069394 143.90813534 -26.39841032 122.16245747 C-26.39713612 119.8437481 -26.39587864 117.52503873 -26.39463806 115.20632935 C-26.39402096 114.06547329 -26.39340386 112.92461724 -26.39276806 111.74918979 C-26.38931403 103.70874521 -26.39514464 95.66833797 -26.40455627 87.62789917 C-26.41577343 77.8295787 -26.41274209 68.03138641 -26.3914333 58.23308063 C-26.38091915 53.23360435 -26.37680737 48.23434181 -26.39002991 43.2348671 C-26.40195193 38.65790531 -26.3953943 34.08135533 -26.3741197 29.50443089 C-26.36965285 27.84909189 -26.37192179 26.19371808 -26.38162285 24.53840148 C-26.46572134 8.99576359 -26.46572134 8.99576359 -21.859375 2.35546875 C-14.86380243 -3.21243595 -8.0513454 -3.90183814 0 0 Z M6.140625 41.35546875 C6.140625 89.20546875 6.140625 137.05546875 6.140625 186.35546875 C9.68410964 184.9380749 11.95005496 183.97506919 14.9296875 181.8984375 C15.6827417 181.37878418 16.4357959 180.85913086 17.21166992 180.32373047 C18.0544751 179.7360791 18.89728027 179.14842773 19.765625 178.54296875 C21.75297619 177.17312886 23.74135269 175.80477589 25.73046875 174.4375 C26.28916153 174.05299683 26.84785431 173.66849365 27.42347717 173.27233887 C35.11004284 167.98951548 42.85163322 162.78785581 50.58706665 157.57699585 C53.34320243 155.72031177 56.09879713 153.86282724 58.85424805 152.00512695 C67.66754297 146.06366213 76.48263153 140.12486305 85.29875183 134.18759155 C89.26990905 131.51293039 93.24053904 128.83748719 97.21109009 126.16192627 C100.03431367 124.25998347 102.85833496 122.35922921 105.68237305 120.45849609 C107.40678045 119.29661205 109.13114785 118.13466865 110.85546875 116.97265625 C111.63887634 116.4458728 112.42228394 115.91908936 113.22943115 115.37634277 C113.95285706 114.8884729 114.67628296 114.40060303 115.42163086 113.89794922 C116.04694199 113.47689911 116.67225311 113.055849 117.31651306 112.62203979 C117.91847 112.20407135 118.52042694 111.78610291 119.140625 111.35546875 C119.87732925 110.84928009 120.61403351 110.34309143 121.37306213 109.82156372 C121.95635788 109.33775238 122.53965363 108.85394104 123.140625 108.35546875 C123.140625 107.69546875 123.140625 107.03546875 123.140625 106.35546875 C122.3878125 105.94409668 121.635 105.53272461 120.859375 105.10888672 C107.82803904 97.97842118 94.81705624 90.83128712 82.015625 83.29296875 C72.43532126 77.65152949 62.75472598 72.21306233 53.02416992 66.83544922 C45.92983612 62.91245246 38.8625558 58.94741251 31.828125 54.91796875 C30.98056641 54.43279785 30.13300781 53.94762695 29.25976562 53.44775391 C25.43490461 51.25488399 21.61585094 49.05252703 17.8046875 46.8359375 C17.14766846 46.4555835 16.49064941 46.07522949 15.8137207 45.68334961 C14.09381041 44.68697066 12.37684864 43.68550675 10.66015625 42.68359375 C8.32044302 41.20003155 8.32044302 41.20003155 6.140625 41.35546875 Z " fill="#000000" transform="translate(183.859375,38.64453125)"/>
</svg>
