<?xml version="1.0" encoding="UTF-8"?>
<svg version="1.1" xmlns="http://www.w3.org/2000/svg" width="512" height="512">
<path d="M0 0 C1.07580724 -0.00233999 1.07580724 -0.00233999 2.17334795 -0.00472724 C4.59251454 -0.00873499 7.01161901 -0.00554745 9.43078613 -0.00241089 C11.16320838 -0.00376589 12.89563034 -0.00554638 14.62805176 -0.00772095 C19.36829511 -0.01230791 24.10851684 -0.0104942 28.8487606 -0.00734186 C33.88037547 -0.00479595 38.91198857 -0.00716463 43.94360352 -0.00872803 C52.47188644 -0.01055525 61.00016077 -0.00814152 69.52844238 -0.00338745 C78.12740654 0.00135292 86.72635332 0.00152497 95.32531738 -0.00338745 C162.54130702 -0.04074064 229.7348114 0.31655261 296.93115234 2.06448364 C300.3124237 2.1511265 303.69381226 2.23268337 307.07520294 2.31451416 C315.7521085 2.52491073 324.42819775 2.75488854 333.10388184 3.01077271 C335.67201499 3.08634548 338.24000761 3.15515019 340.80847168 3.21975708 C343.94947467 3.29996632 347.08933741 3.39759402 350.22961426 3.50198364 C351.53699554 3.53002075 351.53699554 3.53002075 352.87078857 3.55862427 C356.15364083 3.6855924 358.69157653 3.90339156 361.62902832 5.43557739 C363.92970755 8.04512319 363.86551918 10.75194256 364.12023926 14.12698364 C365.21980957 13.91042114 366.31937988 13.69385864 367.45227051 13.47073364 C387.7775466 9.58894666 387.7775466 9.58894666 395.12023926 12.18948364 C401.92675009 18.78329101 401.14636377 29.30437106 401.28820801 38.09573364 C401.3000371 40.60613088 401.30644921 43.11655887 401.30773926 45.62698364 C401.31998535 46.88124146 401.33223145 48.13549927 401.34484863 49.42776489 C401.37178377 66.57647114 401.37178377 66.57647114 397.49523926 72.68948364 C391.71640412 76.18719965 384.54290442 75.12005683 378.12023926 74.31448364 C377.36484863 74.23133911 376.60945801 74.14819458 375.83117676 74.06253052 C370.79368641 73.46963002 366.01756296 72.44592196 361.12023926 71.12698364 C360.46023926 73.10698364 359.80023926 75.08698364 359.12023926 77.12698364 C358.35711426 77.25073364 357.59398926 77.37448364 356.80773926 77.50198364 C354.71874164 77.85605104 352.63172132 78.22438981 350.55383301 78.63870239 C344.95754529 79.73616633 339.82170005 80.34213311 334.12023926 80.12698364 C334.27438293 81.18637146 334.42852661 82.24575928 334.58734131 83.33724976 C335.30680878 89.12919153 335.45774632 94.93346963 335.64660645 100.76272583 C335.689002 102.01014809 335.73139755 103.25757034 335.77507782 104.54279327 C335.9118867 108.66964614 336.04089356 112.79667207 336.16711426 116.92385864 C336.18922816 117.63717315 336.21134207 118.35048765 336.23412609 119.08541775 C337.23362201 151.41292089 337.4389624 183.72282866 337.37758255 216.06361771 C337.3695123 220.4557409 337.3664643 224.84786093 337.36386108 229.23999023 C337.34066722 263.06251087 337.24083305 296.88045376 336.18273926 330.68948364 C336.16099136 331.39114151 336.13924347 332.09279938 336.11683655 332.8157196 C335.97692226 337.27549159 335.82213822 341.73452529 335.65539551 346.19338989 C335.59748589 347.76749382 335.59748589 347.76749382 335.53840637 349.37339783 C335.34248933 354.0359667 335.04434007 358.53839517 334.12023926 363.12698364 C334.84614258 363.11127319 335.5720459 363.09556274 336.31994629 363.07937622 C339.62829714 363.01678009 342.93652307 362.97791453 346.24523926 362.93948364 C347.95840332 362.90177856 347.95840332 362.90177856 349.70617676 362.86331177 C360.48383994 362.76932052 360.48383994 362.76932052 365.12023926 366.12698364 C367.13628947 369.39437537 368.24822028 372.42290303 369.12023926 376.12698364 C369.91945801 375.98260864 370.71867676 375.83823364 371.54211426 375.68948364 C391.54448168 372.30880182 391.54448168 372.30880182 397.30773926 376.37698364 C399.81740419 380.18475113 400.24246332 383.20561295 400.28137207 387.70852661 C400.29097961 388.60981293 400.30058716 389.51109924 400.31048584 390.43969727 C400.31686066 391.88978683 400.31686066 391.88978683 400.32336426 393.36917114 C400.32906433 394.37029938 400.3347644 395.37142761 400.34063721 396.40289307 C400.35007573 398.51940864 400.35661662 400.63593882 400.36047363 402.75247192 C400.37018233 405.98303947 400.40121818 409.2129715 400.43273926 412.44338989 C400.43926944 414.50197987 400.44451985 416.56057439 400.44836426 418.61917114 C400.46071106 419.58184906 400.47305786 420.54452698 400.48577881 421.53637695 C400.46830323 426.82133202 400.1171968 430.56992207 397.12023926 435.12698364 C391.14193423 439.45224383 381.69645103 437.16073872 374.93273926 436.12698364 C372.99382947 435.80195104 371.05576009 435.47162328 369.12023926 435.12698364 C368.81086426 436.95229614 368.81086426 436.95229614 368.49523926 438.81448364 C367.85364632 442.59988198 366.05520744 444.6637817 363.07817638 447.05150998 C359.12659795 449.22206923 354.77791973 448.79922153 350.37635803 448.74171448 C349.29174363 448.74739773 348.20712922 448.75308099 347.08964771 448.75893646 C343.4504486 448.77186466 339.81235642 448.74902112 336.17321777 448.72634888 C333.56162788 448.72821326 330.95003876 448.73225061 328.3384552 448.73829651 C321.95988528 448.74898666 315.58164513 448.73296473 309.20312537 448.70815825 C301.69915653 448.68003693 294.19525221 448.67888444 286.69123947 448.67871524 C273.2050199 448.6775254 259.71894835 448.65254319 246.23278809 448.61404419 C233.33010047 448.57723714 220.42752089 448.5555835 207.52478027 448.55252075 C205.94023724 448.55210823 204.35569421 448.55169541 202.77115119 448.55128229 C201.9883257 448.55108067 201.20550021 448.55087905 200.39895274 448.55067132 C199.61725647 448.55046778 198.8355602 448.55026425 198.03017616 448.55005455 C196.85956213 448.54975624 196.85956213 448.54975624 195.66529933 448.54945191 C85.9587064 448.51775788 85.9587064 448.51775788 35.52258301 447.16213989 C34.31918585 447.12992344 34.31918585 447.12992344 33.09147763 447.09705615 C27.96780221 446.95824229 22.84457976 446.80783636 17.72155762 446.64675903 C16.52221273 446.60955057 15.32286785 446.57234211 14.08717918 446.53400612 C10.76358988 446.41991502 7.44244942 446.27545057 4.12023926 446.12698364 C2.85125856 446.0891873 1.58227787 446.05139095 0.27484322 446.01244926 C-0.98482828 445.95702524 -2.24449978 445.90160122 -3.54234314 445.84449768 C-5.25510264 445.78192355 -5.25510264 445.78192355 -7.00246334 445.71808529 C-9.87976074 445.12698364 -9.87976074 445.12698364 -11.76413059 443.31651402 C-13.34333939 440.21716642 -13.07704535 437.54658355 -12.87976074 434.12698364 C-14.26034668 434.45182739 -14.26034668 434.45182739 -15.66882324 434.78323364 C-37.38383128 439.55965089 -37.38383128 439.55965089 -43.82897949 436.07229614 C-46.15561413 433.81899383 -47.79502325 431.34722558 -48.02020264 428.10458374 C-48.02703064 427.27440735 -48.03385864 426.44423096 -48.04089355 425.58889771 C-48.05530487 424.17667938 -48.05530487 424.17667938 -48.07000732 422.7359314 C-48.07638214 421.20473663 -48.07638214 421.20473663 -48.08288574 419.64260864 C-48.08858582 418.59425842 -48.09428589 417.5459082 -48.10015869 416.46578979 C-48.10961808 414.24316418 -48.11614639 412.02052449 -48.11999512 409.79788208 C-48.12968154 406.40472734 -48.16068866 403.01218313 -48.19226074 399.61917114 C-48.19879263 397.46032057 -48.20404237 395.30146567 -48.20788574 393.14260864 C-48.22023254 392.12990906 -48.23257935 391.11720947 -48.24530029 390.07382202 C-48.22830473 384.67071436 -47.96242852 380.77894924 -44.87976074 376.12698364 C-39.80116351 372.15789977 -31.04412674 373.65229023 -24.87976074 374.12698364 C-19.48961415 374.83435495 -14.18252918 375.94232261 -8.87976074 377.12698364 C-8.87976074 375.47698364 -8.87976074 373.82698364 -8.87976074 372.12698364 C-1.91646817 369.36567797 3.78645394 368.08205849 11.32336426 368.10745239 C12.95 368.11168213 12.95 368.11168213 14.60949707 368.11599731 C15.43804199 368.1196228 16.26658691 368.12324829 17.12023926 368.12698364 C17.0906418 367.49449235 17.06104435 366.86200106 17.03055 366.21034336 C16.06302015 344.74104482 15.97099347 323.29981961 15.98591375 301.81251025 C15.98850233 296.89040247 15.98608136 291.96829624 15.98452759 287.04618835 C15.98272047 278.76509258 15.98506942 270.48400578 15.98986816 262.20291138 C15.99467234 253.81846532 15.99471324 245.43403709 15.98986816 237.04959106 C15.94473853 156.7898666 15.94473853 156.7898666 16.56555176 126.03713989 C16.584967 125.06012053 16.60438225 124.08310116 16.62438583 123.07647514 C16.88763882 110.41297419 17.42793406 97.77398624 18.12023926 85.12698364 C17.37870605 85.20400513 16.63717285 85.28102661 15.87316895 85.36038208 C-6.18659419 87.59832906 -6.18659419 87.59832906 -13.59069824 81.78323364 C-15.85696129 78.871429 -15.58431501 75.73142153 -15.87976074 72.12698364 C-16.89038574 72.43635864 -17.90101074 72.74573364 -18.94226074 73.06448364 C-26.24409301 74.86708266 -34.97061351 76.53110455 -42.15319824 73.95120239 C-45.28925209 71.85301164 -46.44640224 70.61210616 -47.87976074 67.12698364 C-48.25380954 64.25166196 -48.48260995 61.57096008 -48.56726074 58.68948364 C-48.5999707 57.89034546 -48.63268066 57.09120728 -48.66638184 56.26785278 C-48.75619937 53.88768807 -48.82301771 51.5081464 -48.87976074 49.12698364 C-48.90940918 47.90753052 -48.93905762 46.68807739 -48.96960449 45.43167114 C-49.00551821 41.99193547 -48.96573233 38.56584697 -48.87976074 35.12698364 C-48.861875 34.41026489 -48.84398926 33.69354614 -48.82556152 32.95510864 C-48.75863323 30.65707455 -48.66704793 28.36130932 -48.56726074 26.06448364 C-48.54486328 25.34961792 -48.52246582 24.6347522 -48.49938965 23.89822388 C-48.26987852 19.52453101 -47.5695892 16.60906562 -44.87976074 13.12698364 C-38.43098224 8.82779798 -31.65510905 10.34416733 -24.44226074 11.56448364 C-23.51993652 11.7120813 -22.5976123 11.85967896 -21.64733887 12.01174927 C-19.38982582 12.37435499 -17.13428048 12.74628413 -14.87976074 13.12698364 C-14.76503418 12.03128052 -14.65030762 10.93557739 -14.53210449 9.80667114 C-13.74242242 5.35229682 -12.3054564 3.96780444 -8.87976074 1.12698364 C-5.92697884 -0.34940731 -3.29717384 0.00096484 0 0 Z M337.24523926 18.62698364 C336.09281738 18.71979614 334.94039551 18.81260864 333.75305176 18.90823364 C332.44980957 19.01651489 332.44980957 19.01651489 331.12023926 19.12698364 C331.78903159 37.53663403 331.78903159 37.53663403 332.62023926 55.93948364 C332.65560791 56.70172241 332.69097656 57.46396118 332.72741699 58.2492981 C332.92025733 61.96052515 333.26673715 65.50671221 334.12023926 69.12698364 C336.34874203 69.46472696 338.57807393 69.79700234 340.80773926 70.12698364 C342.66979004 70.40542114 342.66979004 70.40542114 344.56945801 70.68948364 C347.47910297 71.04798775 350.19723948 71.2164062 353.12023926 71.12698364 C352.9210791 69.2842688 352.9210791 69.2842688 352.71789551 67.40432739 C351.04153266 50.99244989 350.51675433 34.60976065 350.12023926 18.12698364 C345.79629657 18.10576184 341.55603135 18.27508225 337.24523926 18.62698364 Z M222.48960137 19.73277092 C216.45260552 19.81002133 210.41557852 19.8847286 204.37855151 19.95949322 C192.46177302 20.10715352 180.54502521 20.25714855 168.6282959 20.40872192 C157.08762159 20.55550686 145.54693347 20.70112368 134.00622559 20.84524536 C132.92993087 20.85868684 132.92993087 20.85868684 131.83189283 20.87239987 C128.23041695 20.91737052 124.6289408 20.96231901 121.02746451 21.00725651 C91.39167924 21.37706604 61.75594372 21.75075127 32.12023926 22.12698364 C32.38136203 27.62652563 32.64801057 33.12576119 32.9197998 38.62478638 C33.01149259 40.49580609 33.10167081 42.36690066 33.19030762 44.23806763 C33.31792135 46.92651111 33.45096663 49.61463894 33.58508301 52.30276489 C33.62366928 53.14035843 33.66225555 53.97795197 33.70201111 54.84092712 C33.87077465 58.13707871 34.07120009 60.97986615 35.12023926 64.12698364 C36.04577512 64.13544752 36.97131098 64.1439114 37.92489338 64.15263176 C60.8588551 64.36266436 83.79273387 64.58048641 106.72655201 64.80566216 C117.81893339 64.9144073 128.91132642 65.02093374 140.00378418 65.12161255 C152.86168645 65.23863317 165.71951455 65.36200906 178.57727051 65.49417114 C180.15878898 65.51040984 180.15878898 65.51040984 181.77225733 65.52697659 C214.64879724 65.86827555 247.50850747 66.48901176 280.37214661 67.47290039 C281.47129245 67.50561145 281.47129245 67.50561145 282.59264326 67.53898335 C285.95589727 67.6393615 289.31899514 67.74240345 292.68200493 67.85078812 C300.83067537 68.10291419 308.96784501 68.17148926 317.12023926 68.12698364 C317.90339428 64.39782937 318.30290733 60.88876931 318.43664551 57.07620239 C318.47854004 55.90122192 318.52043457 54.72624146 318.56359863 53.51565552 C318.62257324 51.68357544 318.62257324 51.68357544 318.68273926 49.81448364 C318.72592285 48.63563599 318.76910645 47.45678833 318.81359863 46.24221802 C319.03663489 39.71044206 319.14607133 33.19249556 319.13171387 26.65750122 C319.13088554 25.92826698 319.13005722 25.19903275 319.1292038 24.4477005 C319.12706844 22.67412698 319.12377688 20.90055492 319.12023926 19.12698364 C286.90531306 19.01639264 254.70161754 19.31776972 222.48960137 19.73277092 Z M7.12023926 22.12698364 C7.12023926 35.98698364 7.12023926 49.84698364 7.12023926 64.12698364 C10.75023926 64.12698364 14.38023926 64.12698364 18.12023926 64.12698364 C19.42944429 60.19936854 19.35486794 56.40127733 19.43664551 52.30276489 C19.46781715 51.01066353 19.46781715 51.01066353 19.49961853 49.69245911 C19.56498835 46.9415482 19.62394057 44.19054208 19.68273926 41.43948364 C19.72593643 39.57423943 19.76955111 37.70900484 19.81359863 35.84378052 C19.92065688 31.2716124 20.0219598 26.69934854 20.12023926 22.12698364 C15.83023926 22.12698364 11.54023926 22.12698364 7.12023926 22.12698364 Z M363.12023926 29.12698364 C363.12023926 38.36698364 363.12023926 47.60698364 363.12023926 57.12698364 C371.16139045 56.41072241 371.16139045 56.41072241 379.12023926 55.12698364 C379.12023926 47.20698364 379.12023926 39.28698364 379.12023926 31.12698364 C369.16373765 28.97791244 369.16373765 28.97791244 363.12023926 29.12698364 Z M-26.87976074 31.12698364 C-26.87976074 39.04698364 -26.87976074 46.96698364 -26.87976074 55.12698364 C-22.91976074 55.45698364 -18.95976074 55.78698364 -14.87976074 56.12698364 C-14.87976074 47.21698364 -14.87976074 38.30698364 -14.87976074 29.12698364 C-18.93493576 29.12698364 -22.90333448 30.33169839 -26.87976074 31.12698364 Z M249.0244751 81.92462158 C239.35745926 82.16777707 229.68999111 82.39226312 220.02258301 82.61917114 C219.06214836 82.64180841 218.10171371 82.66444569 217.11217499 82.68776894 C156.79005388 84.10868154 96.45524732 84.57656957 36.12023926 85.12698364 C36.00435352 98.32513382 36.12777312 111.50152895 36.53810692 124.69321442 C37.36354489 151.57507517 37.31645161 178.46163081 37.30809021 205.35384798 C37.30761826 208.07448529 37.30850715 210.79512153 37.30935872 213.51575869 C37.32070979 253.97116376 36.85381206 294.37970622 35.42732239 334.81176758 C35.06379902 345.5859192 35.01874402 356.34804873 35.12023926 367.12698364 C48.18362558 367.23941955 61.22995382 367.09994777 74.28820801 366.72463989 C75.01013462 366.70390789 75.73206123 366.68317589 76.47586441 366.66181564 C81.75329568 366.50896007 87.03052487 366.34962353 92.30773926 366.18948364 C143.5313689 364.64051623 194.74835985 363.9418274 245.99224502 363.6095739 C253.77796363 363.55896477 261.56365439 363.50452957 269.34934568 363.44990242 C285.27295092 363.33825595 301.19658227 363.23100619 317.12023926 363.12698364 C317.09060089 362.06466522 317.06096252 361.0023468 317.03042603 359.90783691 C315.90903272 318.41124726 315.96567068 276.91592828 315.99167085 235.40776801 C315.99544879 228.6671955 315.99407454 221.92663765 315.98986816 215.18606567 C315.94199313 136.67781813 315.94199313 136.67781813 316.96990013 103.2205677 C317.18270883 95.85630633 317.1645057 88.49356059 317.12023926 81.12698364 C294.40808557 80.97852028 271.72880323 81.35261876 249.0244751 81.92462158 Z M-1.87976074 378.12698364 C-1.7469873 379.60682739 -1.61421387 381.08667114 -1.47741699 382.61135864 C-0.07940474 398.77571014 0.66139442 414.91044126 1.12023926 431.12698364 C7.39023926 431.12698364 13.66023926 431.12698364 20.12023926 431.12698364 C19.62697973 414.11477754 19.11144231 397.11903602 18.12023926 380.12698364 C11.52023926 379.46698364 4.92023926 378.80698364 -1.87976074 378.12698364 Z M34.12023926 380.12698364 C33.83136998 384.99736838 33.54560778 389.86789108 33.26574707 394.73880005 C33.17018819 396.38927505 33.07322736 398.03966959 32.97473145 399.68997192 C32.83186791 402.0880384 32.69437254 404.48636748 32.55773926 406.88479614 C32.5139917 407.5999942 32.47024414 408.31519226 32.4251709 409.05206299 C32.03441574 416.07533666 32.08072953 423.09480006 32.12023926 430.12698364 C63.15058133 430.24030124 94.15565106 430.02390473 125.17947388 429.38619995 C135.59326067 429.17214776 146.00735838 428.97402927 156.42144966 428.77544022 C158.8847031 428.72845319 161.34795358 428.68131051 163.8112011 428.63401413 C195.79245107 428.02095169 227.77553256 427.52673319 259.75884151 427.03540325 C262.6636429 426.99074737 265.56844219 426.94595567 268.47324139 426.90115786 C285.35553906 426.64079938 302.23786768 426.38250896 319.12023926 426.12698364 C319.12523634 423.60077672 319.12885799 421.07457989 319.13171387 418.54837036 C319.13325218 417.84173752 319.1347905 417.13510468 319.13637543 416.40705872 C319.14177727 410.0147299 318.95808502 403.63836141 318.68273926 397.25198364 C318.64342285 396.19624146 318.60410645 395.14049927 318.56359863 394.05276489 C318.5217041 393.04858521 318.47980957 392.04440552 318.43664551 391.00979614 C318.39998779 390.11663696 318.36333008 389.22347778 318.32556152 388.30325317 C318.24816392 386.08181305 318.24816392 386.08181305 317.12023926 384.12698364 C284.53372628 383.6152354 251.94718375 383.10542145 219.36059916 382.59825456 C215.50101934 382.53818365 211.64143977 382.47809648 207.78186035 382.41799927 C207.01358658 382.40603681 206.2453128 382.39407435 205.453758 382.38174939 C193.06392415 382.18879401 180.67411122 381.99452657 168.28430569 381.79976201 C155.54219149 381.59948892 142.80005541 381.40065419 130.05789852 381.20311546 C122.21475139 381.08148079 114.37162279 380.95876491 106.52851528 380.83460188 C100.48329998 380.73902216 94.4380551 380.64545737 88.39279747 380.55258942 C85.93565558 380.51454044 83.4785232 380.47587055 81.02140236 380.43648529 C65.38633151 380.18632951 49.75733142 380.07586902 34.12023926 380.12698364 Z M333.12023926 385.12698364 C332.46023926 398.65698364 331.80023926 412.18698364 331.12023926 426.12698364 C336.07023926 426.12698364 341.02023926 426.12698364 346.12023926 426.12698364 C346.12023926 412.59698364 346.12023926 399.06698364 346.12023926 385.12698364 C341.83023926 385.12698364 337.54023926 385.12698364 333.12023926 385.12698364 Z M-21.06726074 392.12698364 C-22.60700562 392.39188599 -22.60700562 392.39188599 -24.17785645 392.66213989 C-25.06948486 392.81553833 -25.96111328 392.96893677 -26.87976074 393.12698364 C-26.90863058 397.10613523 -26.9265148 401.08526018 -26.94226074 405.06448364 C-26.95063965 406.20079224 -26.95901855 407.33710083 -26.96765137 408.50784302 C-26.97087402 409.58743286 -26.97409668 410.66702271 -26.97741699 411.77932739 C-26.98265381 412.77955933 -26.98789062 413.77979126 -26.99328613 414.81033325 C-27.14157169 417.08905592 -27.14157169 417.08905592 -25.87976074 418.12698364 C-23.52988812 418.36226137 -21.17420035 418.54084781 -18.81726074 418.68948364 C-16.52788574 418.83385864 -14.23851074 418.97823364 -11.87976074 419.12698364 C-11.87976074 409.88698364 -11.87976074 400.64698364 -11.87976074 391.12698364 C-15.06446416 391.12698364 -17.92999981 391.58723983 -21.06726074 392.12698364 Z M368.12023926 392.12698364 C368.12023926 401.03698364 368.12023926 409.94698364 368.12023926 419.12698364 C371.75023926 418.79698364 375.38023926 418.46698364 379.12023926 418.12698364 C379.12023926 409.87698364 379.12023926 401.62698364 379.12023926 393.12698364 C375.49023926 392.79698364 371.86023926 392.46698364 368.12023926 392.12698364 Z " fill="#000000" transform="translate(79.8797607421875,31.873016357421875)"/>
<path d="M0 0 C3.09552885 2.16199034 5.53574869 4.77111411 8.0625 7.5625 C8.73732422 8.27341797 9.41214844 8.98433594 10.10742188 9.71679688 C11.75802351 11.46104967 13.38698401 13.22105556 15 15 C19.62216753 11.11571598 23.94146422 7.11039606 28.10546875 2.734375 C30.82478787 0.24493647 33.15453964 -0.82706493 36.75 -1.5625 C45.89086773 0.01957326 52.4804212 11.11183712 58 18 C61.61783129 16.45427531 64.08171063 14.2422777 66.9375 11.5625 C73.23315868 5.65606287 73.23315868 5.65606287 77 4 C82.77633517 4.23298506 85.3490024 5.60563082 89.35546875 9.69921875 C90.05885124 10.40822075 90.05885124 10.40822075 90.77644348 11.13154602 C91.76066639 12.12914757 92.73770099 13.1338874 93.70776367 14.14526367 C95.17993929 15.67961994 96.67226945 17.19171336 98.16992188 18.70117188 C109.64486963 30.39571062 109.64486963 30.39571062 110.375 35.75 C110 38 110 38 108 40 C104.40693828 40.44724824 102.50272841 40.28255539 99.32421875 38.49609375 C98.45410156 37.81675781 97.58398438 37.13742187 96.6875 36.4375 C95.74132812 35.715625 94.79515625 34.99375 93.8203125 34.25 C92.01127632 32.80678 90.21326409 31.34956788 88.4296875 29.875 C87.64851562 29.235625 86.86734375 28.59625 86.0625 27.9375 C85.37285156 27.34839844 84.68320312 26.75929688 83.97265625 26.15234375 C82.0953014 24.78640777 82.0953014 24.78640777 80.05419922 25.25073242 C77.71648468 26.103412 76.77627639 26.96719911 75.16015625 28.8359375 C74.65419922 29.40570313 74.14824219 29.97546875 73.62695312 30.5625 C72.85254883 31.4596875 72.85254883 31.4596875 72.0625 32.375 C64.23939295 41.38879378 64.23939295 41.38879378 57.6875 42.625 C52.30153765 41.71212502 49.75695053 38.7982357 46 35 C45.17242187 34.1853125 44.34484375 33.370625 43.4921875 32.53125 C41.31084385 30.37042055 39.14857851 28.19334056 37 26 C36.360625 26.639375 35.72125 27.27875 35.0625 27.9375 C34.60875 28.38738281 34.155 28.83726562 33.6875 29.30078125 C32.40146075 30.59575133 31.13389327 31.90909364 29.875 33.23046875 C21.91768474 41.47005364 21.91768474 41.47005364 17 43 C11.88329727 42.67490563 9.28553254 41.05613322 5.4375 37.75 C4.52871094 36.98171875 3.61992187 36.2134375 2.68359375 35.421875 C0.03146675 33.02839794 -2.49925031 30.55049335 -5 28 C-8.06758844 29.36561503 -10.1595255 30.91351364 -12.5 33.3125 C-13.40685547 34.240625 -13.40685547 34.240625 -14.33203125 35.1875 C-16.15008392 37.11291666 -16.15008392 37.11291666 -18.1875 39.8125 C-20.11417011 42.13779151 -21.13696124 43.10018782 -24 44 C-29.16340742 44.46940067 -31.80824766 43.97835034 -36 41 C-38.2165177 38.86871932 -40.26674783 36.60682473 -42.3125 34.3125 C-42.86228516 33.70599609 -43.41207031 33.09949219 -43.97851562 32.47460938 C-45.32457441 30.98809229 -46.66306256 29.49472592 -48 28 C-51.3097316 29.42787094 -53.31238597 31.17846666 -55.75 33.8125 C-60.14645914 38.29067771 -64.50754721 42.70896227 -71 43.25 C-78.94533837 39.93944235 -83.94596872 32.83211547 -89.01953125 26.16015625 C-89.67308594 25.44730469 -90.32664063 24.73445313 -91 24 C-94.53964269 24 -95.1907603 24.64122259 -97.90625 26.7734375 C-98.65003906 27.3509375 -99.39382812 27.9284375 -100.16015625 28.5234375 C-100.93230469 29.13445312 -101.70445312 29.74546875 -102.5 30.375 C-104.0307376 31.57096861 -105.561968 32.76630683 -107.09375 33.9609375 C-108.10985352 34.76217041 -108.10985352 34.76217041 -109.14648438 35.57958984 C-113.39620938 38.83629428 -115.67357567 39.20099714 -121 39 C-122.1875 36.875 -122.1875 36.875 -123 34 C-121.39529417 28.84201696 -117.90782538 25.71614867 -114.11328125 22.07421875 C-112.10673073 20.10475789 -110.26614464 18.07160672 -108.4375 15.9375 C-97.63153481 3.42922523 -97.63153481 3.42922523 -91.05859375 2.65234375 C-87.33293801 3.07582186 -85.89347278 4.144473 -83.0625 6.5625 C-82.21042969 7.28566406 -81.35835937 8.00882812 -80.48046875 8.75390625 C-77.19939825 11.72495434 -74.03800644 14.78092032 -71 18 C-66.06500032 13.90500027 -61.54890463 9.58571211 -57.11328125 4.953125 C-54.04084424 2.11353442 -52.06677504 1.042671 -47.875 0.875 C-42.24741043 1.87733891 -38.15326105 6.35760333 -34 10 C-32.62518287 11.16688216 -31.25020806 12.33357859 -29.875 13.5 C-28.92625 14.325 -27.9775 15.15 -27 16 C-26.41992188 15.34773438 -25.83984375 14.69546875 -25.2421875 14.0234375 C-9.99478094 -3.03554211 -9.99478094 -3.03554211 0 0 Z " fill="#000000" transform="translate(262,331)"/>
<path d="M0 0 C3.09552885 2.16199034 5.53574869 4.77111411 8.0625 7.5625 C8.73732422 8.27341797 9.41214844 8.98433594 10.10742188 9.71679688 C11.75802351 11.46104967 13.38698401 13.22105556 15 15 C19.62216753 11.11571598 23.94146422 7.11039606 28.10546875 2.734375 C30.82478787 0.24493647 33.15453964 -0.82706493 36.75 -1.5625 C45.89086773 0.01957326 52.4804212 11.11183712 58 18 C61.61783129 16.45427531 64.08171063 14.2422777 66.9375 11.5625 C73.23315868 5.65606287 73.23315868 5.65606287 77 4 C82.77633517 4.23298506 85.3490024 5.60563082 89.35546875 9.69921875 C90.05885124 10.40822075 90.05885124 10.40822075 90.77644348 11.13154602 C91.76066639 12.12914757 92.73770099 13.1338874 93.70776367 14.14526367 C95.17993929 15.67961994 96.67226945 17.19171336 98.16992188 18.70117188 C109.64486963 30.39571062 109.64486963 30.39571062 110.375 35.75 C110 38 110 38 108 40 C104.40693828 40.44724824 102.50272841 40.28255539 99.32421875 38.49609375 C98.45410156 37.81675781 97.58398438 37.13742188 96.6875 36.4375 C95.74132812 35.715625 94.79515625 34.99375 93.8203125 34.25 C92.01127632 32.80678 90.21326409 31.34956788 88.4296875 29.875 C87.64851562 29.235625 86.86734375 28.59625 86.0625 27.9375 C85.37285156 27.34839844 84.68320312 26.75929687 83.97265625 26.15234375 C82.0953014 24.78640777 82.0953014 24.78640777 80.05419922 25.25073242 C77.71648468 26.103412 76.77627639 26.96719911 75.16015625 28.8359375 C74.65419922 29.40570313 74.14824219 29.97546875 73.62695312 30.5625 C72.85254883 31.4596875 72.85254883 31.4596875 72.0625 32.375 C64.23939295 41.38879378 64.23939295 41.38879378 57.6875 42.625 C52.30153765 41.71212502 49.75695053 38.7982357 46 35 C45.17242187 34.1853125 44.34484375 33.370625 43.4921875 32.53125 C41.31084385 30.37042055 39.14857851 28.19334056 37 26 C36.360625 26.639375 35.72125 27.27875 35.0625 27.9375 C34.60875 28.38738281 34.155 28.83726562 33.6875 29.30078125 C32.40146075 30.59575133 31.13389327 31.90909364 29.875 33.23046875 C21.91768474 41.47005364 21.91768474 41.47005364 17 43 C11.88329727 42.67490563 9.28553254 41.05613322 5.4375 37.75 C4.52871094 36.98171875 3.61992187 36.2134375 2.68359375 35.421875 C0.03146675 33.02839794 -2.49925031 30.55049335 -5 28 C-8.06758844 29.36561503 -10.1595255 30.91351364 -12.5 33.3125 C-13.40685547 34.240625 -13.40685547 34.240625 -14.33203125 35.1875 C-16.15008392 37.11291666 -16.15008392 37.11291666 -18.1875 39.8125 C-20.11417011 42.13779151 -21.13696124 43.10018782 -24 44 C-29.16340742 44.46940067 -31.80824766 43.97835034 -36 41 C-38.2165177 38.86871932 -40.26674783 36.60682473 -42.3125 34.3125 C-42.86228516 33.70599609 -43.41207031 33.09949219 -43.97851562 32.47460938 C-45.32457441 30.98809229 -46.66306256 29.49472592 -48 28 C-51.3097316 29.42787094 -53.31238597 31.17846666 -55.75 33.8125 C-60.14645914 38.29067771 -64.50754721 42.70896227 -71 43.25 C-78.94533837 39.93944235 -83.94596872 32.83211547 -89.01953125 26.16015625 C-89.67308594 25.44730469 -90.32664063 24.73445313 -91 24 C-94.53964269 24 -95.1907603 24.64122259 -97.90625 26.7734375 C-98.65003906 27.3509375 -99.39382812 27.9284375 -100.16015625 28.5234375 C-100.93230469 29.13445312 -101.70445312 29.74546875 -102.5 30.375 C-104.0307376 31.57096861 -105.561968 32.76630683 -107.09375 33.9609375 C-108.10985352 34.76217041 -108.10985352 34.76217041 -109.14648438 35.57958984 C-113.39620938 38.83629428 -115.67357567 39.20099714 -121 39 C-122.1875 36.875 -122.1875 36.875 -123 34 C-121.39529417 28.84201696 -117.90782538 25.71614867 -114.11328125 22.07421875 C-112.10673073 20.10475789 -110.26614464 18.07160672 -108.4375 15.9375 C-97.63153481 3.42922523 -97.63153481 3.42922523 -91.05859375 2.65234375 C-87.33293801 3.07582186 -85.89347278 4.144473 -83.0625 6.5625 C-82.21042969 7.28566406 -81.35835937 8.00882813 -80.48046875 8.75390625 C-77.19939825 11.72495434 -74.03800644 14.78092032 -71 18 C-66.06500032 13.90500027 -61.54890463 9.58571211 -57.11328125 4.953125 C-54.04084424 2.11353442 -52.06677504 1.042671 -47.875 0.875 C-42.24741043 1.87733891 -38.15326105 6.35760333 -34 10 C-32.62518287 11.16688216 -31.25020806 12.33357859 -29.875 13.5 C-28.92625 14.325 -27.9775 15.15 -27 16 C-26.41992188 15.34773438 -25.83984375 14.69546875 -25.2421875 14.0234375 C-9.99478094 -3.03554211 -9.99478094 -3.03554211 0 0 Z " fill="#000000" transform="translate(262,203)"/>
<path d="M0 0 C7.06038625 3.7463274 12.52556688 9.95338472 18.0625 15.625 C19.0525 16.615 19.0525 16.615 20.0625 17.625 C21.03832031 16.78195312 22.01414062 15.93890625 23.01953125 15.0703125 C24.30461231 13.96345436 25.5897727 12.85668833 26.875 11.75 C27.51759766 11.19441406 28.16019531 10.63882812 28.82226562 10.06640625 C29.75522461 9.26396484 29.75522461 9.26396484 30.70703125 8.4453125 C31.27784424 7.95305176 31.84865723 7.46079102 32.43676758 6.95361328 C35.20367526 4.69238613 36.843386 3.65340367 40.4375 3.1875 C48.1068668 4.11311323 53.44383471 13.92306705 58.03515625 19.7578125 C58.5470752 20.41297852 59.05899414 21.06814453 59.58642578 21.74316406 C60.91836858 23.44124794 62.26789534 25.12355522 63.62109375 26.8046875 C69.53041093 34.40990498 69.53041093 34.40990498 69.75 38.6875 C69.0625 41.625 69.0625 41.625 66.0625 43.625 C56.28873675 43.10718473 47.40989686 31.25450338 41.0625 24.625 C35.78814459 28.98207621 30.97781621 33.65509718 26.19921875 38.55078125 C23.78483465 40.89454351 22.73328653 41.51320224 19.4375 42.0625 C10.98023913 40.96618841 4.67841505 32.47491151 -0.9375 26.625 C-4.29831523 27.74527174 -4.91179735 28.55902422 -7.0625 31.25 C-16.97199818 42.80760419 -16.97199818 42.80760419 -23.9375 43.5 C-32.04543808 42.7101611 -38.66363409 34.20410574 -43.9375 28.625 C-44.88625 29.429375 -45.835 30.23375 -46.8125 31.0625 C-47.45058594 31.60132813 -48.08867187 32.14015625 -48.74609375 32.6953125 C-50.32110374 34.08221969 -51.85042777 35.52165191 -53.34765625 36.9921875 C-60.71007422 44.11563982 -60.71007422 44.11563982 -65.1875 44.9375 C-72.94094165 44.29137986 -77.66481725 38.04823935 -82.61328125 32.60742188 C-85.29557828 29.5893439 -85.29557828 29.5893439 -88.99609375 28.49609375 C-91.6330413 30.02944957 -93.66618081 31.89668681 -95.875 34 C-100.05175659 37.96372264 -103.51462954 41.22118826 -109.3125 42.1875 C-117.61823947 40.89867836 -122.062966 33.16301155 -126.82421875 26.8203125 C-127.52160156 26.09585937 -128.21898437 25.37140625 -128.9375 24.625 C-132.74351086 24.22488487 -132.74351086 24.22488487 -134.56567383 25.84667969 C-135.08669678 26.40774414 -135.60771973 26.96880859 -136.14453125 27.546875 C-136.73169922 28.16046875 -137.31886719 28.7740625 -137.92382812 29.40625 C-138.52646484 30.0559375 -139.12910156 30.705625 -139.75 31.375 C-144.15016995 36.09666546 -148.06248167 39.83312309 -153.9375 42.625 C-158.21656977 42.34593023 -158.21656977 42.34593023 -159.9375 40.625 C-160.3799136 35.87910864 -159.72500267 33.60397831 -156.8125 29.875 C-156.09320313 28.94042969 -155.37390625 28.00585938 -154.6328125 27.04296875 C-154.21547852 26.51493652 -153.79814453 25.9869043 -153.36816406 25.44287109 C-151.70271195 23.32666693 -150.0662595 21.18939345 -148.4296875 19.05078125 C-135.24962495 1.90256489 -135.24962495 1.90256489 -130.6875 0.9375 C-125.279866 1.92889957 -122.72255654 4.79834943 -118.9375 8.625 C-118.10992187 9.4396875 -117.28234375 10.254375 -116.4296875 11.09375 C-114.24834385 13.25457945 -112.08607851 15.43165944 -109.9375 17.625 C-105.17737602 13.57383066 -100.49329564 9.45252618 -95.85546875 5.26171875 C-92.4452074 2.35153645 -89.70744825 2.17285102 -85.33496094 2.22363281 C-81.08006684 2.93595928 -78.57078168 5.57211783 -75.5625 8.5 C-74.36798761 9.60243007 -73.17270396 10.70402518 -71.9765625 11.8046875 C-71.46303223 12.29694824 -70.94950195 12.78920898 -70.42041016 13.29638672 C-68.76604302 14.84192369 -68.76604302 14.84192369 -65.9375 16.625 C-65.33276855 16.00455811 -65.33276855 16.00455811 -64.71582031 15.37158203 C-62.87836325 13.49243654 -61.0330569 11.62118964 -59.1875 9.75 C-58.23617187 8.77353516 -58.23617187 8.77353516 -57.265625 7.77734375 C-56.646875 7.15214844 -56.028125 6.52695312 -55.390625 5.8828125 C-54.82504883 5.3067627 -54.25947266 4.73071289 -53.67675781 4.13720703 C-50.92742698 1.7467866 -48.67237444 0.72085319 -45.0625 0.25 C-38.78917693 1.00279877 -34.95179958 5.41350045 -30.84375 9.84375 C-28.41287511 12.11522326 -25.73413928 13.83389394 -22.9375 15.625 C-22.08027344 14.72136719 -21.22304688 13.81773437 -20.33984375 12.88671875 C-19.1854459 11.69477951 -18.03046691 10.50340292 -16.875 9.3125 C-16.31361328 8.71759766 -15.75222656 8.12269531 -15.17382812 7.50976562 C-10.90035406 3.13861215 -6.49881215 -0.82963559 0 0 Z " fill="#000000" transform="translate(300.9375,265.375)"/>
<path d="M0 0 C7.06038625 3.7463274 12.52556688 9.95338472 18.0625 15.625 C19.0525 16.615 19.0525 16.615 20.0625 17.625 C22.35503031 15.66766995 24.64655493 13.70918394 26.9375 11.75 C27.91396484 10.91662109 27.91396484 10.91662109 28.91015625 10.06640625 C29.53535156 9.53144531 30.16054688 8.99648437 30.8046875 8.4453125 C31.3807373 7.95305176 31.95678711 7.46079102 32.55029297 6.95361328 C33.76202254 5.88899715 34.92195275 4.76554725 36.0625 3.625 C41.59739848 2.98984772 41.59739848 2.98984772 44.0625 3.625 C50.04129089 8.81505789 54.72706775 15.52404233 59.58642578 21.74316406 C60.91836858 23.44124794 62.26789534 25.12355522 63.62109375 26.8046875 C69.52731776 34.4059241 69.52731776 34.4059241 69.5625 38.8125 C69.3975 39.740625 69.2325 40.66875 69.0625 41.625 C66.9375 42.8125 66.9375 42.8125 64.0625 43.625 C57.29666242 41.16829763 52.72986647 35.75613063 47.72070312 30.81054688 C47.03556641 30.14732422 46.35042969 29.48410156 45.64453125 28.80078125 C45.02811768 28.19145752 44.4117041 27.58213379 43.77661133 26.9543457 C42.02892383 25.31858322 42.02892383 25.31858322 39.0625 25.625 C37.28778612 27.0003688 37.28778612 27.0003688 35.55859375 28.87109375 C34.90052734 29.54333984 34.24246094 30.21558594 33.56445312 30.90820312 C32.88318359 31.61912109 32.20191406 32.33003906 31.5 33.0625 C30.14667464 34.4591114 28.79130226 35.85374302 27.43359375 37.24609375 C26.83474365 37.8692749 26.23589355 38.49245605 25.61889648 39.13452148 C23.55134826 41.11450297 22.27703282 41.58924453 19.4375 42.0625 C10.98023913 40.96618841 4.67841505 32.47491151 -0.9375 26.625 C-4.29831523 27.74527174 -4.91179735 28.55902422 -7.0625 31.25 C-16.97199818 42.80760419 -16.97199818 42.80760419 -23.9375 43.5 C-32.04543808 42.7101611 -38.66363409 34.20410574 -43.9375 28.625 C-44.88625 29.429375 -45.835 30.23375 -46.8125 31.0625 C-47.45058594 31.60132813 -48.08867187 32.14015625 -48.74609375 32.6953125 C-50.32110374 34.08221969 -51.85042777 35.52165191 -53.34765625 36.9921875 C-60.71007422 44.11563982 -60.71007422 44.11563982 -65.1875 44.9375 C-72.94094165 44.29137986 -77.66481725 38.04823935 -82.61328125 32.60742188 C-85.29557828 29.5893439 -85.29557828 29.5893439 -88.99609375 28.49609375 C-91.6330413 30.02944957 -93.66618081 31.89668681 -95.875 34 C-100.05175659 37.96372264 -103.51462954 41.22118826 -109.3125 42.1875 C-117.61823947 40.89867836 -122.062966 33.16301155 -126.82421875 26.8203125 C-127.52160156 26.09585938 -128.21898437 25.37140625 -128.9375 24.625 C-132.74351086 24.22488487 -132.74351086 24.22488487 -134.56567383 25.84667969 C-135.08669678 26.40774414 -135.60771973 26.96880859 -136.14453125 27.546875 C-136.73169922 28.16046875 -137.31886719 28.7740625 -137.92382812 29.40625 C-138.52646484 30.0559375 -139.12910156 30.705625 -139.75 31.375 C-144.15016995 36.09666546 -148.06248167 39.83312309 -153.9375 42.625 C-158.21656977 42.34593023 -158.21656977 42.34593023 -159.9375 40.625 C-160.3799136 35.87910864 -159.72500267 33.60397831 -156.8125 29.875 C-156.09320313 28.94042969 -155.37390625 28.00585938 -154.6328125 27.04296875 C-154.21547852 26.51493652 -153.79814453 25.9869043 -153.36816406 25.44287109 C-151.70271195 23.32666693 -150.0662595 21.18939345 -148.4296875 19.05078125 C-135.24962495 1.90256489 -135.24962495 1.90256489 -130.6875 0.9375 C-125.279866 1.92889957 -122.72255654 4.79834943 -118.9375 8.625 C-118.10992187 9.4396875 -117.28234375 10.254375 -116.4296875 11.09375 C-114.24834385 13.25457945 -112.08607851 15.43165944 -109.9375 17.625 C-105.17737602 13.57383066 -100.49329564 9.45252618 -95.85546875 5.26171875 C-92.4452074 2.35153645 -89.70744825 2.17285102 -85.33496094 2.22363281 C-81.08006684 2.93595928 -78.57078168 5.57211783 -75.5625 8.5 C-74.36798761 9.60243007 -73.17270396 10.70402518 -71.9765625 11.8046875 C-71.46303223 12.29694824 -70.94950195 12.78920898 -70.42041016 13.29638672 C-68.76604302 14.84192369 -68.76604302 14.84192369 -65.9375 16.625 C-65.33276855 16.00455811 -65.33276855 16.00455811 -64.71582031 15.37158203 C-62.87836325 13.49243654 -61.0330569 11.62118964 -59.1875 9.75 C-58.23617187 8.77353516 -58.23617187 8.77353516 -57.265625 7.77734375 C-56.646875 7.15214844 -56.028125 6.52695313 -55.390625 5.8828125 C-54.82504883 5.3067627 -54.25947266 4.73071289 -53.67675781 4.13720703 C-50.92742698 1.7467866 -48.67237444 0.72085319 -45.0625 0.25 C-38.78917693 1.00279877 -34.95179958 5.41350045 -30.84375 9.84375 C-28.41287511 12.11522326 -25.73413928 13.83389394 -22.9375 15.625 C-22.08027344 14.72136719 -21.22304688 13.81773437 -20.33984375 12.88671875 C-19.1854459 11.69477951 -18.03046691 10.50340292 -16.875 9.3125 C-16.31361328 8.71759766 -15.75222656 8.12269531 -15.17382812 7.50976562 C-10.90035406 3.13861215 -6.49881215 -0.82963559 0 0 Z " fill="#000000" transform="translate(300.9375,137.375)"/>
</svg>
