<?xml version="1.0" encoding="UTF-8"?>
<svg version="1.1" xmlns="http://www.w3.org/2000/svg" width="512" height="512">
<path d="M0 0 C3.95153216 1.46976843 7.49115178 3.50074527 11.125 5.625 C12.16487061 6.21039551 13.20474121 6.79579102 14.27612305 7.39892578 C17.53215594 9.24151933 20.7680383 11.1155487 24 13 C24.99435059 13.57685547 25.98870117 14.15371094 27.01318359 14.74804688 C30.9410313 17.02911193 34.86461587 19.31708153 38.77905273 21.62109375 C47.48399369 26.73857384 56.29752908 31.64622137 65.13500977 36.53027344 C72.89513087 40.82165671 80.61403801 45.17768606 88.30517578 49.59130859 C94.5429149 53.17057418 100.79828442 56.71729255 107.0625 60.25 C116.9580099 65.83388279 126.8353749 71.44934193 136.68823242 77.1081543 C142.18072717 80.26068051 147.68302495 83.38942069 153.234375 86.4375 C154.1919873 86.96851318 155.14959961 87.49952637 156.13623047 88.04663086 C157.89457949 89.01985149 159.65880932 89.98256368 161.43017578 90.93188477 C167.2791793 94.18834724 172.46622797 97.94504906 174.91015625 104.40625 C175.29538038 109.70061243 174.72753097 113.27227966 172 118 C167.57711758 123.10264679 162.0617173 126.46150231 156.4375 130.125 C154.24405612 131.57051657 152.05135936 133.0171196 149.859375 134.46484375 C149.29175949 134.83891861 148.72414398 135.21299347 148.139328 135.59840393 C142.67854599 139.20070133 137.26360317 142.86915326 131.85632324 146.55123901 C128.93695964 148.53896238 126.01540027 150.52345229 123.09375 152.5078125 C122.46764832 152.9330571 121.84154663 153.3583017 121.19647217 153.7964325 C112.20431457 159.90113933 103.19692966 165.98332319 94.1875 172.0625 C93.27928497 172.67535858 92.37106995 173.28821716 91.43533325 173.91964722 C76.2700332 184.14977149 61.06446465 194.31851525 45.82495117 204.43774414 C37.15156337 210.20131907 28.53371956 216.03108002 20 222 C21.22736656 225.39214757 22.54052152 227.96572583 24.87109375 230.71484375 C25.72392944 231.73300171 25.72392944 231.73300171 26.59399414 232.77172852 C27.20235107 233.48643311 27.81070801 234.2011377 28.4375 234.9375 C29.71743368 236.46506768 30.99606448 237.99372791 32.2734375 239.5234375 C32.90733398 240.28108398 33.54123047 241.03873047 34.19433594 241.81933594 C36.70866295 244.85583794 39.14335818 247.94998221 41.5625 251.0625 C45.48099092 256.09249638 49.46797445 261.06054716 53.5 266 C58.00767214 271.52333657 62.44842767 277.09184597 66.8359375 282.7109375 C70.33776247 287.18436708 73.90811164 291.59867202 77.5 296 C82.00759973 301.52339685 86.44842642 307.09184436 90.8359375 312.7109375 C94.33776247 317.18436708 97.90811164 321.59867202 101.5 326 C106.00759973 331.52339685 110.44842642 337.09184436 114.8359375 342.7109375 C118.33776247 347.18436708 121.90811164 351.59867202 125.5 356 C130.00759973 361.52339685 134.44842642 367.09184436 138.8359375 372.7109375 C142.33776871 377.18437506 145.90845731 381.59838248 149.5 386 C155.00810708 392.75928314 160.4875541 399.5370795 165.80273438 406.44970703 C166.92407913 407.901693 168.06299941 409.34005777 169.203125 410.77734375 C173.1511725 415.98523568 175.6348308 420.31560505 175 427 C173.32897238 432.89774456 170.80333308 435.52524841 166 439 C162.27886228 440.86056886 158.06130543 440.42750583 154 440 C145.22040658 435.96138703 139.24295166 426.13102243 133.41918945 418.64697266 C129.83941828 414.04781263 126.18696911 409.51355589 122.5 405 C117.99211907 399.47683654 113.55156889 393.90814963 109.1640625 388.2890625 C105.66223753 383.81563292 102.09188836 379.40132798 98.5 375 C93.99240027 369.47660315 89.55157358 363.90815564 85.1640625 358.2890625 C81.66223753 353.81563292 78.09188836 349.40132798 74.5 345 C69.99240027 339.47660315 65.55157358 333.90815564 61.1640625 328.2890625 C57.66223753 323.81563292 54.09188836 319.40132798 50.5 315 C46.4502431 310.03762183 42.44200507 305.048419 38.5 300 C33.99176587 294.22747321 29.39791733 288.52885708 24.765625 282.85546875 C21.75672222 279.16937046 18.76855984 275.46777078 15.79760742 271.75097656 C15.08432785 270.85880432 14.37104828 269.96663208 13.63615417 269.04742432 C13.0962233 268.37177429 12.55629242 267.69612427 12 267 C11.99853344 267.81722282 11.99706688 268.63444565 11.99555588 269.4764328 C11.95848134 289.37430167 11.89945797 309.2720003 11.81609726 329.16973114 C11.77631195 338.79219334 11.74391687 348.41457383 11.72900391 358.03710938 C11.71598477 366.42550637 11.68901338 374.81372351 11.64538693 383.20201921 C11.62277803 387.64233648 11.60708898 392.08243196 11.60811615 396.52281189 C11.6088631 400.70571613 11.59089846 404.88813021 11.55883217 409.07090759 C11.55034172 410.60267907 11.54857745 412.13450558 11.55419731 413.66629028 C11.60048764 428.22756873 11.60048764 428.22756873 7 435 C2.60397135 438.86964025 -1.78431532 439.65638588 -7.5703125 439.375 C-11.47781179 438.77191329 -14.03981112 437.59787844 -17 435 C-22.26304903 427.41972543 -21.55696615 419.2359571 -21.50120544 410.36802673 C-21.50510025 408.65843909 -21.51074213 406.94885468 -21.51797634 405.2392779 C-21.53272306 400.55049981 -21.52255439 395.86205784 -21.50823963 391.17329061 C-21.4971294 386.11324694 -21.50907258 381.05325039 -21.51808167 375.99320984 C-21.53201545 366.0844484 -21.52445703 356.17581439 -21.50940608 346.26705902 C-21.49254787 334.72947035 -21.49575599 323.19191344 -21.49950016 311.65431625 C-21.50537893 291.06989276 -21.49120613 270.48553043 -21.46655273 249.90112305 C-21.44262881 229.92356066 -21.43554968 209.94608 -21.44604492 189.96850586 C-21.45745182 168.21662456 -21.45938725 146.46478106 -21.44494683 124.71290022 C-21.44342098 122.39392794 -21.44190062 120.07495565 -21.44038582 117.75598335 C-21.439628 116.61498659 -21.43887019 115.47398982 -21.43808941 114.2984174 C-21.43334507 106.25450601 -21.43519907 98.21061149 -21.43945122 90.16670036 C-21.44437565 80.36580541 -21.43840336 70.56498774 -21.41855692 60.7641105 C-21.40867918 55.76276748 -21.40358507 50.76154219 -21.41144943 45.76019287 C-21.41850006 41.18272664 -21.41171604 36.60549811 -21.3938458 32.02806325 C-21.38979733 30.37139655 -21.39080787 28.71470822 -21.39736467 27.05804955 C-21.40551348 24.80660877 -21.39520504 22.55596927 -21.38031673 20.30457973 C-21.37877304 18.42862107 -21.37877304 18.42862107 -21.37719816 16.51476425 C-20.87891819 11.87174953 -19.6180653 7.83627767 -16.46484375 4.2578125 C-10.7445842 0.01516476 -7.10456265 -0.94873837 0 0 Z M11 43 C11 91.18 11 139.36 11 189 C17.18136552 185.56590804 22.81447265 182.15610403 28.5 178.0625 C37.24849455 171.85671656 46.12679545 165.86815447 55.0625 159.9375 C70.53461044 149.66402602 85.93980905 139.29344789 101.33032227 128.89819336 C103.08086364 127.71594118 104.83143249 126.5337297 106.58203125 125.3515625 C107.41090347 124.79181229 108.2397757 124.23206207 109.09376526 123.65534973 C115.37986726 119.41273598 121.68094013 115.19337485 128 111 C126.80201174 107.40603521 126.17627605 107.26380709 122.93359375 105.57421875 C122.06839111 105.11490967 121.20318848 104.65560059 120.31176758 104.18237305 C119.36325928 103.68906494 118.41475098 103.19575684 117.4375 102.6875 C109.29079103 98.35301173 101.25911705 93.87877259 93.3125 89.1875 C83.58172562 83.46019424 73.75167881 77.93410642 63.86987305 72.47216797 C52.53831291 66.20524304 41.3033728 59.77631324 30.07910156 53.31982422 C27.13702856 51.62820386 24.19353902 49.93906768 21.25 48.25 C20.33750488 47.7238208 19.42500977 47.1976416 18.48486328 46.65551758 C17.64938965 46.17622803 16.81391602 45.69693848 15.953125 45.203125 C15.21223633 44.77676758 14.47134766 44.35041016 13.70800781 43.91113281 C12.17558718 42.92155554 12.17558718 42.92155554 11 43 Z " fill="#000000" transform="translate(179,36)"/>
</svg>
