<?xml version="1.0" encoding="UTF-8"?>
<svg version="1.1" xmlns="http://www.w3.org/2000/svg" width="512" height="512">
<path d="M0 0 C4.01827809 2.96781453 7.70769908 6.22126981 11.40527344 9.57470703 C13.70568532 11.63070896 16.09832813 13.56395839 18.5 15.5 C22.5633048 18.80624074 26.57299309 22.16816429 30.5625 25.5625 C34.33088939 28.76739191 38.12246028 31.92687694 42 35 C46.45253701 38.52883403 50.78685979 42.18229329 55.11328125 45.86328125 C58.54571609 48.78004513 62.00592815 51.65693426 65.5 54.5 C70.1045358 58.24787798 74.64019191 62.06983444 79.1640625 65.9140625 C83.46509753 69.56280785 87.82346097 73.13644727 92.19921875 76.6953125 C95.26775787 79.22033075 98.29039812 81.79484769 101.3125 84.375 C105.74851603 88.15792492 110.26600643 91.80532737 114.875 95.375 C120.62027155 99.83051671 126.13095441 104.51143405 131.60058594 109.29980469 C136.07269072 113.21202155 140.62569828 117.00467039 145.2421875 120.74609375 C149.55443853 124.27041222 153.79767344 127.87465542 158.03515625 131.48828125 C159.77658876 132.96356597 161.52962461 134.42567122 163.30859375 135.85546875 C166.7228807 138.61671121 169.06380753 140.6311018 170 145 C170.44688145 150.63070621 170.22028305 154.16957542 167 159 C163.3144622 162.7258169 160.11718384 164.79243296 154.8125 165.3125 C147.26047593 164.69348163 141.83263735 160.39321167 136.375 155.4375 C131.71346895 151.32016066 126.99028837 147.35723891 122.0625 143.5625 C116.33451821 139.13123716 110.84728211 134.46956936 105.39916992 129.69995117 C100.92220304 125.78355403 96.36448107 121.98665677 91.7421875 118.2421875 C88.62999852 115.69746317 85.56273503 113.10381775 82.5 110.5 C77.65190534 106.38004393 72.75153834 102.33203775 67.81640625 98.31640625 C64.66214808 95.72212734 61.5479702 93.08393735 58.4375 90.4375 C54.66911061 87.23260809 50.87753972 84.07312306 47 81 C43.12245045 77.92686916 39.33105707 74.76720517 35.5625 71.5625 C28.25968992 65.35489752 20.89328641 59.23899073 13.32324219 53.35839844 C12.10855255 52.41453278 12.10855255 52.41453278 10.86932373 51.45159912 C10.2524469 50.97257141 9.63557007 50.4935437 9 50 C8.99864347 50.79083058 8.99728694 51.58166116 8.99588931 52.3964563 C8.91526651 99.25129435 8.82432312 146.10610259 8.71994839 192.96089405 C8.70742928 198.58485043 8.69499655 204.20880699 8.68261719 209.83276367 C8.68015119 210.95240804 8.6776852 212.0720524 8.67514448 213.22562539 C8.63540392 231.36272826 8.60266231 249.49983738 8.57250018 267.63695843 C8.54140327 286.24266518 8.50280141 304.84834541 8.45720994 323.45402235 C8.42930724 334.93780479 8.40728191 346.4215678 8.39273749 357.90537506 C8.38220803 365.77665937 8.364399 373.64790607 8.34083296 381.51916207 C8.32744585 386.06271277 8.31729961 390.60621069 8.31578636 395.14978218 C8.31433023 399.30933776 8.30373458 403.46876619 8.28586559 407.62828272 C8.28101505 409.13310075 8.27952032 410.63793413 8.28172119 412.14275838 C8.28422309 414.1893724 8.27446723 416.23558344 8.26171303 418.28215122 C8.25943471 419.41865417 8.25715638 420.55515712 8.25480902 421.72609955 C7.8502239 426.92439044 7.00581054 430.83944938 3.5625 434.8125 C-0.68813252 438.44108873 -3.39407691 439.72874566 -9 440 C-13.84807128 439.15324783 -17.73454291 437.78453263 -21 434 C-23.99441352 429.50837972 -24.12620409 426.42241535 -24.13142776 421.11955547 C-24.13450672 420.05844924 -24.13450672 420.05844924 -24.13764787 418.97590652 C-24.14333644 416.58749202 -24.14185834 414.19913484 -24.14044189 411.81071472 C-24.14302446 410.08823448 -24.14603732 408.36575484 -24.1494453 406.64327604 C-24.15753121 401.89577692 -24.15930575 397.1482929 -24.16004276 392.40078771 C-24.16189054 387.28615434 -24.16943646 382.17152885 -24.17617798 377.05690002 C-24.18977285 365.8669501 -24.19578774 354.67700376 -24.20018864 343.48704696 C-24.20294896 336.50367071 -24.20718591 329.52029585 -24.21169281 322.53692055 C-24.2238867 303.21234187 -24.23418596 283.88776432 -24.2375679 264.56318188 C-24.23778747 263.32583511 -24.23800703 262.08848834 -24.23823325 260.81364622 C-24.23845153 259.57329501 -24.23866981 258.33294381 -24.2388947 257.05500621 C-24.23933817 254.54147224 -24.23978473 252.02793827 -24.24023438 249.5144043 C-24.2404558 248.26759769 -24.24067723 247.02079108 -24.24090537 245.73620246 C-24.24485476 225.52606822 -24.26231255 205.31597002 -24.2855939 185.10584971 C-24.30928862 164.36999677 -24.32176889 143.63416192 -24.32293582 122.89829522 C-24.32385361 111.2503703 -24.32963206 99.60249232 -24.34775543 87.95458031 C-24.36313103 78.03753492 -24.36829191 68.12055098 -24.36001733 58.20349594 C-24.35610188 53.14154441 -24.35708396 48.07971672 -24.37107468 43.0177803 C-24.38375995 38.38590482 -24.38266358 33.7542469 -24.37048396 29.12237195 C-24.36851762 27.44470577 -24.3716484 25.76702445 -24.38032833 24.08937957 C-24.39136743 21.81197667 -24.38397101 19.53534891 -24.3719368 17.25796795 C-24.37253389 15.9920877 -24.37313097 14.72620746 -24.37374616 13.42196721 C-23.83752156 8.51237026 -22.22966828 5.22966828 -18.75 1.75 C-12.51416405 -2.21825924 -6.69767511 -3.1458777 0 0 Z " fill="#000000" transform="translate(183,37)"/>
</svg>
