<?xml version="1.0" encoding="UTF-8"?>
<svg version="1.1" xmlns="http://www.w3.org/2000/svg" width="512" height="512">
<path d="M0 0 C3.47744086 2.83047512 5.27145663 4.93936988 6.6875 9.1875 C6.78874058 10.83670119 6.83373306 12.48962922 6.84571838 14.14189148 C6.8555072 15.16412811 6.86529602 16.18636475 6.87538147 17.23957825 C6.88401466 18.92055855 6.88401466 18.92055855 6.89282227 20.63549805 C6.90272186 21.81611816 6.91262146 22.99673828 6.92282104 24.21313477 C6.94901234 27.45044445 6.97087297 30.68774892 6.99082303 33.925102 C7.01269153 37.30839678 7.04007599 40.69164676 7.06687927 44.0749054 C7.11679448 50.48152946 7.16173765 56.88817841 7.20490164 63.29485112 C7.25428403 70.58864458 7.30919844 77.88239308 7.36458123 85.17614305 C7.47838328 100.17988681 7.58522619 115.1836729 7.6875 130.1875 C10.19533601 128.46357586 12.70314435 126.73961149 15.2109375 125.015625 C15.91017334 124.53496582 16.60940918 124.05430664 17.32983398 123.55908203 C21.46368016 120.71721204 25.59650868 117.87387218 29.7280302 115.02862358 C37.58043007 109.62117518 45.4566223 104.24885739 53.33569336 98.88037109 C61.68488813 93.19124347 70.02425516 87.48785722 78.36083984 81.78027344 C82.30252205 79.08189623 86.2450589 76.38476826 90.1875 73.6875 C91.77083732 72.6041725 93.35417066 71.52083917 94.9375 70.4375 C117.10416667 55.27083333 139.27083333 40.10416667 161.4375 24.9375 C162.61445435 24.1321582 162.61445435 24.1321582 163.81518555 23.31054688 C165.38942319 22.23351365 166.96380339 21.15668875 168.53833008 20.08007812 C172.63705557 17.27709519 176.73281493 14.46991142 180.82421875 11.65625 C181.66984375 11.07552734 182.51546875 10.49480469 183.38671875 9.89648438 C184.99051542 8.79497568 186.59344754 7.69220662 188.1953125 6.58789062 C190.35108851 5.10839936 192.51715514 3.6455124 194.6875 2.1875 C195.74130859 1.46252319 195.74130859 1.46252319 196.81640625 0.72290039 C202.53693382 -3.07706798 206.82540993 -3.93691598 213.6875 -2.8125 C218.54858919 -0.51453056 221.38953056 2.32641081 223.6875 7.1875 C224.42842471 12.26056611 224.33618872 16.61211311 222.375 21.375 C218.2775322 25.66304769 213.5746583 28.86490945 208.6875 32.1875 C207.03893163 33.31751744 205.39050588 34.44774295 203.7421875 35.578125 C198.99753721 38.82500185 194.24260502 42.05655281 189.48583984 45.28564453 C185.31750044 48.11860248 181.1582653 50.96478421 177 53.8125 C175.44401403 54.87760944 173.88802446 55.94271363 172.33203125 57.0078125 C171.18468506 57.79333496 171.18468506 57.79333496 170.01416016 58.59472656 C166.07247795 61.29310377 162.1299411 63.99023174 158.1875 66.6875 C156.60416268 67.7708275 155.02082934 68.85416083 153.4375 69.9375 C48.9375 141.4375 48.9375 141.4375 46.55957031 143.06445312 C44.98593865 144.14118257 43.4123703 145.21800457 41.83886719 146.29492188 C37.73262906 149.1050807 33.6251026 151.91333018 29.515625 154.71875 C28.66548828 155.29947266 27.81535156 155.88019531 26.93945312 156.47851562 C25.32397852 157.58198188 23.70812046 158.68488705 22.09179688 159.78710938 C21.35509766 160.29048828 20.61839844 160.79386719 19.859375 161.3125 C19.15748047 161.79203125 18.45558594 162.2715625 17.73242188 162.765625 C15.71845172 164.16597865 13.74225485 165.61011563 11.765625 167.0625 C8.6875 169.1875 8.6875 169.1875 6.6875 169.1875 C7.0175 193.2775 7.3475 217.3675 7.6875 242.1875 C13.2975 238.2275 18.9075 234.2675 24.6875 230.1875 C30.01495991 226.51196564 35.34659421 222.84335001 40.6875 219.1875 C49.87910411 212.88972561 59.04402151 206.55498682 68.1875 200.1875 C77.94669023 193.39123366 87.73461382 186.63863661 97.54394531 179.91503906 C107.12321865 173.3471091 116.6667121 166.72915023 126.19750977 160.09106445 C132.30268149 155.84076873 138.42156518 151.61166214 144.55737305 147.40576172 C150.39082411 143.40225322 156.19522952 139.35744025 162 135.3125 C169.33607826 130.20255875 176.68427096 125.11142339 184.0625 120.0625 C184.80411377 119.55477051 185.54572754 119.04704102 186.30981445 118.52392578 C187.72235436 117.55914708 189.13700813 116.59745462 190.55395508 115.63916016 C192.05964257 114.61469307 193.556074 113.57655769 195.0456543 112.52880859 C195.82593994 111.98820801 196.60622559 111.44760742 197.41015625 110.890625 C198.10890869 110.39981445 198.80766113 109.90900391 199.52758789 109.40332031 C204.08986417 106.83520277 208.9343017 106.45773659 213.95703125 107.7890625 C218.21068645 109.60416583 221.04688344 111.93961019 223.0625 116.1328125 C224.72171832 121.58749272 224.47177261 126.27932674 222.31640625 131.5234375 C219.18042223 136.66261982 214.04943371 139.5583983 209.125 142.8125 C208.09503906 143.51052734 207.06507813 144.20855469 206.00390625 144.92773438 C203.89968676 146.35262869 201.79145383 147.77161458 199.67919922 149.18457031 C195.49330463 151.98700863 191.34122461 154.83772151 187.1875 157.6875 C186.43073975 158.20393066 185.67397949 158.72036133 184.89428711 159.25244141 C178.63203771 163.52606109 172.4069916 167.85195493 166.1875 172.1875 C158.4482847 177.58242918 150.68467535 182.93857599 142.890625 188.25390625 C136.63073241 192.52869868 130.40594397 196.85268522 124.1875 201.1875 C117.20866933 206.0523727 110.21579842 210.89435741 103.1875 215.6875 C95.10340163 221.20099125 87.06737981 226.78175329 79.03881836 232.37573242 C70.32927149 238.44255434 61.58606183 244.45902759 52.83105469 250.45996094 C44.07452647 256.4637842 35.34203035 262.50144522 26.625 268.5625 C25.16114868 269.57993286 25.16114868 269.57993286 23.66772461 270.61791992 C22.73452393 271.26736572 21.80132324 271.91681152 20.83984375 272.5859375 C19.95409668 273.20178711 19.06834961 273.81763672 18.15576172 274.45214844 C15.95925666 275.99643706 13.79246113 277.57421556 11.62890625 279.1640625 C8.6875 281.1875 8.6875 281.1875 6.6875 281.1875 C6.69118717 281.91803117 6.69487434 282.64856234 6.69867325 283.40123081 C6.78706033 301.18726724 6.85322713 318.97325975 6.89474869 336.75946903 C6.9153626 345.36080379 6.94346071 353.96199184 6.98925781 362.56323242 C7.02916155 370.06121194 7.05494133 377.55908519 7.06385398 385.05716795 C7.06906278 389.02637003 7.08128062 392.99526811 7.11042023 396.96437263 C7.13764544 400.70314117 7.14593081 404.44148156 7.13993073 408.18033981 C7.14154944 410.200813 7.16303497 412.22123994 7.18518066 414.24159241 C7.15405603 421.10679682 6.91987617 425.66370197 2.6875 431.1875 C-0.97952818 434.67564876 -3.88646351 435.48029901 -8.8125 435.6875 C-13.7332651 435.48719749 -16.61260527 434.61667072 -20.3125 431.1875 C-23.8988168 426.6465336 -24.81290657 423.69645675 -24.81586456 417.93791199 C-24.82167833 417.2270463 -24.82749209 416.51618061 -24.83348203 415.78377354 C-24.84808217 413.40132017 -24.83419755 411.01989705 -24.82043457 408.63745117 C-24.8250435 406.91237709 -24.83139636 405.18730692 -24.83934355 403.46224499 C-24.85606115 398.72142017 -24.84777945 393.98091691 -24.83539867 389.24009085 C-24.82636047 384.12753704 -24.84031181 379.0150391 -24.85131836 373.90249634 C-24.86912129 363.88685373 -24.86525568 353.8713309 -24.8536678 343.85568357 C-24.84464073 335.71704197 -24.84340633 327.57843398 -24.84776306 319.43978882 C-24.84868246 317.70345524 -24.84868246 317.70345524 -24.84962043 315.93204421 C-24.85089931 313.58062179 -24.85219616 311.22919938 -24.8535108 308.87777698 C-24.86492179 286.81933388 -24.85179473 264.76095723 -24.83030933 242.70252502 C-24.81243789 223.76812142 -24.81554185 204.8338159 -24.83398438 185.89941406 C-24.85538189 163.92085434 -24.86382311 141.9423529 -24.85153532 119.96378422 C-24.8502611 117.62092655 -24.84900362 115.27806887 -24.84776306 112.93521118 C-24.84714596 111.78242729 -24.84652886 110.6296434 -24.84589306 109.44192666 C-24.8424368 101.31139841 -24.84827444 93.18090706 -24.85768127 85.05038452 C-24.8688902 75.14436134 -24.86588448 65.23846497 -24.8445583 55.33245635 C-24.83403302 50.27653507 -24.82995126 45.22082535 -24.84315491 40.16490555 C-24.85505398 35.53862531 -24.84855734 30.9127532 -24.8272447 26.28651011 C-24.82276808 24.6109586 -24.8250686 22.93537277 -24.83474785 21.25984323 C-24.84688295 18.9850988 -24.83446779 16.71175875 -24.81586456 14.43708801 C-24.81521515 13.17283399 -24.81456574 11.90857996 -24.81389666 10.60601521 C-24.21672149 6.53448352 -22.86257971 4.38013412 -20.3125 1.1875 C-13.73819138 -3.57887375 -7.13446265 -3.90376258 0 0 Z " fill="#000000" transform="translate(156.3125,39.8125)"/>
</svg>
