<?xml version="1.0" encoding="UTF-8"?>
<svg version="1.1" xmlns="http://www.w3.org/2000/svg" width="512" height="512">
<path d="M0 0 C2.04703438 1.47797463 3.94183968 3.04223337 5.8359375 4.7109375 C6.44308594 5.21367187 7.05023438 5.71640625 7.67578125 6.234375 C14.36804534 12.23837561 18.7225464 20.40928034 19.8984375 29.3359375 C20.24719461 38.67189716 16.77921269 46.6051635 10.8359375 53.7109375 C8.0460332 56.12962792 5.30013779 57.45997629 1.8359375 58.7109375 C2.54878906 59.484375 3.26164062 60.2578125 3.99609375 61.0546875 C4.96359206 62.10672449 5.93103707 63.1588105 6.8984375 64.2109375 C7.59743164 64.96890625 7.59743164 64.96890625 8.31054688 65.7421875 C10.92287374 68.58553647 13.48127043 71.46116756 15.9921875 74.39453125 C20.35658993 79.39901411 25.04863156 84.0737073 29.7512207 88.7565918 C31.27085418 90.2708633 32.78506267 91.7904118 34.29882812 93.31054688 C39.63734398 98.65353531 45.04983561 103.84959929 50.8359375 108.7109375 C51.51164795 109.28271729 52.1873584 109.85449707 52.88354492 110.44360352 C60.9580125 117.23629042 69.03716133 123.87217336 77.8359375 129.7109375 C83.90887149 125.80823505 89.60725313 121.64746927 95.1484375 117.0234375 C95.88118896 116.4162085 96.61394043 115.80897949 97.36889648 115.18334961 C102.82332276 110.63193059 108.09764189 105.92188313 113.2890625 101.07421875 C115.36957798 99.14367908 117.48049185 97.29072068 119.6484375 95.4609375 C132.34811281 84.44210157 143.44605043 71.8804567 153.8359375 58.7109375 C152.6396875 58.2159375 151.4434375 57.7209375 150.2109375 57.2109375 C144.09727859 54.14869773 141.22468528 49.24899379 138.0234375 43.3984375 C135.24277262 34.7637413 135.12303173 27.0582001 138.8359375 18.7109375 C144.59200419 7.9853474 153.0407559 -0.32197836 164.84765625 -3.8984375 C173.0780253 -5.51540588 180.35353849 -3.90251373 187.8359375 -0.2890625 C188.7434375 0.4740625 189.6509375 1.2371875 190.5859375 2.0234375 C192.78667821 4.06181648 192.78667821 4.06181648 195.9609375 3.4609375 C197.2396875 3.2134375 198.5184375 2.9659375 199.8359375 2.7109375 C206.88720619 2.11015676 213.14244868 2.08653173 218.8359375 6.7109375 C223.0748954 11.3386208 225.68358169 16.12151524 226.015625 22.44140625 C225.57863962 27.96072159 223.34063129 32.84373778 220.8359375 37.7109375 C229.39331553 38.16665586 236.17609577 37.58108804 244.22265625 34.62890625 C247.77444311 33.38126811 250.12366976 32.92565009 253.8359375 33.7109375 C265.25803396 41.13866624 273.49746061 55.53875295 276.47412109 68.60839844 C278.98418048 83.19451952 276.6987145 96.89551317 268.3359375 109.2109375 C267.18516742 110.72316742 266.02033897 112.22490107 264.8359375 113.7109375 C263.7221875 115.226875 263.7221875 115.226875 262.5859375 116.7734375 C253.12262061 127.65471067 239.23717895 136.22311241 224.7109375 137.4609375 C208.59270719 138.44888805 195.12993151 132.95593251 182.8359375 122.7109375 C175.46408565 115.9672338 175.46408565 115.9672338 173.8359375 112.7109375 C173.79427987 110.71137139 173.79427987 108.71050361 173.8359375 106.7109375 C173.8359375 106.0509375 173.8359375 105.3909375 173.8359375 104.7109375 C173.32619385 105.29141846 172.8164502 105.87189941 172.29125977 106.4699707 C166.51382999 112.9765471 160.50624069 119.19605722 154.3425293 125.3347168 C152.76819595 126.9036611 151.19932161 128.47792308 149.63085938 130.05273438 C144.20604397 135.48166086 138.71052838 140.76546269 132.8359375 145.7109375 C132.23128662 146.22664307 131.62663574 146.74234863 131.00366211 147.27368164 C129.28550742 148.73726023 127.56188161 150.19405802 125.8359375 151.6484375 C125.25199219 152.14150391 124.66804687 152.63457031 124.06640625 153.14257812 C122.65678646 154.33266696 121.24644301 155.52189856 119.8359375 156.7109375 C126.25178515 160.53197987 132.67482783 164.19504316 139.41796875 167.41015625 C140.86792236 168.10661255 140.86792236 168.10661255 142.34716797 168.81713867 C144.25921389 169.72785703 146.17864079 170.62328014 148.10595703 171.5012207 C155.36527231 174.97224742 160.36204808 179.16860164 164.2421875 186.29296875 C166.06417897 193.71278928 166.07692601 201.50306155 162.3359375 208.2734375 C158.24088521 214.18743226 152.68351428 217.81884872 145.5859375 219.125 C123.16759824 220.84458852 96.64168498 198.56053705 78.8359375 186.7109375 C73.52941999 189.60640082 68.30788516 192.60495678 63.15063477 195.75830078 C54.52856925 201.02699646 45.78219636 206.02156564 36.8984375 210.8359375 C35.87419678 211.39216797 34.84995605 211.94839844 33.79467773 212.52148438 C24.41467895 217.56592631 16.27574089 220.99159634 5.421875 218.05859375 C-0.95310121 215.19108515 -5.34019798 210.16284233 -8.0390625 203.7734375 C-10.03583074 197.60484989 -9.89556112 191.79321047 -7.27392578 185.82763672 C-2.81720033 177.32789857 4.13342379 173.48628897 12.5859375 169.5859375 C14.64419229 168.60618743 16.70148993 167.624424 18.7578125 166.640625 C19.75876953 166.16592773 20.75972656 165.69123047 21.79101562 165.20214844 C26.56104626 162.86608789 31.2022722 160.30491968 35.8359375 157.7109375 C34.11521745 153.97233518 32.23402618 152.18626713 28.9609375 149.6484375 C23.1998555 145.05757528 17.77447059 140.16437596 12.38623047 135.14355469 C10.84181125 133.7163654 9.28130493 132.3091822 7.71484375 130.90625 C-12.50006905 112.70692768 -12.50006905 112.70692768 -19.1640625 102.7109375 C-19.01066406 103.34 -18.85726562 103.9690625 -18.69921875 104.6171875 C-17.45798175 111.42860375 -17.45798175 111.42860375 -19.375 114.91015625 C-21.19249874 117.00315819 -23.10603256 118.85482747 -25.1640625 120.7109375 C-26.03417969 121.60425781 -26.03417969 121.60425781 -26.921875 122.515625 C-37.31945211 132.64313517 -51.86188919 137.53501901 -66.1640625 137.7109375 C-78.99551057 136.81456208 -89.49699387 132.02190432 -99.1640625 123.7109375 C-100.68 122.56625 -100.68 122.56625 -102.2265625 121.3984375 C-112.2784864 112.20199649 -120.77928001 99.26154219 -121.5 85.328125 C-121.86731999 66.18934837 -116.29359896 51.84040171 -103.1796875 37.671875 C-100.60511967 35.16715978 -98.89509377 33.8062894 -95.2890625 33.3359375 C-91.58432421 33.41409654 -88.41097335 34.53976308 -84.9140625 35.7109375 C-78.8623161 37.69087303 -71.19821679 39.72801464 -65.1640625 36.7109375 C-65.4528125 36.09347656 -65.7415625 35.47601563 -66.0390625 34.83984375 C-68.91987836 28.26798257 -70.72825361 22.57926263 -68.46875 15.546875 C-65.95166669 9.89930152 -62.45295378 6.28150621 -56.81640625 3.58984375 C-53.93488018 2.63499343 -51.69093727 2.47667399 -48.6640625 2.5234375 C-47.74625 2.52988281 -46.8284375 2.53632813 -45.8828125 2.54296875 C-43.1640625 2.7109375 -43.1640625 2.7109375 -40.625 3.3984375 C-37.28691409 3.82232142 -36.03315829 2.77020891 -33.2890625 0.8984375 C-22.84803532 -5.74865661 -10.85081641 -6.4634827 0 0 Z M-28.1640625 15.7109375 C-28.79505848 17.54943033 -29.37063284 19.40718564 -29.9140625 21.2734375 C-33.58207694 32.58878833 -40.77408665 41.60106776 -51.05859375 47.6484375 C-60.41453617 52.36980362 -69.85373308 52.87873671 -80.1640625 52.7109375 C-83.1134242 60.59163196 -83.49129219 68.95462334 -80.6640625 76.9609375 C-76.34714194 86.24382612 -69.65979346 92.09351618 -60.1640625 95.7109375 C-52.25451874 98.15912962 -44.56293925 97.06137226 -37.1640625 93.7109375 C-37.18726563 93.11667969 -37.21046875 92.52242188 -37.234375 91.91015625 C-37.55656098 77.11261443 -33.90136179 65.80420804 -23.609375 54.96875 C-17.94615884 49.73977406 -12.16312447 46.91465242 -4.7890625 44.8359375 C-0.79028281 43.58535389 1.53598169 42.72937209 3.6484375 39.0234375 C5.30020092 34.457794 5.35816426 30.31788834 3.8359375 25.7109375 C0.46754548 19.65001206 -5.39958435 12.89944514 -12.1640625 10.7109375 C-18.6791702 10.18552559 -23.32889491 10.87576991 -28.1640625 15.7109375 Z M152.8359375 23.7109375 C150.40897394 27.65475329 150.7909334 30.97259291 151.25390625 35.4296875 C152.02194862 38.44000121 152.87563589 40.26950709 154.8359375 42.7109375 C157.41730506 43.86530187 159.78273836 44.75740996 162.4609375 45.5859375 C169.29302533 47.92580894 174.59082098 50.61214397 179.8359375 55.7109375 C180.39539063 56.24332031 180.95484375 56.77570313 181.53125 57.32421875 C190.42938547 66.69185383 193.17614674 79.34407999 192.90625 91.875 C192.88304687 92.48085938 192.85984375 93.08671875 192.8359375 93.7109375 C201.15829341 97.47955149 208.68439499 97.97278654 217.4609375 95.2109375 C226.44502957 91.54029417 231.99963634 85.67178416 235.9609375 76.91015625 C237.5673613 72.87258214 237.99841365 69.73757243 238.0234375 65.3984375 C238.03761719 64.28855469 238.05179687 63.17867187 238.06640625 62.03515625 C237.82926907 58.6147539 237.05702251 55.90120307 235.8359375 52.7109375 C235.16949219 52.73414063 234.50304687 52.75734375 233.81640625 52.78125 C218.60750414 53.07904668 207.2551048 49.70887567 196.09375 39.08984375 C190.07379501 32.7470192 187.37053036 26.62891661 184.8359375 18.328125 C183.54934472 14.96087046 181.99704881 13.41307436 178.8359375 11.7109375 C167.11658719 7.8044874 159.54311839 14.68774111 152.8359375 23.7109375 Z M200.8359375 18.7109375 C201.28063079 23.75079481 203.54937112 26.08728738 206.8359375 29.7109375 C209.35852811 27.73673615 209.8289183 26.74348108 210.5234375 23.5234375 C210.6265625 22.5953125 210.7296875 21.6671875 210.8359375 20.7109375 C206.17933 16.33202828 206.17933 16.33202828 200.8359375 18.7109375 Z M-51.4140625 17.1484375 C-53.49488899 18.72301428 -53.49488899 18.72301428 -54.1015625 22.0859375 C-54.47914615 25.66201615 -54.47914615 25.66201615 -52.7265625 28.1484375 C-52.2109375 28.6640625 -51.6953125 29.1796875 -51.1640625 29.7109375 C-48.01420932 26.14662995 -45.6500541 23.30400246 -44.1640625 18.7109375 C-46.82595169 17.37999291 -48.44461311 16.57104456 -51.4140625 17.1484375 Z M-96.1640625 51.7109375 C-103.58180581 61.88655974 -108.10365151 72.2900412 -106.94921875 85.09375 C-105.01293579 95.67876352 -98.52190372 103.22535598 -91.1640625 110.7109375 C-90.5865625 111.30132812 -90.0090625 111.89171875 -89.4140625 112.5 C-81.94406649 119.50312126 -72.08809149 123.12237841 -61.94140625 122.98828125 C-53.39396724 122.13473952 -44.9842643 117.80064033 -38.1640625 112.7109375 C-36.41530893 110.63132306 -36.41530893 110.63132306 -35.1640625 108.7109375 C-35.85371094 108.8553125 -36.54335937 108.9996875 -37.25390625 109.1484375 C-50.3577801 111.73685702 -63.28886199 111.45750607 -75.04296875 104.2109375 C-85.97521243 96.47984805 -92.6598534 86.95542927 -95.8515625 73.8984375 C-96.5840328 66.42724043 -96.28272181 59.12205544 -95.1640625 51.7109375 C-95.4940625 51.7109375 -95.8240625 51.7109375 -96.1640625 51.7109375 Z M250.8359375 51.7109375 C251.0834375 53.350625 251.0834375 53.350625 251.3359375 55.0234375 C253.0625419 69.47105375 250.89983091 82.25036597 242.0859375 94.0546875 C234.14486998 103.66081756 223.25621464 109.41715863 210.8359375 110.7109375 C203.95487961 111.1452449 197.56287945 110.11919451 190.8359375 108.7109375 C194.09986648 113.57283171 197.69535494 115.53964861 202.8359375 117.9609375 C203.5475 118.3115625 204.2590625 118.6621875 204.9921875 119.0234375 C213.49214283 123.14655016 221.2601417 124.17909661 230.3984375 121.0859375 C244.43757379 115.41894437 254.71553021 104.99746907 260.9453125 91.265625 C264.38236366 81.4067151 262.76830183 71.90325999 258.40234375 62.68359375 C255.27201579 56.71524048 255.27201579 56.71524048 250.8359375 51.7109375 Z M-13.1640625 64.7109375 C-14.13396526 65.74184043 -15.08942451 66.78633762 -16.0390625 67.8359375 C-16.57273437 68.41601562 -17.10640625 68.99609375 -17.65625 69.59375 C-19.66206966 72.4102118 -20.67860199 74.24939297 -21.1640625 77.7109375 C-19.70898644 80.48277744 -17.63403812 82.58977444 -15.4765625 84.8359375 C-14.87948486 85.48900879 -14.28240723 86.14208008 -13.66723633 86.81494141 C-11.8497484 88.7967343 -10.00789681 90.75368279 -8.1640625 92.7109375 C-7.14840403 93.81789819 -6.13519152 94.92711053 -5.125 96.0390625 C-3.3117375 98.03434286 -1.48841877 100.01788254 0.34375 101.99609375 C2.61485924 104.47010773 4.82396313 106.98591163 7.0234375 109.5234375 C10.05905771 112.96010509 13.28137454 115.95110224 16.78125 118.90625 C19.01722126 120.87016392 21.07403481 122.95247708 23.1484375 125.0859375 C27.17383812 129.15950531 31.4395975 132.76977634 35.91015625 136.34375 C38.42786349 138.38077348 40.88218209 140.47325802 43.32519531 142.59863281 C51.74211177 149.88702416 60.74097011 156.3025882 69.8359375 162.7109375 C70.95980565 163.51147982 72.08352044 164.31223751 73.20703125 165.11328125 C89.12471553 176.32663081 105.82944524 186.25269051 122.8359375 195.7109375 C123.59583984 196.13487793 124.35574219 196.55881836 125.13867188 196.99560547 C133.53909148 202.09435274 133.53909148 202.09435274 142.8359375 204.7109375 C146.42284295 203.0882898 149.01924754 201.24339021 150.8359375 197.7109375 C150.8359375 193.87724206 150.23767211 192.18578328 147.75390625 189.25 C144.39494639 186.3272103 141.19967035 184.76867726 137.1484375 183.0234375 C97.18876246 164.94994103 60.66147602 138.00118674 28.62109375 108.2734375 C26.12488455 105.976785 23.5868954 103.74423351 21.0234375 101.5234375 C17.58676991 98.48781729 14.59577276 95.26550046 11.640625 91.765625 C9.67671108 89.52965374 7.59439792 87.47284019 5.4609375 85.3984375 C1.28305237 81.28471784 -2.39249893 76.88825135 -6.0234375 72.2890625 C-8.2610651 69.59410955 -10.65352951 67.15124579 -13.1640625 64.7109375 Z M167.8359375 65.7109375 C167.10890625 66.57074219 166.381875 67.43054688 165.6328125 68.31640625 C155.70428612 80.01156245 145.41174145 91.21359479 134.5859375 102.0859375 C133.84134277 102.83520508 133.09674805 103.58447266 132.32958984 104.35644531 C127.66041276 109.01213067 122.85026357 113.43064024 117.8359375 117.7109375 C117.29630371 118.17757812 116.75666992 118.64421875 116.20068359 119.125 C108.29786348 125.95279488 100.1714596 132.42177925 91.8359375 138.7109375 C93.12906425 142.59031775 94.75720261 143.3180119 98.1484375 145.5234375 C99.11394531 146.16925781 100.07945312 146.81507813 101.07421875 147.48046875 C103.65403051 148.96685198 103.65403051 148.96685198 105.80078125 148.234375 C108.6539628 146.09859611 111.39244023 143.85470179 114.0859375 141.5234375 C114.66512939 141.02730957 115.24432129 140.53118164 115.84106445 140.02001953 C117.50992112 138.5881065 119.17375396 137.15058683 120.8359375 135.7109375 C121.58746094 135.06253906 122.33898437 134.41414063 123.11328125 133.74609375 C125.03127242 132.07912801 126.93447188 130.39672918 128.8359375 128.7109375 C129.56393555 128.06705078 130.29193359 127.42316406 131.04199219 126.75976562 C137.17497543 121.29216496 143.09153769 115.64788387 148.8984375 109.8359375 C149.77532227 108.95897217 150.65220703 108.08200684 151.55566406 107.1784668 C156.6859671 102.00261434 161.54668356 96.80588772 166.0078125 91.0390625 C168.59005707 87.750563 171.43899571 84.72554833 174.3046875 81.68359375 C175.95923512 79.55209746 176.69139266 78.40566633 176.8359375 75.7109375 C175.76479761 73.30659329 175.76479761 73.30659329 174.0859375 71.0234375 C173.28929687 69.84201172 173.28929687 69.84201172 172.4765625 68.63671875 C170.89415707 66.44307826 170.89415707 66.44307826 167.8359375 65.7109375 Z M45.0859375 169.23828125 C44.09231201 169.77912354 43.09868652 170.31996582 42.07495117 170.87719727 C41.00607666 171.46170654 39.93720215 172.04621582 38.8359375 172.6484375 C26.26198366 179.51402807 26.26198366 179.51402807 20.56640625 182.4375 C19.79103516 182.83718994 19.01566406 183.23687988 18.21679688 183.64868164 C16.79114767 184.37975531 15.36162514 185.1033414 13.92773438 185.81811523 C10.38178894 187.64373714 7.80711132 189.18132662 5.8359375 192.7109375 C5.16913382 195.66814378 5.16913382 195.66814378 5.8359375 198.7109375 C8.02997366 201.53184113 9.70726804 203.29283907 13.08203125 204.54296875 C16.87900573 204.77455726 19.45721958 203.33458784 22.7109375 201.5859375 C23.38713135 201.2348291 24.0633252 200.8837207 24.76000977 200.52197266 C45.07962291 190.34851775 45.07962291 190.34851775 63.8359375 177.7109375 C63.8359375 177.0509375 63.8359375 176.3909375 63.8359375 175.7109375 C61.71983746 174.08045152 59.61319981 172.57017612 57.3984375 171.0859375 C56.78677734 170.66570312 56.17511719 170.24546875 55.54492188 169.8125 C50.52271664 166.3940708 50.30378248 166.38759987 45.0859375 169.23828125 Z " fill="#375DFF" transform="translate(178.1640625,245.2890625)"/>
<path d="M0 0 C3.42882357 1.08687238 4.32822572 3.61532928 6.0703125 6.65625 C7.39735071 9.23470976 8.64158059 11.84816367 9.8828125 14.46875 C14.05750415 23.04053532 19.04050154 30.14081545 26.0703125 36.65625 C26.61945313 37.18734375 27.16859375 37.7184375 27.734375 38.265625 C41.74151438 51.29284105 61.69860916 58.45564945 80.83984375 57.96875 C84.46726494 57.46052987 87.13537948 55.69876228 90.0703125 53.65625 C107.27853168 42.65625 107.27853168 42.65625 115.0703125 42.65625 C115.2971875 42.12902344 115.5240625 41.60179687 115.7578125 41.05859375 C117.51839287 37.8361029 119.77797352 35.07086909 122.0703125 32.21875 C123.05933617 30.97715353 124.04759904 29.7349507 125.03515625 28.4921875 C125.53772949 27.86022461 126.04030273 27.22826172 126.55810547 26.57714844 C128.04128263 24.69312553 129.49988427 22.79295846 130.94921875 20.8828125 C131.62694336 19.99033813 131.62694336 19.99033813 132.31835938 19.07983398 C133.18066357 17.94093259 134.04014117 16.79988438 134.89648438 15.65649414 C137.85053266 11.76613992 137.85053266 11.76613992 140.0703125 10.65625 C143.62589826 10.26118492 145.44663442 10.23260025 148.4453125 12.26953125 C151.42695902 14.98052236 153.8393674 17.9539315 156.2578125 21.15625 C160.76695589 27.02984948 165.44279485 32.71319681 170.26953125 38.328125 C172.0703125 40.65625 172.0703125 40.65625 172.0703125 42.65625 C173.2459375 42.82125 174.4215625 42.98625 175.6328125 43.15625 C184.52964223 45.11298945 193.01642657 50.43090714 200.3828125 55.65625 C207.89280828 60.39603411 217.88495885 57.35544467 226.05078125 55.62109375 C244.72772043 51.32331316 261.03034826 40.25669027 272.0703125 24.65625 C276.11695295 18.02829933 279.42650008 10.99196523 282.7734375 3.9921875 C284.0703125 1.65625 284.0703125 1.65625 286.0703125 0.65625 C292.1953125 -0.02430556 292.1953125 -0.02430556 295.3203125 2.40625 C304.28516707 19.05526563 302.77608778 42.89147584 298.0703125 60.65625 C293.91016142 74.00530622 287.41447545 86.23899413 278.0703125 96.65625 C277.25820313 97.56246094 276.44609375 98.46867187 275.609375 99.40234375 C266.83779339 108.67552606 256.66183365 115.32415027 245.0703125 120.65625 C245.4003125 121.64625 245.7303125 122.63625 246.0703125 123.65625 C246.17315706 125.43468766 246.21879326 127.21668295 246.23144531 128.99804688 C246.24105286 130.08927856 246.2506604 131.18051025 246.26055908 132.30480957 C246.2669339 134.07205383 246.2669339 134.07205383 246.2734375 135.875 C246.27913757 137.08442261 246.28483765 138.29384521 246.29071045 139.53991699 C246.30016115 142.09870528 246.30669471 144.65750575 246.31054688 147.21630859 C246.32027349 151.14051332 246.35130563 155.06419902 246.3828125 158.98828125 C246.38934036 161.47135105 246.39459168 163.9544246 246.3984375 166.4375 C246.4107843 167.61566284 246.4231311 168.79382568 246.43585205 170.00769043 C246.43285095 171.09892212 246.42984985 172.19015381 246.42675781 173.31445312 C246.43040344 174.27581177 246.43404907 175.23717041 246.43780518 176.22766113 C246.00299887 179.10109457 245.38278492 179.95005677 243.0703125 181.65625 C239.81659705 182.74082182 237.4613193 182.77671857 234.03833008 182.76977539 C232.79727005 182.76969986 231.55621002 182.76962433 230.27754211 182.76954651 C228.92330892 182.76443991 227.56907613 182.75922391 226.21484375 182.75390625 C224.82907665 182.75204083 223.44330889 182.75061751 222.05754089 182.74961853 C218.4128334 182.7458031 214.76816585 182.73598113 211.12347412 182.72491455 C207.40328512 182.7146795 203.68308965 182.71011642 199.96289062 182.70507812 C192.66534639 182.69435798 185.36783504 182.67729325 178.0703125 182.65625 C178.17024002 184.02210739 178.17024002 184.02210739 178.27218628 185.41555786 C183.39532419 258.74570786 183.39532419 258.74570786 169.69519043 274.74829102 C162.20155765 282.46685547 152.30565579 291.3600105 141.0703125 291.65625 C139.05639648 290.63793945 139.05639648 290.63793945 137.37890625 288.95703125 C136.71101074 288.30814941 136.04311523 287.65926758 135.35498047 286.99072266 C134.60104004 286.22034668 133.84709961 285.4499707 133.0703125 284.65625 C131.65119309 283.27161527 130.23206039 281.88699412 128.81265259 280.50265503 C126.75833386 278.48719744 124.72585652 276.45050774 122.69506836 274.41137695 C121.11491606 272.82579204 119.52939274 271.24571558 117.94335938 269.66601562 C116.93457444 268.65657108 115.92609912 267.64681701 114.91796875 266.63671875 C114.01054932 265.72817139 113.10312988 264.81962402 112.16821289 263.88354492 C108.66395374 260.16314969 108.9321773 257.24009627 108.95678711 252.36083984 C108.95664108 251.60952286 108.95649506 250.85820587 108.9563446 250.0841217 C108.95704254 247.5951145 108.96482936 245.10618167 108.97265625 242.6171875 C108.97452085 240.89368735 108.97594456 239.17018666 108.97694397 237.44668579 C108.98076581 232.90599103 108.99059328 228.36532815 109.00164795 223.824646 C109.01186921 219.19299755 109.01644313 214.56134397 109.02148438 209.9296875 C109.03221583 200.83852764 109.04928828 191.74739147 109.0703125 182.65625 C107.921856 182.66624275 107.921856 182.66624275 106.75019836 182.67643738 C99.52614834 182.73660961 92.30222026 182.78225528 85.07798481 182.81168652 C81.36413676 182.82732623 77.65049622 182.84853309 73.93676758 182.88256836 C70.35115209 182.91522295 66.76573588 182.93311576 63.17998314 182.94088173 C61.81366019 182.94641435 60.44734785 182.95721836 59.08111 182.97344017 C57.16396393 182.99529275 55.24661628 182.99647607 53.3293457 182.99682617 C52.23902542 183.00348801 51.14870514 183.01014984 50.02534485 183.01701355 C46.37002829 182.57075618 43.69226564 181.27820314 41.0703125 178.65625 C40.96627404 176.94852578 40.93178026 175.23651194 40.92504883 173.52563477 C40.91866898 172.43102432 40.91228912 171.33641388 40.90571594 170.20863342 C40.90460312 169.01701096 40.9034903 167.82538849 40.90234375 166.59765625 C40.89735115 164.77571999 40.89735115 164.77571999 40.89225769 162.91697693 C40.88718327 160.34203471 40.88484952 157.76708589 40.88500977 155.19213867 C40.88282387 151.23931103 40.86467488 147.28676255 40.84570312 143.33398438 C40.84276928 140.83854263 40.84078442 138.34309955 40.83984375 135.84765625 C40.83265823 134.65805801 40.82547272 133.46845978 40.81806946 132.24281311 C40.82114609 131.14505051 40.82422272 130.0472879 40.82739258 128.91625977 C40.82596756 127.9466481 40.82454254 126.97703644 40.82307434 125.9780426 C41.0703125 123.65625 41.0703125 123.65625 43.0703125 121.65625 C41.95914063 121.0271875 40.84796875 120.398125 39.703125 119.75 C15.08906724 105.65673493 -2.81471134 87.15915815 -11.1875 59.55859375 C-15.83207142 41.395875 -16.17934613 19.85540978 -7.9296875 2.65625 C-5.3955755 0.122138 -3.46738733 0.26367965 0 0 Z M143.0703125 29.65625 C142.12736513 30.70046494 141.22487496 31.78126588 140.33984375 32.875 C139.78361328 33.56078125 139.22738281 34.2465625 138.65429688 34.953125 C138.06970703 35.68015625 137.48511719 36.4071875 136.8828125 37.15625 C136.03493164 38.20039062 136.03493164 38.20039062 135.16992188 39.265625 C133.4559539 41.38599776 131.74982337 43.50838217 130.0703125 45.65625 C129.56626892 46.15588257 129.06222534 46.65551514 128.54290771 47.17028809 C122.66990651 53.59289764 123.2997844 60.68254385 123.484375 68.875 C123.49558338 70.34328467 123.5041158 71.81159198 123.51010132 73.27990723 C123.53287169 77.12080224 123.59168787 80.96030823 123.6583252 84.80065918 C123.73087444 89.42106424 123.75811038 94.04193711 123.79304504 98.66275024 C123.85097989 105.66154577 123.96602353 112.65730143 124.0703125 119.65625 C137.2703125 119.65625 150.4703125 119.65625 164.0703125 119.65625 C164.39106699 108.42119775 164.39106699 108.42119775 164.60742188 97.18554688 C164.67281486 92.59156948 164.74955219 88.00003655 164.90014648 83.40795898 C166.39390581 64.81120597 166.39390581 64.81120597 160.34465027 48.07797241 C158.07604114 45.68664514 155.66634484 43.69090331 153.0703125 41.65625 C151.33764648 39.58862305 151.33764648 39.58862305 150.0625 37.76171875 C147.10879726 33.67728245 147.10879726 33.67728245 144.0703125 29.65625 C143.7403125 29.65625 143.4103125 29.65625 143.0703125 29.65625 Z M1.0703125 31.65625 C-0.05070759 51.58549599 6.04247336 70.34103581 19.14453125 85.5546875 C19.78003906 86.24820313 20.41554688 86.94171875 21.0703125 87.65625 C21.63363281 88.28789062 22.19695312 88.91953125 22.77734375 89.5703125 C30.25150334 97.51707703 39.9354913 103.67929484 50.0703125 107.65625 C53.28087885 106.05096683 53.6004673 102.63969036 54.6953125 99.40625 C57.53823549 91.39077405 61.38743494 84.73548282 66.0703125 77.65625 C67.07896553 75.9948058 68.08203591 74.32989487 69.0703125 72.65625 C67.8121875 72.37652344 66.5540625 72.09679687 65.2578125 71.80859375 C40.26953475 66.04678719 18.46177577 55.59463375 3.56640625 33.74609375 C3.07269531 33.05644531 2.57898438 32.36679688 2.0703125 31.65625 C1.7403125 31.65625 1.4103125 31.65625 1.0703125 31.65625 Z M285.0703125 31.65625 C284.01452037 33.03624497 282.96340526 34.42007132 281.9362793 35.8215332 C266.04130599 57.43262353 243.79059917 67.33481138 218.0703125 72.65625 C218.6890625 73.56890625 218.6890625 73.56890625 219.3203125 74.5 C223.0261018 80.12485876 226.30516002 85.82473774 229.3203125 91.84375 C229.64902344 92.49601562 229.97773438 93.14828125 230.31640625 93.8203125 C232.54349746 98.33812611 234.36254895 102.91773323 236.0703125 107.65625 C254.77019565 101.6199446 268.80139413 87.59583237 278.0703125 70.65625 C284.48336339 57.79816293 286.59382335 45.84921086 286.0703125 31.65625 C285.7403125 31.65625 285.4103125 31.65625 285.0703125 31.65625 Z M55.0703125 134.65625 C55.0703125 145.54625 55.0703125 156.43625 55.0703125 167.65625 C113.4803125 167.65625 171.8903125 167.65625 232.0703125 167.65625 C232.0703125 156.76625 232.0703125 145.87625 232.0703125 134.65625 C173.6603125 134.65625 115.2503125 134.65625 55.0703125 134.65625 Z M124.0703125 182.65625 C123.51561585 194.9884467 123.51561585 194.9884467 123.14257812 207.32226562 C123.02987434 212.37253206 122.89818934 217.41612962 122.63696289 222.46118164 C120.96197806 242.91964193 120.96197806 242.91964193 128.38427734 261.22021484 C132.80600904 265.99004529 137.66785431 270.04268208 143.0703125 273.65625 C143.48997284 273.2823111 143.90963318 272.90837219 144.3420105 272.52310181 C147.37968014 269.86172397 150.3570855 267.42681103 153.78564453 265.28662109 C159.56578024 261.24962618 163.38329433 257.07943053 164.8026123 250.00744629 C165.94820103 239.99719869 165.41515181 229.82480209 165.03161621 219.78204346 C164.86151869 214.85318503 164.79864381 209.92187363 164.7172699 204.99090576 C164.5825776 197.54102861 164.3141531 190.10693515 164.0703125 182.65625 C150.8703125 182.65625 137.6703125 182.65625 124.0703125 182.65625 Z " fill="#5B3FFF" transform="translate(112.9296875,47.34375)"/>
<path d="M0 0 C0.2475 0.61875 0.495 1.2375 0.75 1.875 C1.81105913 4.16137472 1.81105913 4.16137472 4.0625 4.875 C6 6 6 6 6.875 8.875 C7.00958207 12.23955187 6.97700847 13.33533641 5 16 C1.9532342 19.0467658 0.13433315 20.84430722 -4.1875 21.4375 C-7 21 -7 21 -10 19 C-10 18.34 -10 17.68 -10 17 C-10.639375 16.814375 -11.27875 16.62875 -11.9375 16.4375 C-14 15 -14 15 -15.1875 11.875 C-14.94966238 6.95968926 -13.45877544 5.02352208 -10.125 1.53515625 C-6.63760407 -0.98423089 -4.16987789 -0.58524602 0 0 Z " fill="#494EFF" transform="translate(206,188)"/>
<path d="M0 0 C3.91517787 2.62529369 6.57166159 5.4184428 7.8125 10 C6.65578345 14.27095343 4.19113074 16.99901436 1 20 C-1.99972546 21.49986273 -3.65514879 21.5048832 -7 21 C-9.88321423 19.05281925 -12.05576178 16.88554087 -14 14 C-14.68007776 9.46614824 -14.54800972 7.82201458 -12 4 C-11.34 4 -10.68 4 -10 4 C-9.67 3.01 -9.34 2.02 -9 1 C-5.75315316 -0.62342342 -3.5965519 -0.47167894 0 0 Z " fill="#5D3EFF" transform="translate(308,188)"/>
<path d="M0 0 C4.49817511 0.98142002 6.19969842 2.51219842 9.4375 5.75 C11.06092342 8.99684684 10.90917894 11.1534481 10.4375 14.75 C7.83066546 18.6376492 5.01069989 21.28138727 0.5 22.625 C-4.26667032 21.26309419 -7.48030114 18.60086459 -10.5625 14.75 C-11.5 11.25 -11.5 11.25 -10.5625 7.75 C-7.70522057 3.50561108 -5.05287272 1.06376268 0 0 Z " fill="#5446FF" transform="translate(256.5625,187.25)"/>
<path d="M0 0 C2 1.625 2 1.625 3 4 C2.93439072 7.739729 2.76345433 10.0603639 0.375 13 C-3.11581787 14.46981805 -5.39148956 13.98413921 -9 13 C-11 11.375 -11 11.375 -12 9 C-11.93439072 5.260271 -11.76345433 2.9396361 -9.375 0 C-5.88418213 -1.46981805 -3.60851044 -0.98413921 0 0 Z " fill="#4A4EFF" transform="translate(261,243)"/>
<path d="M0 0 C1.9375 1.625 1.9375 1.625 3 4 C2.87890756 7.45113452 2.63213135 9.96862779 0.8125 12.9375 C-2.00547398 14.58941578 -3.79404815 14.5129523 -7 14 C-9.9375 11.9375 -9.9375 11.9375 -12 9 C-12.125 5.375 -12.125 5.375 -11 2 C-7.37154796 -1.31744186 -4.6081237 -1.50264903 0 0 Z " fill="#4454FF" transform="translate(261,277)"/>
<path d="M0 0 C3.5 0.5625 3.5 0.5625 5.9375 2.1875 C7.97161336 5.27935231 8.10605429 6.92617425 7.5 10.5625 C5.9375 12.9375 5.9375 12.9375 3.5 14.5625 C0.04249555 14.98710581 -2.33167192 15.26349685 -5.375 13.4375 C-7.01040601 10.71182332 -7.436318 8.74659977 -7.5 5.5625 C-5.45638108 1.64556373 -4.39720316 0.70669337 0 0 Z " fill="#6436FF" transform="translate(256.5,105.4375)"/>
<path d="M0 0 C3.5 0.625 3.5 0.625 6 2.6875 C7.94931249 6.50490362 7.65426305 8.54660388 6.5 12.625 C2.81282562 15.08311625 0.85654296 14.93618164 -3.5 14.625 C-6.5 12.625 -6.5 12.625 -7.4375 9.3125 C-7.5 5.625 -7.5 5.625 -6 2.6875 C-3.5 0.625 -3.5 0.625 0 0 Z " fill="#5E3DFF" transform="translate(256.5,139.375)"/>
</svg>
