<?xml version="1.0" encoding="UTF-8"?>
<svg version="1.1" xmlns="http://www.w3.org/2000/svg" width="512" height="512">
<path d="M0 0 C4.71736808 2.98892441 6.97160981 6.81842134 9.625 11.5625 C10.38387185 12.89949888 11.14676755 14.23422347 11.9140625 15.56640625 C12.2435791 16.15365479 12.5730957 16.74090332 12.91259766 17.34594727 C14.09440499 19.14359986 15.4347822 20.53103891 17 22 C21.13787258 17.39692281 25.02112455 12.75906477 28.54296875 7.6640625 C30.2280584 5.73953652 31.62055513 4.91411106 34 4 C41.07635986 3.86124785 44.92824539 7.61130998 50 12 C50.74507812 12.60070312 51.49015625 13.20140625 52.2578125 13.8203125 C64.63129099 24.12435905 75.90382115 40.66613884 78 57 C77.26078589 61.13959902 76.11071539 63.27207094 73 66 C71.22241211 66.89135742 71.22241211 66.89135742 69.27734375 67.60546875 C68.57416016 67.86650391 67.87097656 68.12753906 67.14648438 68.39648438 C66.41751953 68.65751953 65.68855469 68.91855469 64.9375 69.1875 C64.20466797 69.46013672 63.47183594 69.73277344 62.71679688 70.01367188 C57.29546523 72 57.29546523 72 55 72 C58.21106876 77.2190029 62.07530166 81.4656261 66.3125 85.875 C70.10322539 89.84550752 73.86913447 93.81326144 77.453125 97.97265625 C81.26028852 102.36111938 85.31966788 106.4669064 89.4375 110.5625 C90.14970703 111.27857422 90.86191406 111.99464844 91.59570312 112.73242188 C96.23346098 117.36175511 101.03706978 121.72406578 106 126 C107.56611473 127.41266958 109.1291647 128.82875344 110.6875 130.25 C119.06299127 137.79433565 127.68978772 145.03158681 136.5 152.0625 C137.07524414 152.52769043 137.65048828 152.99288086 138.24316406 153.47216797 C142.70107834 157.14546662 142.70107834 157.14546662 148 159 C150.51552794 157.49378883 152.43958274 156.08607747 154.625 154.1875 C155.24036621 153.67703125 155.85573242 153.1665625 156.48974609 152.640625 C157.74522962 151.59747785 158.99479482 150.54716576 160.23828125 149.48974609 C162.65983663 147.44202839 165.1463013 145.4779151 167.625 143.5 C172.65909472 139.36299727 177.44673435 134.99082707 182.22265625 130.5625 C184.49651223 128.46454005 186.79026748 126.40438521 189.125 124.375 C189.75664062 123.82457031 190.38828125 123.27414062 191.0390625 122.70703125 C192.40770387 121.5156044 193.77759536 120.32561275 195.1484375 119.13671875 C200.68390974 114.25410121 205.95915553 109.14598542 211.1875 103.9375 C212.18523437 102.94665405 212.18523437 102.94665405 213.203125 101.93579102 C217.07862341 98.0482539 220.76474377 94.05065957 224.3503418 89.89477539 C225.87590746 88.14253103 227.43297416 86.431347 229.01953125 84.734375 C229.48423828 84.23679687 229.94894531 83.73921875 230.42773438 83.2265625 C231.36785071 82.22412533 232.3106568 81.22420527 233.25585938 80.2265625 C235.6628969 77.64009742 237.64721377 75.28422091 239 72 C238.46632813 71.82984375 237.93265625 71.6596875 237.3828125 71.484375 C233.09203945 70.08876024 228.83976748 68.61152874 224.625 67 C223.81289063 66.690625 223.00078125 66.38125 222.1640625 66.0625 C219.19434801 64.60444523 217.50385962 63.24390345 216.25 60.1484375 C214.97020139 49.15016817 222.98689934 35.66037135 229.4375 27.1875 C230.61250555 25.78113273 231.80005721 24.38515135 233 23 C233.88945313 21.89591797 233.88945313 21.89591797 234.796875 20.76953125 C240.53145838 13.88566153 247.70474132 6.39501875 256.55859375 4.0625 C260.5791222 3.98948246 261.92229615 4.45999816 265 7 C267.31640625 9.8125 267.31640625 9.8125 269.5625 13 C272.15119276 16.66095891 274.35715973 19.41140238 278 22 C278.34256836 21.44014404 278.68513672 20.88028809 279.03808594 20.3034668 C280.60073825 17.75980436 282.17520111 15.22365868 283.75 12.6875 C284.28882813 11.80642578 284.82765625 10.92535156 285.3828125 10.01757812 C286.17558594 8.74624023 286.17558594 8.74624023 286.984375 7.44921875 C287.46616211 6.66893311 287.94794922 5.88864746 288.44433594 5.0847168 C290.99892219 1.66136275 293.04478598 0.183695 297.25 -0.625 C302.7330071 0.28883452 305.21715893 3.07972006 309 7 C309.46051758 7.47679199 309.92103516 7.95358398 310.39550781 8.44482422 C311.90075774 10.01481077 313.39141016 11.59703729 314.875 13.1875 C315.35163086 13.69829102 315.82826172 14.20908203 316.31933594 14.73535156 C322.04034445 21.02312187 322.04034445 21.02312187 321.9375 26.0625 C321.00931596 31.37635365 318.35394197 36.1965686 316 41 C330.14567005 41.82490948 342.83232196 39.32052229 355.29150391 32.69335938 C359.32231884 30.58109041 362.34456053 29.11174971 367 30 C372.35715363 33.41393766 374.47143728 37.09772416 376.6875 42.9375 C376.98148682 43.69401855 377.27547363 44.45053711 377.57836914 45.22998047 C385.35817263 65.87045268 386.18552789 89.80065585 377.19921875 110.25 C373.5668958 118.021231 369.22904735 125.19007787 364 132 C363.360625 132.886875 362.72125 133.77375 362.0625 134.6875 C348.39907535 150.00709734 327.74063687 160.59373 307.27734375 162.21582031 C281.46165853 163.44978876 281.46165853 163.44978876 274.25 157.57421875 C272.16023295 154.94241837 271.97775649 152.24755299 272 149 C272.42367536 145.71227919 272.965876 142.45377224 273.5078125 139.18359375 C275.01100745 129.46054703 272.96234262 120.51969783 271 111 C270.34 111 269.68 111 269 111 C267.71255886 112.45029169 266.49763224 113.96497157 265.3125 115.5 C256.03027334 127.06957981 245.51961598 137.56245158 235.0625 148.0625 C234.28213379 148.84753906 233.50176758 149.63257813 232.69775391 150.44140625 C228.52216265 154.60541102 224.26229003 158.60459256 219.79321289 162.4519043 C217.37494947 164.53961136 215.03403531 166.70728309 212.6875 168.875 C208.15109794 173.01501742 203.48970025 176.94999551 198.703125 180.796875 C195.4184465 183.47398291 192.20676125 186.23041868 189 189 C207.54162825 200.62857673 226.62755925 210.96255714 246.2578125 220.63623047 C261.16394685 227.9897691 261.16394685 227.9897691 263.5 230.8125 C264.25372792 234.11005964 263.6914059 236.70360017 263 240 C261.3203125 242.66796875 261.3203125 242.66796875 259.125 245.1875 C257.91457031 246.58935547 257.91457031 246.58935547 256.6796875 248.01953125 C255.78861154 249.01495253 254.89530511 250.00838079 254 251 C253.53110352 251.52384277 253.06220703 252.04768555 252.57910156 252.58740234 C249.4285323 256.09855331 246.24128346 259.57209719 243 263 C242.25234375 263.94101562 241.5046875 264.88203125 240.734375 265.8515625 C237.40903 268.46433357 235.62132833 268.74039649 231.48095703 268.48925781 C226.69181183 267.54481312 222.66668249 265.23555073 218.4375 262.875 C217.44226318 262.33657471 216.44702637 261.79814941 215.42163086 261.2434082 C212.26575239 259.52172781 209.13042867 257.76749118 206 256 C205.00387695 255.43877441 204.00775391 254.87754883 202.98144531 254.29931641 C191.53918154 247.81160921 180.2907844 241.01389697 169.125 234.0625 C168.15699463 233.46010498 167.18898926 232.85770996 166.19165039 232.23706055 C160.665249 228.76558703 155.40528752 225.14008572 150.28466797 221.08764648 C148.00367477 219.69902664 148.00367477 219.69902664 145.4074707 220.69189453 C142.23742745 222.41434578 139.27628017 224.38887135 136.3125 226.4375 C119.43814184 237.86503222 101.72345199 247.9602216 84 258 C83.0522168 258.54237305 82.10443359 259.08474609 81.12792969 259.64355469 C78.57579576 261.09650679 76.01042822 262.52177892 73.4375 263.9375 C72.70732666 264.35652588 71.97715332 264.77555176 71.22485352 265.20727539 C66.25513237 267.88274671 61.64033867 269.26054058 56 268 C53.30078125 265.88671875 53.30078125 265.88671875 51 263 C50.06442025 261.99856715 49.11999502 261.00534218 48.16796875 260.01953125 C31.76352784 242.45132621 31.76352784 242.45132621 29.8125 236.1875 C30.0340611 232.42096136 30.73902433 231.00067759 33 228 C35.19947828 226.63912877 37.22642926 225.56104539 39.5625 224.5 C41.00561022 223.80943296 42.448287 223.11795971 43.890625 222.42578125 C44.69564453 222.04502441 45.50066406 221.66426758 46.33007812 221.27197266 C62.6108735 213.51566835 78.54486653 205.29431074 94 196 C95.67642578 195.00226563 95.67642578 195.00226563 97.38671875 193.984375 C99.59675818 192.66513249 101.80199085 191.33914696 104 190 C102.1269922 185.41471314 98.74460157 183.07077761 94.99609375 180 C92.8936432 177.89343507 92.26468764 176.92332795 92 174 C92.91967383 170.24466518 93.76447085 167.27685385 97 165 C100.30916149 163.71310386 101.79456925 163.92958823 105.1796875 165.08984375 C109.69717688 167.11752688 113.16340061 170.21441803 116.875 173.4375 C124.62614032 179.99543654 132.68527113 185.88735562 141.04345703 191.64013672 C143.38608589 193.2683427 145.69059562 194.94459145 147.99462891 196.62670898 C173.54254486 215.20805486 202.40098468 235.59651463 232 247 C234.31 244.36 236.62 241.72 239 239 C237.07044331 237.98444385 235.1408627 236.9689331 233.21118164 235.95361328 C231.50294243 235.05429648 229.79510879 234.15420896 228.08764648 233.25341797 C223.80431453 230.99499785 219.51698357 228.74609517 215.2109375 226.53125 C195.98972731 216.6110158 177.84423986 205.20711999 160 193 C159.12746582 192.40364746 158.25493164 191.80729492 157.35595703 191.19287109 C147.23669983 184.25218272 137.30030059 177.15760708 127.765625 169.43017578 C125.82883248 167.86135242 123.88329453 166.30373519 121.9375 164.74609375 C115.18121771 159.318232 108.53432959 153.82480806 102.14453125 147.96484375 C100.18621872 146.17061569 98.19773863 144.42304764 96.1875 142.6875 C86.8538883 134.52058976 77.90806249 126.00503415 69.125 117.25 C68.32860107 116.45819336 67.53220215 115.66638672 66.71166992 114.85058594 C62.51487294 110.6427899 58.47602173 106.35722193 54.59912109 101.85302734 C52.20556362 99.07942411 49.73033662 96.38336445 47.25 93.6875 C46.78207031 93.17638672 46.31414062 92.66527344 45.83203125 92.13867188 C43.60169696 89.70931342 41.35963945 87.3045812 39 85 C37.35 86.65 35.7 88.3 34 90 C35.37732999 94.10284014 37.23643659 96.66842384 40.1875 99.8125 C40.99832031 100.68777344 41.80914062 101.56304687 42.64453125 102.46484375 C43.42183594 103.30144531 44.19914063 104.13804687 45 105 C46.13096782 106.28644455 47.25647231 107.57772455 48.375 108.875 C56.25827218 117.881906 64.42482983 126.52329237 72.875 135 C73.69581055 135.82540283 74.51662109 136.65080566 75.36230469 137.5012207 C76.14766602 138.28456787 76.93302734 139.06791504 77.7421875 139.875 C78.79188721 140.92300781 78.79188721 140.92300781 79.86279297 141.9921875 C82.14336603 144.13468612 84.55544937 146.04888739 87 148 C89.10260786 150.67604636 89.11540024 152.77502677 88.875 156.0625 C88.4314488 158.80537985 88.17530433 159.79872466 86.3125 161.9375 C83.34257591 163.30205972 81.2969226 163.93535446 78 164 C72.26696159 161.23690302 68.20900021 157.62530048 63.78125 153.109375 C63.11967896 152.44593079 62.45810791 151.78248657 61.77648926 151.09893799 C60.38473101 149.70048899 58.99655915 148.2984625 57.61181641 146.89306641 C55.51320325 144.76339863 53.40420845 142.64448764 51.29296875 140.52734375 C49.93427356 139.15947198 48.57618087 137.79100145 47.21875 136.421875 C46.59875122 135.79762634 45.97875244 135.17337769 45.33996582 134.5302124 C39.22716202 128.31912075 33.5558615 121.7610603 28.0625 115 C27.29035156 114.05125 26.51820313 113.1025 25.72265625 112.125 C25.15417969 111.42375 24.58570313 110.7225 24 110 C20.30519696 120.03871016 19.0706713 129.51030383 20.5546875 140.17578125 C20.65676514 140.92674072 20.75884277 141.6777002 20.86401367 142.45141602 C21.07644618 143.96088927 21.30528706 145.46816186 21.55200195 146.97241211 C22.04362143 150.43431501 22.14502377 152.6606991 20.7578125 155.90625 C17.02159034 160.35650572 11.51939955 161.28639342 6 162 C-18.69041602 163.54597333 -39.35445956 158.41801908 -59 143 C-59.68191406 142.48179687 -60.36382812 141.96359375 -61.06640625 141.4296875 C-76.49921891 128.92639113 -86.52034867 108.48959595 -89 89 C-90.02757962 69.22663318 -88.90293573 48.23272559 -76 32 C-72.42509927 29.61673284 -71.22080131 29.5360112 -67 30 C-64.26619628 31.06608073 -61.71652325 32.44183627 -59.125 33.8125 C-47.18905843 39.75769476 -35.37407423 41.68390152 -22 41 C-22.44472656 40.05898438 -22.88945313 39.11796875 -23.34765625 38.1484375 C-23.92007586 36.89099115 -24.49164573 35.63315775 -25.0625 34.375 C-25.35705078 33.75753906 -25.65160156 33.14007813 -25.95507812 32.50390625 C-27.86615561 28.23208598 -28.4542965 25.47241812 -27 21 C-20.95381097 11.75526901 -11.90289862 -1.00872022 0 0 Z M-6 24 C-7.6442351 28.93270529 -6.18615592 31.54024193 -4 36 C-2.35 35.34 -0.7 34.68 1 34 C0.21516341 32.51719804 -0.57809334 31.0388502 -1.375 29.5625 C-1.81585938 28.73878906 -2.25671875 27.91507812 -2.7109375 27.06640625 C-3.83418559 24.86533422 -3.83418559 24.86533422 -6 24 Z M299 24 C297.94345583 25.47506444 296.9292999 26.98064696 295.9375 28.5 C295.11572266 29.75296875 295.11572266 29.75296875 294.27734375 31.03125 C293.64505859 32.00578125 293.64505859 32.00578125 293 33 C294.37485532 34.54166642 294.37485532 34.54166642 296 36 C296.66 36 297.32 36 298 36 C300.91519551 30.23647361 300.91519551 30.23647361 300 24 C299.67 24 299.34 24 299 24 Z M37 27 C36.46632813 27.6290625 35.93265625 28.258125 35.3828125 28.90625 C19.90882617 46.68259416 0.56159503 56.7441026 -23 59 C-36.42915252 59.88800661 -49.44404911 57.92104509 -61.86328125 52.671875 C-64.14862297 51.7238547 -64.14862297 51.7238547 -67 53 C-73.52350061 66.72335078 -72.71679721 84.32868587 -68.32421875 98.5390625 C-61.00348275 117.67231353 -48.51000476 130.7598515 -30.0859375 139.30078125 C-19.66617004 143.82418618 -9.23078959 144.46083787 2 144 C1.98428955 143.44763672 1.9685791 142.89527344 1.95239258 142.32617188 C1.30387674 115.90394021 6.03775809 93.19312879 24.69921875 73.33984375 C25.45847656 72.56769531 26.21773438 71.79554688 27 71 C27.68707031 70.30003906 28.37414062 69.60007812 29.08203125 68.87890625 C37.08378134 61.26314039 46.85181457 56.19613265 57 52 C50.68800068 37.64614233 50.68800068 37.64614233 39.22265625 27.6953125 C38.48917969 27.46585937 37.75570312 27.23640625 37 27 Z M249 32 C246.50799345 35.06245835 246.50799345 35.06245835 244.3125 38.375 C243.56613281 39.45523438 242.81976563 40.53546875 242.05078125 41.6484375 C239.96799961 45.05229777 238.47381412 48.30376776 237 52 C238.03898437 52.49628906 239.07796875 52.99257813 240.1484375 53.50390625 C262.53496687 64.33817974 279.29454444 79.38472109 287.78125 103.171875 C292.25249616 116.70981477 292.40145882 129.8851196 292 144 C311.92721871 144.81768223 329.42019519 139.72613515 344.5390625 126.46875 C358.03691636 112.92804581 365.17652035 96.12502832 365.4375 77.125 C365.40852044 68.79298613 364.62977442 60.63587996 361 53 C357.08174603 51.69391534 354.75772592 52.94233927 351.0625 54.3125 C328.34932992 62.24941374 305.68704106 59.75635941 284.140625 49.66015625 C274.0144422 44.49694722 265.75643395 37.40647372 258.55859375 28.65234375 C258.04425781 28.10707031 257.52992188 27.56179688 257 27 C253.55788497 27 251.35984253 29.71475656 249 32 Z M254 84 C246.61078835 91.99339358 246.61078835 91.99339358 239.375 100.125 C238.54548828 101.07632813 238.54548828 101.07632813 237.69921875 102.046875 C236.5323077 103.38815207 235.36840216 104.73204804 234.20703125 106.078125 C229.00036033 111.99983196 223.50268613 117.60361402 217.9375 123.1875 C216.80380981 124.32807861 216.80380981 124.32807861 215.6472168 125.49169922 C211.50027406 129.62736696 207.26674592 133.59472944 202.82885742 137.41625977 C200.22176822 139.67392732 197.71110847 142.02433813 195.1875 144.375 C188.38960049 150.64676292 181.25488322 156.45097469 173.9765625 162.15625 C173.28731689 162.69967041 172.59807129 163.24309082 171.88793945 163.80297852 C170.52111319 164.87942856 169.14994263 165.95038876 167.77416992 167.01538086 C166.14588318 168.29808758 164.56767629 169.64388596 163 171 C163 171.66 163 172.32 163 173 C164.41080458 174.39997286 164.41080458 174.39997286 166.25 175.6875 C166.85328125 176.14511719 167.4565625 176.60273438 168.078125 177.07421875 C169.92323697 178.14247359 169.92323697 178.14247359 171.85546875 177.95703125 C175.04630624 176.53306917 177.47186413 174.2932806 180.0625 172 C181.22969702 170.98739102 182.39767739 169.97568433 183.56640625 168.96484375 C184.14664551 168.46065918 184.72688477 167.95647461 185.32470703 167.43701172 C187.67233476 165.42329315 190.08530443 163.49496562 192.5 161.5625 C198.37192788 156.78143826 203.88224881 151.6504205 209.40771484 146.47900391 C211.82998945 144.22905917 214.29453788 142.02611086 216.75 139.8125 C221.89370006 135.10029542 226.87118962 130.23618574 231.8125 125.3125 C232.51793945 124.61165283 233.22337891 123.91080566 233.95019531 123.1887207 C238.50431569 118.62116792 242.79605809 113.88952108 247 109 C248.07818962 107.77625237 249.15758507 106.5535659 250.23828125 105.33203125 C251.26339282 104.1591792 252.28813604 102.98600507 253.3125 101.8125 C254.09850586 100.92788086 254.09850586 100.92788086 254.90039062 100.02539062 C257.67470704 96.83190732 259.72124013 94.11528177 261 90 C258.69 88.02 256.38 86.04 254 84 Z M117.265625 203.203125 C116.47526855 203.68257568 115.68491211 204.16202637 114.87060547 204.65600586 C113.57340576 205.44503296 113.57340576 205.44503296 112.25 206.25 C93.2212256 217.71736727 73.9624904 228.25015925 54 238 C54.93137592 239.29608947 55.8703566 240.58671632 56.8125 241.875 C57.33457031 242.59429687 57.85664063 243.31359375 58.39453125 244.0546875 C60.03272777 246.23028655 60.03272777 246.23028655 63 248 C82.93542506 237.9599034 102.09259011 226.80563861 120.875 214.75 C121.90923096 214.08762329 121.90923096 214.08762329 122.96435547 213.41186523 C125.93286118 211.47742329 128.55455066 209.55806269 131 207 C129.52270825 205.99723227 128.04311423 204.99785546 126.5625 204 C125.73878906 203.443125 124.91507812 202.88625 124.06640625 202.3125 C120.89314236 200.29696755 120.37083674 201.30907468 117.265625 203.203125 Z " fill="#000000" transform="translate(109,244)"/>
<path d="M0 0 C0.7528125 -0.0103125 1.505625 -0.020625 2.28125 -0.03125 C5.4309614 0.72290625 6.512435 1.95278936 8.5 4.5 C9.51195867 6.90304551 10.3768776 9.22058371 11.1875 11.6875 C17.52393457 29.62968016 27.45276066 44.69339753 40.5 58.5 C41.15871094 59.2115625 41.81742188 59.923125 42.49609375 60.65625 C48.40025639 66.83364351 55.02483781 71.46943071 62.3671875 75.796875 C63.03935303 76.19334229 63.71151855 76.58980957 64.40405273 76.99829102 C65.73417971 77.77618134 67.06948813 78.54529553 68.41040039 79.30444336 C71.8455052 81.29578894 74.5657847 82.97249225 76.5 86.5 C77.09350467 89.23760712 77.00293443 91.74798801 76.5 94.5 C74.53268136 97.45097796 73.20574315 98.28641984 69.828125 99.30859375 C65.50050057 99.55748295 62.59359062 98.10845827 58.875 96.125 C58.1742334 95.76140381 57.4734668 95.39780762 56.75146484 95.02319336 C46.1651051 89.36804541 37.1941863 81.71648375 28.5 73.5 C27.62730469 72.70335938 26.75460938 71.90671875 25.85546875 71.0859375 C16.40069131 62.13162754 8.00855952 51.35456896 2.5 39.5 C-2.31766536 58.84836571 3.33107249 80.68401233 12.75 97.625 C22.72214336 113.93138034 36.23960272 125.82999101 52.5 135.5 C53.4178125 136.07621094 54.335625 136.65242187 55.28125 137.24609375 C57.36543797 138.66400225 57.36543797 138.66400225 59.5 138.5 C60.24443359 136.85064453 60.24443359 136.85064453 61.00390625 135.16796875 C73.24257442 108.36871969 91.01843876 87.81227512 117.5 74.5 C118.49 73.99726562 119.48 73.49453125 120.5 72.9765625 C124.19355411 71.20494497 127.62808271 69.69303641 131.640625 68.8046875 C141.79594571 66.5185371 145.95459596 61.27795269 152.03710938 53.37353516 C154.37462736 50.37985809 156.85055721 47.52391352 159.375 44.6875 C160.63957031 43.22376953 160.63957031 43.22376953 161.9296875 41.73046875 C164.93930219 39.11878184 166.54170452 38.56717734 170.5 38.5 C175.61054911 39.60085728 178.40036374 43.19329257 181.75 46.9375 C182.32790283 47.56205078 182.90580566 48.18660156 183.5012207 48.83007812 C186.89791008 52.54329977 189.81354713 56.36264607 192.6875 60.5 C197.59943076 66.67603059 203.63741605 68.02899346 210.93359375 70.125 C221.27532644 73.10748761 230.31362377 78.50576569 238.53222656 85.38769531 C241.6973358 87.87197139 243.34572831 88.50123294 247.41015625 88.46875 C251.6473546 87.6294198 255.59500574 86.18382957 259.5625 84.5 C260.66005615 84.03859619 260.66005615 84.03859619 261.77978516 83.56787109 C292.00846954 70.45246995 314.21138236 45.84445654 326.5 15.5 C327.50481675 12.64617103 328.48910894 9.79214299 329.41015625 6.91015625 C330.70631461 4.04374152 332.0380042 2.45445959 334.5 0.5 C336.71875 -0.03125 336.71875 -0.03125 339 0 C339.7528125 -0.0103125 340.505625 -0.020625 341.28125 -0.03125 C344.50217688 0.73995784 345.50034773 1.8419755 347.5 4.5 C348.78356001 7.47045962 349.68313396 10.51394078 350.5625 13.625 C350.94656006 14.96353027 350.94656006 14.96353027 351.33837891 16.32910156 C359.60965978 46.05516893 359.12530989 76.34493218 344.6875 104.125 C331.70337616 126.89664866 310.47127814 146.63968919 286.5 157.5 C285.84 157.5 285.18 157.5 284.5 157.5 C284.5 158.49 284.5 159.48 284.5 160.5 C285.7375 160.4175 286.975 160.335 288.25 160.25 C291.50872649 160.23846468 292.24749429 160.30576484 294.9375 162.375 C297.47549519 165.82667345 297.63287914 167.80743847 297.66113281 172.0637207 C297.67074036 173.22865555 297.6803479 174.39359039 297.69024658 175.59382629 C297.6966214 177.490644 297.6966214 177.490644 297.703125 179.42578125 C297.70882507 180.72065964 297.71452515 182.01553802 297.72039795 183.34965515 C297.73090798 186.09435418 297.73675028 188.83902392 297.74023438 191.58374023 C297.74571208 195.09434158 297.769724 198.60455369 297.79820633 202.11503315 C297.82135754 205.46860834 297.82328434 208.82213028 297.828125 212.17578125 C297.8404718 213.43425369 297.8528186 214.69272614 297.86553955 215.98933411 C297.86253845 217.16372543 297.85953735 218.33811676 297.85644531 219.5480957 C297.86009094 220.5790889 297.86373657 221.61008209 297.86749268 222.6723175 C297.42534092 226.07446635 296.68147153 227.84721779 294.5 230.5 C289.71523993 232.84792493 285.04268853 232.77435723 279.83251953 232.72705078 C278.55836433 232.72748886 278.55836433 232.72748886 277.25846863 232.72793579 C274.46647731 232.72654869 271.67475688 232.71101678 268.8828125 232.6953125 C266.9408279 232.69158017 264.99884141 232.68873423 263.05685425 232.68673706 C257.95722207 232.67911798 252.85770466 232.6594843 247.75811768 232.6373291 C242.54969841 232.6168335 237.34126051 232.60772741 232.1328125 232.59765625 C221.92182471 232.57623678 211.71092191 232.54212166 201.5 232.5 C201.51776489 233.59279266 201.53552979 234.68558533 201.55383301 235.81149292 C201.71640977 246.13887024 201.83612193 256.46598605 201.91449738 266.79435539 C201.95614737 272.10368291 202.01258781 277.41197275 202.10351562 282.72070312 C202.19080742 287.84958123 202.23835068 292.97746502 202.25901794 298.10702896 C202.27373471 300.05826587 202.30247426 302.00945184 202.34584045 303.9602623 C202.7125399 321.14866322 202.7125399 321.14866322 197.62133789 327.58398438 C196.2849463 328.927575 194.91491304 330.2393655 193.5 331.5 C192.58018705 332.52296108 191.67070779 333.55542393 190.77734375 334.6015625 C190.00519531 335.43429687 189.23304688 336.26703125 188.4375 337.125 C185.4472719 340.36288503 182.52702893 343.62960262 179.6875 347 C177.19128883 349.83369426 175.11228013 352.14539495 171.5 353.5 C167.81596263 353.70853042 165.54666231 353.30693597 162.58984375 351.02734375 C157.91290151 346.49917104 153.88347034 341.39567084 149.81640625 336.32421875 C146.75657798 332.59360182 143.51912192 329.04331806 140.25 325.49609375 C137.56962932 322.43879595 137.3649158 320.65399056 137.30712891 316.6706543 C137.29106598 315.66588547 137.27500305 314.66111664 137.25845337 313.62590027 C137.21404895 309.02868277 137.17294062 304.43161025 137.14990234 299.83422852 C137.13333679 297.40834972 137.10603925 294.98251985 137.06787109 292.55688477 C137.01315461 289.06240472 136.99123559 285.56906927 136.9765625 282.07421875 C136.95389313 280.99073654 136.93122375 279.90725433 136.90786743 278.79093933 C136.92903495 271.25818303 136.92903495 271.25818303 139.88037109 267.33911133 C142.67650402 265.3760853 144.08752226 264.5 147.5 264.5 C152.87059511 266.50080994 152.87059511 266.50080994 154.66477966 269.34910583 C155.56414794 271.66519646 155.72338414 273.25361011 155.67602539 275.72680664 C155.66225609 276.96443504 155.66225609 276.96443504 155.64820862 278.22706604 C155.63152634 279.11248581 155.61484406 279.99790558 155.59765625 280.91015625 C155.59358879 282.80663727 155.59170686 284.703124 155.59179688 286.59960938 C155.58372806 289.57357965 155.56285052 292.54489096 155.50366211 295.51831055 C154.97196661 309.27308935 154.97196661 309.27308935 160.87109375 321.18359375 C162.36653493 322.67173342 163.90443066 324.11975999 165.5 325.5 C166.50547258 326.4944973 167.50803336 327.49203067 168.5 328.5 C172.33333593 326.9561393 174.48308208 324.57543723 177.1875 321.5 C177.97511719 320.613125 178.76273438 319.72625 179.57421875 318.8125 C182.8660633 314.85961567 182.66776306 311.70243495 182.70532227 306.74560547 C182.71522186 305.94552063 182.72512146 305.14543579 182.73532104 304.32110596 C182.76697262 301.66983017 182.79170789 299.01853644 182.81640625 296.3671875 C182.83697262 294.53158089 182.85796901 292.69597904 182.87937927 290.86038208 C182.93463268 286.02382261 182.98402752 281.18722017 183.03222656 276.35058594 C183.08241774 271.4172787 183.13811623 266.48403404 183.19335938 261.55078125 C183.30098094 251.86723891 183.40190824 242.18364357 183.5 232.5 C174.26 232.5 165.02 232.5 155.5 232.5 C155.57887249 238.57293654 155.57887249 238.57293654 155.68017578 244.64550781 C155.6851709 245.40702148 155.69016602 246.16853516 155.6953125 246.953125 C155.70578613 247.72817383 155.71625977 248.50322266 155.72705078 249.30175781 C155.46607773 251.82842591 154.86445764 253.36289766 153.5 255.5 C150.33181244 257.61212504 148.36780748 257.83156464 144.6328125 258.05859375 C141.06568777 257.1243468 139.73081373 255.40708763 137.5 252.5 C136.88821104 249.04140882 137.02679548 245.68591386 137.1875 242.1875 C137.22133789 240.79047852 137.22133789 240.79047852 137.25585938 239.36523438 C137.31457922 237.0751604 137.39663142 234.78842125 137.5 232.5 C135.88840248 232.50999275 135.88840248 232.50999275 134.24424744 232.52018738 C124.1070367 232.58106664 113.96986318 232.62600539 103.83251095 232.65543652 C98.62109175 232.67107613 93.40982043 232.6922834 88.19848633 232.72631836 C83.16696791 232.7589724 78.13559152 232.77686583 73.1039753 232.78463173 C71.18667936 232.79016437 69.26939098 232.8009683 67.35215569 232.81719017 C64.66160303 232.83904476 61.97163335 232.84196357 59.28100586 232.84057617 C58.49265854 232.851362 57.70431122 232.86214783 56.89207458 232.8732605 C51.71520638 232.84447434 48.04635312 232.05489796 43.5 229.5 C41.12266401 226.44816499 41.24707168 223.47673123 41.24121094 219.69335938 C41.23490662 218.5253479 41.22860229 217.35733643 41.22210693 216.15393066 C41.2261554 214.89657104 41.23020386 213.63921143 41.234375 212.34375 C41.23150482 210.40211975 41.23150482 210.40211975 41.22857666 208.42126465 C41.22563172 205.68427751 41.22990265 202.94742113 41.23925781 200.21044922 C41.25065212 196.7065973 41.24408926 193.20305181 41.23211288 189.69921112 C41.22313793 186.351533 41.22942635 183.00393682 41.234375 179.65625 C41.23032654 178.39889038 41.22627808 177.14153076 41.22210693 175.84606934 C41.22841125 174.67805786 41.23471558 173.51004639 41.24121094 172.30664062 C41.24280212 171.27945923 41.24439331 170.25227783 41.24603271 169.19396973 C41.5086054 166.40871782 41.95900596 164.81819592 43.5 162.5 C46.58888522 160.44074319 47.20935927 160.2609626 50.6875 160.375 C51.945625 160.41625 53.20375 160.4575 54.5 160.5 C54.5 159.51 54.5 158.52 54.5 157.5 C53.66984375 157.26539063 52.8396875 157.03078125 51.984375 156.7890625 C47.87119164 155.2673691 44.43591043 153.2231039 40.75 150.875 C40.04407715 150.42842041 39.3381543 149.98184082 38.61083984 149.52172852 C32.92229001 145.87186853 27.60938051 141.9304509 22.5 137.5 C21.67113281 136.79230469 20.84226563 136.08460938 19.98828125 135.35546875 C0.45032614 118.27097814 -11.13657302 97.80437346 -16.5 72.5 C-16.69464844 71.58734375 -16.88929687 70.6746875 -17.08984375 69.734375 C-19.51160676 50.63704384 -16.82266552 31.95778581 -11.5625 13.625 C-11.32192871 12.77389648 -11.08135742 11.92279297 -10.83349609 11.04589844 C-9.00994509 5.06581281 -7.11904302 -0.09752114 0 0 Z M336.5 37.5 C336.17128906 38.15484375 335.84257812 38.8096875 335.50390625 39.484375 C329.44480473 51.10996816 321.47900118 61.00268635 312.5 70.5 C311.73042969 71.33402344 310.96085937 72.16804688 310.16796875 73.02734375 C296.18298903 87.69010923 277.99524579 96.81366409 259.5 104.5 C259.93570312 105.17804688 260.37140625 105.85609375 260.8203125 106.5546875 C267.68970135 117.28996618 273.92270266 128.04838948 279.5 139.5 C301.92114982 131.0324381 321.20317025 110.73045957 331.5 89.5 C338.61587454 72.96234727 340.46186763 55.24751082 337.5 37.5 C337.17 37.5 336.84 37.5 336.5 37.5 Z M168.5 62.5 C166.70580474 64.43521061 164.91458671 66.3730354 163.125 68.3125 C162.61710938 68.85970703 162.10921875 69.40691406 161.5859375 69.97070312 C156.65676196 75.32145289 155.20554227 78.28526638 155.27294922 85.4597168 C155.27265717 86.26970123 155.27236511 87.07968567 155.27206421 87.91421509 C155.27345804 90.59265845 155.28902168 93.27082396 155.3046875 95.94921875 C155.30841744 97.80581002 155.3112645 99.66240325 155.31326294 101.51899719 C155.32090087 106.40660024 155.34055075 111.29408452 155.3626709 116.18164062 C155.38312587 121.16860345 155.39226391 126.15558545 155.40234375 131.14257812 C155.42379649 140.92844601 155.45897995 150.71419455 155.5 160.5 C164.74 160.5 173.98 160.5 183.5 160.5 C183.77237304 149.92005334 183.99196345 139.34247727 184.12174606 128.75980186 C184.18407335 123.84439036 184.26842962 118.93152452 184.40527344 114.01757812 C184.53678861 109.26459864 184.60763657 104.51404799 184.63852692 99.75938797 C184.6605037 97.95636407 184.70342072 96.15345599 184.76876068 94.35148239 C185.16568637 82.93880987 183.8803637 76.10458355 175.97282028 67.57086754 C173.55243377 65.1489162 171.78043223 63.59347741 168.5 62.5 Z M201.5 86.5 C201.5 110.92 201.5 135.34 201.5 160.5 C209.75 160.83 218 161.16 226.5 161.5 C229.84403747 164.84403747 230.2251328 165.91888002 230.5 170.5 C229.875 173.25 229.875 173.25 228.5 175.5 C224.52528727 177.56762692 221.11006601 177.75810222 216.6726532 177.7784729 C215.99867849 177.7842653 215.32470378 177.7900577 214.63030559 177.79602563 C212.37938329 177.81298628 210.12866651 177.81589869 207.87768555 177.81884766 C206.26119995 177.82814856 204.64471914 177.83831748 203.02824402 177.84928894 C198.64439256 177.87658471 194.26057323 177.89173711 189.87665915 177.90471697 C185.29353384 177.92034933 180.71047411 177.94713923 176.12739563 177.9727478 C167.45067483 178.01953369 158.77394168 178.05627874 150.09715921 178.08942068 C140.21810967 178.12764338 130.33912601 178.17705317 120.460132 178.22740483 C100.14013059 178.33072191 79.82010147 178.41850625 59.5 178.5 C59.5 190.05 59.5 201.6 59.5 213.5 C132.1 213.5 204.7 213.5 279.5 213.5 C279.5 201.95 279.5 190.4 279.5 178.5 C268.86513821 178.29021375 268.86513821 178.29021375 258.22973633 178.11206055 C256.88880672 178.07975185 255.54790223 178.04637547 254.20703125 178.01171875 C253.17660706 178.00235291 253.17660706 178.00235291 252.12536621 177.99279785 C247.77821881 177.86330168 244.96908797 177.15584877 241.5 174.5 C239.95413124 171.40826248 240.20640479 168.90570448 240.5 165.5 C241.81640625 163.3203125 241.81640625 163.3203125 244.5 161.5 C248.24238038 160.85888573 251.95928039 160.80291614 255.75 160.75 C257.296875 160.70552734 257.296875 160.70552734 258.875 160.66015625 C261.41674495 160.58955222 263.95757783 160.53680991 266.5 160.5 C262.83091825 143.91671602 256.49515311 129.54733066 245.5 116.5 C244.7678125 115.61699219 244.035625 114.73398438 243.28125 113.82421875 C232.77608401 101.6360068 218.74684966 91.91476904 203.5 86.5 C202.84 86.5 202.18 86.5 201.5 86.5 Z M107.5 102.5 C106.52675781 103.29921875 105.55351562 104.0984375 104.55078125 104.921875 C94.04154867 113.8625654 86.05607522 124.58718572 80.0625 137 C79.75666992 137.62664551 79.45083984 138.25329102 79.13574219 138.89892578 C75.93228954 145.96390469 74.56259229 152.7652789 72.5 160.5 C93.95 160.5 115.4 160.5 137.5 160.5 C137.5 136.08 137.5 111.66 137.5 86.5 C127.73017825 86.5 114.59483351 96.58586592 107.5 102.5 Z " fill="#000000" transform="translate(86.5,-0.5)"/>
</svg>
