<?xml version="1.0" encoding="UTF-8"?>
<svg version="1.1" xmlns="http://www.w3.org/2000/svg" width="512" height="512">
<path d="M0 0 C5.58341707 2.90307988 8.80658887 7.13478151 12.5 12.0625 C13.40468018 13.24755127 13.40468018 13.24755127 14.32763672 14.45654297 C19.84534045 21.71381832 25.24786534 29.05800157 30.6328125 36.4140625 C33.72370489 40.63340391 36.85353676 44.82200394 40 49 C44.29093791 54.69963672 48.53036831 60.43490901 52.75 66.1875 C58.45070295 73.95633904 64.25964294 81.6372806 70.14355469 89.26831055 C73.94541281 94.22093975 77.62965942 99.24420509 81.24902344 104.33081055 C81.93748856 105.29659153 81.93748856 105.29659153 82.63986206 106.28188324 C83.76052956 107.85414601 84.88035224 109.42701089 86 111 C86.00142502 109.76495728 86.00285004 108.52991455 86.00431824 107.25744629 C86.0210052 95.60457134 86.06383116 83.95204484 86.13209057 72.29935455 C86.16634584 66.30889401 86.19146836 60.31868811 86.19555664 54.328125 C86.19984259 48.54423834 86.22833104 42.76092598 86.27343178 36.97721863 C86.2863971 34.77332406 86.29071791 32.56936072 86.28615379 30.36543274 C86.28124117 27.27229194 86.30737129 24.18082534 86.34057617 21.08789062 C86.33195053 20.18157898 86.32332489 19.27526733 86.31443787 18.3414917 C86.42754476 12.0347763 88.04245115 7.92542112 92 3 C95.8863289 -0.65772131 100.23366569 -0.50266714 105.34375 -0.3515625 C110.34210632 0.30998466 112.96092421 2.90475795 116.3125 6.4375 C119.74500215 11.64981808 119.16704294 17.61813482 119.20532227 23.65551758 C119.21522186 24.6218512 119.22512146 25.58818481 119.23532104 26.58380127 C119.26685152 29.77068653 119.29166007 32.95758669 119.31640625 36.14453125 C119.33698307 38.35699343 119.35797974 40.56945175 119.37937927 42.78190613 C119.4345247 48.59989283 119.48396718 54.41791456 119.53222656 60.23596191 C119.58249657 66.17491772 119.63815392 72.11382276 119.69335938 78.05273438 C119.80084886 89.70177953 119.90231427 101.3508688 120 113 C121.77094968 110.91237543 123.54119293 108.82415881 125.31103516 106.7355957 C125.81035049 106.14714119 126.30966583 105.55868668 126.82411194 104.95240021 C130.09397637 101.09226814 133.28114731 97.19100705 136.375 93.1875 C140.35284798 88.07146486 144.40110803 83.01954389 148.5 78 C152.63449822 72.93466019 156.72375361 67.8393331 160.75 62.6875 C164.62693327 57.72850347 168.56423009 52.82702555 172.5625 47.96484375 C179.70883984 39.27242077 186.81638081 30.55088025 193.75 21.6875 C195.07618034 19.99783209 196.40290245 18.30859185 197.72998047 16.61962891 C198.57228615 15.54545438 199.41248109 14.46962115 200.25048828 13.39208984 C210.28539291 0.5187064 210.28539291 0.5187064 216.6015625 -0.36328125 C221.1614461 -0.5783701 224.27591222 -0.34229604 228.4375 1.625 C231.95561769 4.88569445 234.63452443 7.47862919 235.34765625 12.3984375 C235.67449215 21.86246822 231.19303175 27.30971756 225.3125 34.25 C224.03857443 35.77433182 222.76513329 37.29906863 221.4921875 38.82421875 C220.88342773 39.55044434 220.27466797 40.27666992 219.64746094 41.02490234 C217.71173729 43.3455906 215.81645394 45.69566317 213.9375 48.0625 C211.10931916 51.62189853 208.24994664 55.1540809 205.37719727 58.67749023 C200.24352855 64.97422679 195.16477614 71.30662058 190.16479492 77.70996094 C186.12135016 82.87540869 181.98178473 87.95967735 177.83374023 93.04125977 C174.36106518 97.30310909 170.94173694 101.60131101 167.5625 105.9375 C162.8799785 111.94214522 158.05012135 117.81660123 153.19384766 123.68115234 C149.09403099 128.64290692 145.08496196 133.66539296 141.12866211 138.74194336 C136.00674936 145.30135402 130.73960553 151.74247158 125.47290039 158.18579102 C124.7438147 159.08382446 124.7438147 159.08382446 124 160 C123.32004786 160.6481901 122.64009571 161.2963802 121.93953896 161.96421242 C119.11324048 166.3879657 119.44694397 170.2379304 119.49447632 175.3868103 C119.4883862 176.44378353 119.48229608 177.50075675 119.47602141 178.58975947 C119.4603848 182.13737346 119.47322506 185.68431588 119.48583984 189.23193359 C119.4803808 191.7730095 119.47314043 194.31408211 119.46424866 196.85514832 C119.44889299 202.33030788 119.44561015 207.80526526 119.45301437 213.28043747 C119.46353378 221.20418 119.45013613 229.12774393 119.43054982 237.05146272 C119.39921105 249.91744709 119.38420462 262.78339372 119.38085938 275.64941406 C119.38065539 276.41931961 119.3804514 277.18922515 119.38024123 277.98246117 C119.38003786 278.7533191 119.37983449 279.52417704 119.37962496 280.3183943 C119.3767062 291.24221651 119.36990545 302.16602705 119.35839844 313.08984375 C119.35759314 313.85820416 119.35678785 314.62656458 119.35595815 315.41820864 C119.34219849 328.23388466 119.32040515 341.0495399 119.2945286 353.86519682 C119.27909181 361.76783941 119.27187218 369.67041399 119.27532353 377.57307138 C119.27760666 383.62931408 119.27024981 389.68550404 119.25944328 395.74173927 C119.25675883 398.22536528 119.25751503 400.70899774 119.26195335 403.19262123 C119.26759098 406.58156993 119.26105142 409.97028728 119.2515564 413.35922241 C119.25621961 414.34317753 119.26088282 415.32713265 119.26568735 416.34090459 C119.19969118 428.39564864 119.19969118 428.39564864 115.34375 432.9609375 C114.7353125 433.42757813 114.126875 433.89421875 113.5 434.375 C112.8915625 434.85710937 112.283125 435.33921875 111.65625 435.8359375 C107.18473825 438.97865094 102.2838524 438.5231537 97 438 C91.87317627 435.66962558 89.02755201 432.20130109 87 427 C86.4615527 423.43513388 86.51208966 419.9318815 86.57522583 416.33280945 C86.5776025 415.26963794 86.57997917 414.20646643 86.58242786 413.11107761 C86.59489574 409.5537446 86.63579034 405.99730161 86.67626953 402.44018555 C86.69045764 399.88712032 86.70268167 397.33404353 86.71308899 394.78096008 C86.73840883 389.28342548 86.77494987 383.78613826 86.81979752 378.28873253 C86.88944039 369.58378811 86.91504698 360.8789648 86.93331909 352.17378235 C86.94008951 349.190497 86.94709255 346.20721222 86.95413017 343.2239275 C86.9558709 342.47837548 86.95761163 341.73282347 86.9594051 340.96467897 C86.97967502 332.48383443 87.00768156 324.0030234 87.04003906 315.5222168 C87.0429828 314.74735583 87.04592654 313.97249485 87.04895948 313.17415325 C87.09783595 300.64143816 87.18454225 288.10920471 87.2817917 275.57678487 C87.38056025 262.68298283 87.42510382 249.78971474 87.42359054 236.89553481 C87.42460586 228.95792335 87.46883298 221.02299027 87.57032113 213.08601645 C87.64409101 206.98515099 87.64356868 200.88626791 87.61673546 194.78506279 C87.61735062 192.29786356 87.64162727 189.81052936 87.69241905 187.32384872 C87.99408227 171.75340959 86.17040073 162.16737375 75.39015007 150.53634357 C74.80113907 149.9281829 74.21212806 149.32002223 73.60526824 148.69343245 C71.54859786 146.52380605 69.79499704 144.18682099 68.0625 141.75390625 C67.5483252 141.05281738 67.03415039 140.35172852 66.50439453 139.62939453 C66.00794434 138.94731934 65.51149414 138.26524414 65 137.5625 C63.83073356 135.9674447 62.66146259 134.37239271 61.4921875 132.77734375 C60.32801982 131.18497273 59.16395674 129.59252522 58 128 C50.7536905 118.09863282 43.4550174 108.24556523 36 98.5 C27.95897686 87.98837925 20.10940059 77.34369567 12.29101562 66.66601562 C10.57059278 64.31784442 8.84828933 61.97106823 7.125 59.625 C6.559021 58.85349609 5.99304199 58.08199219 5.40991211 57.28710938 C2.23222872 52.97240767 -0.98934114 48.69654109 -4.26171875 44.453125 C-5.33607178 43.05779541 -5.33607178 43.05779541 -6.43212891 41.63427734 C-7.81042331 39.84909704 -9.19388184 38.06788686 -10.58349609 36.29150391 C-21.95026661 21.57221526 -21.95026661 21.57221526 -21.41796875 12.29296875 C-20.53635717 7.45646412 -17.93143397 4.86328026 -14.4375 1.625 C-9.67679514 -0.62551502 -5.17783813 -0.98902526 0 0 Z " fill="#000000" transform="translate(149,37)"/>
</svg>
